<svg width="103" height="109" viewBox="0 0 103 109" fill="none" xmlns="http://www.w3.org/2000/svg">
<path fill-rule="evenodd" clip-rule="evenodd" d="M92.6352 51.3248L102.999 49.2026H103V100.133H102.999L51.4993 108.182L0 100.133V49.2026L10.3634 51.3248L51.2861 61.5184L92.6352 51.3248Z" fill="#BFA699"/>
<path fill-rule="evenodd" clip-rule="evenodd" d="M10.3634 38.3631V92.0828C39.5416 91.9676 49.7839 105.98 51.4993 108.183C53.2149 105.98 63.457 91.9676 92.6352 92.0828L92.6353 38.3631C63.4571 38.248 53.215 52.2601 51.4994 54.4629C49.7838 52.2601 39.5417 38.248 10.3634 38.3631Z" fill="#DDCEC6"/>
<path fill-rule="evenodd" clip-rule="evenodd" d="M45.6596 62.2567C45.4994 62.2567 45.3385 62.205 45.2034 62.0987C42.3267 59.8341 38.9791 57.9112 35.2542 56.3838C30.4552 54.4158 25.0164 53.1041 19.0895 52.4855C18.6842 52.4434 18.3897 52.0803 18.4317 51.675C18.4738 51.2698 18.837 50.9753 19.2422 51.0173C25.3086 51.6506 30.8841 52.9971 35.8137 55.0182C39.6655 56.5972 43.132 58.5896 46.1165 60.94C46.4369 61.1924 46.4922 61.6559 46.2397 61.9763C46.0944 62.1601 45.8781 62.2567 45.6596 62.2567Z" fill="#8E736D"/>
<path fill-rule="evenodd" clip-rule="evenodd" d="M45.6596 72.0243C45.4994 72.0243 45.3385 71.9726 45.2034 71.8663C42.3267 69.6016 38.9791 67.6787 35.2542 66.1513C30.4552 64.1833 25.0164 62.8716 19.0895 62.253C18.6842 62.2109 18.3897 61.8478 18.4317 61.4425C18.4738 61.0373 18.837 60.7429 19.2422 60.7849C25.3086 61.4181 30.8841 62.7646 35.8137 64.7857C39.6655 66.3654 43.132 68.3571 46.1165 70.7074C46.4369 70.9599 46.4922 71.4235 46.2397 71.7438C46.0944 71.9275 45.8781 72.0243 45.6596 72.0243Z" fill="#8E736D"/>
<path fill-rule="evenodd" clip-rule="evenodd" d="M45.6596 81.7927C45.4994 81.7927 45.3385 81.741 45.2034 81.6347C42.3267 79.37 38.9791 77.4471 35.2542 75.9197C30.4552 73.9517 25.0164 72.64 19.0895 72.0214C18.6842 71.9793 18.3897 71.6162 18.4317 71.2109C18.4738 70.8057 18.837 70.5112 19.2422 70.5532C25.3086 71.1865 30.8841 72.533 35.8137 74.5541C39.6655 76.1338 43.132 78.1255 46.1165 80.4758C46.4369 80.7283 46.4922 81.1919 46.2397 81.5122C46.0944 81.696 45.8781 81.7927 45.6596 81.7927Z" fill="#8E736D"/>
<path fill-rule="evenodd" clip-rule="evenodd" d="M45.6596 91.5604C45.4994 91.5604 45.3385 91.5087 45.2034 91.4024C42.3267 89.1377 38.9791 87.2148 35.2542 85.6874C30.4552 83.7194 25.0164 82.4077 19.0895 81.7891C18.6842 81.747 18.3897 81.3839 18.4317 80.9786C18.4738 80.5734 18.837 80.2789 19.2422 80.3209C25.3086 80.9542 30.8841 82.3007 35.8137 84.3218C39.6655 85.9008 43.132 87.8932 46.1165 90.2436C46.4369 90.496 46.4922 90.9596 46.2397 91.2799C46.0944 91.4637 45.8781 91.5604 45.6596 91.5604Z" fill="#8E736D"/>
<path fill-rule="evenodd" clip-rule="evenodd" d="M58.8207 62.2566C58.6022 62.2566 58.3859 62.1599 58.2404 61.9753C57.9879 61.6549 58.0433 61.1906 58.3637 60.939C61.3482 58.5894 64.8147 56.597 68.6665 55.0173C73.596 52.9961 79.1716 51.6505 85.238 51.0163C85.6432 50.9742 86.0064 51.2681 86.0484 51.6741C86.0905 52.0793 85.7967 52.4425 85.3907 52.4846C79.4638 53.1039 74.0249 54.4157 69.226 56.3829C65.5011 57.9102 62.1535 59.8331 59.2767 62.0978C59.1418 62.2049 58.9808 62.2566 58.8207 62.2566Z" fill="#8E736D"/>
<path fill-rule="evenodd" clip-rule="evenodd" d="M58.8207 72.0243C58.6022 72.0243 58.3859 71.9276 58.2404 71.743C57.9879 71.4226 58.0433 70.9583 58.3637 70.7066C61.3482 68.357 64.8147 66.3646 68.6665 64.7849C73.596 62.7637 79.1716 61.4181 85.238 60.784C85.6432 60.7412 86.0064 61.0357 86.0484 61.4417C86.0905 61.8469 85.7967 62.2102 85.3907 62.2522C79.4638 62.8716 74.0249 64.1833 69.226 66.1505C65.5011 67.6778 62.1535 69.6007 59.2767 71.8655C59.1418 71.9726 58.9808 72.0243 58.8207 72.0243Z" fill="#8E736D"/>
<path fill-rule="evenodd" clip-rule="evenodd" d="M58.8207 81.7927C58.6022 81.7927 58.3859 81.696 58.2404 81.5114C57.9879 81.191 58.0433 80.7267 58.3637 80.475C61.3482 78.1254 64.8147 76.133 68.6665 74.5533C73.596 72.5321 79.1716 71.1865 85.238 70.5524C85.6432 70.5095 86.0064 70.8041 86.0484 71.2101C86.0905 71.6153 85.7967 71.9786 85.3907 72.0206C79.4638 72.64 74.0249 73.9517 69.226 75.9189C65.5011 77.4462 62.1535 79.3691 59.2767 81.6339C59.1418 81.741 58.9808 81.7927 58.8207 81.7927Z" fill="#8E736D"/>
<path fill-rule="evenodd" clip-rule="evenodd" d="M58.8207 91.5604C58.6022 91.5604 58.3859 91.4637 58.2404 91.2791C57.9879 90.9587 58.0433 90.4944 58.3637 90.2427C61.3482 87.8931 64.8147 85.9007 68.6665 84.321C73.596 82.2998 79.1716 80.9542 85.238 80.3201C85.6432 80.2772 86.0064 80.5718 86.0484 80.9778C86.0905 81.383 85.7967 81.7463 85.3907 81.7883C79.4638 82.4077 74.0249 83.7194 69.226 85.6866C65.5011 87.2139 62.1535 89.1368 59.2767 91.4016C59.1418 91.5087 58.9808 91.5604 58.8207 91.5604Z" fill="#8E736D"/>
<path fill-rule="evenodd" clip-rule="evenodd" d="M49.958 106.302C50.7227 107.163 51.2225 107.827 51.4993 108.183C51.7761 107.827 52.2759 107.164 53.0406 106.302L53.0407 52.582C52.276 53.4435 51.7762 54.1071 51.4994 54.4629C51.2226 54.1071 50.7228 53.4442 49.9581 52.582L49.958 106.302Z" fill="#CEB7AB"/>
<path fill-rule="evenodd" clip-rule="evenodd" d="M52.7638 30.0447C52.3792 30.0447 52.0219 29.7996 51.8972 29.4135C51.2439 27.3916 51.1132 25.3262 51.5096 23.2733C51.8846 21.3304 52.7321 19.3993 54.0283 17.5339C56.4569 14.0386 60.4695 10.7803 65.6339 8.11181C66.0805 7.88077 66.6304 8.05575 66.8615 8.50302C67.0925 8.94959 66.9176 9.49957 66.4703 9.73061C61.5687 12.2633 57.7834 15.3216 55.5239 18.5741C53.1617 21.9741 52.5247 25.4326 53.6304 28.854C53.7855 29.3323 53.5227 29.8461 53.0436 30.0012C52.9513 30.0299 52.8568 30.0447 52.7638 30.0447Z" fill="#8DC63F"/>
<path fill-rule="evenodd" clip-rule="evenodd" d="M54.554 35.88C54.1591 35.88 53.7951 35.6208 53.6793 35.2222L53.5479 34.7675C51.5393 27.8102 49.262 19.9234 39.7734 15.5438C39.3164 15.3327 39.1171 14.7915 39.3283 14.3347C39.5394 13.8777 40.0806 13.6784 40.5374 13.8896C45.1068 15.9985 48.5341 19.0569 51.0167 23.2386C53.1574 26.8462 54.2949 30.7858 55.2989 34.2619L55.4303 34.7159C55.5698 35.1995 55.2915 35.7044 54.8087 35.8439C54.723 35.8682 54.6374 35.88 54.554 35.88Z" fill="#8DC63F"/>
<path fill-rule="evenodd" clip-rule="evenodd" d="M58.0677 14.2866C65.4266 17.3205 68.7403 17.3212 73.4152 8.92953C73.4661 8.83877 73.9068 8.02374 73.9584 7.93298C74.3645 7.21691 75.6762 3.94086 79.3981 1.29824C70.9541 -1.46698 57.5111 -0.940627 58.0677 14.2866Z" fill="#39B54A"/>
<path fill-rule="evenodd" clip-rule="evenodd" d="M47.2215 19.5596C39.7504 22.3035 36.4388 22.1749 32.0947 13.6061C32.0474 13.5139 31.6385 12.6819 31.5905 12.5896C31.2125 11.8581 30.0292 8.53333 26.4136 5.74743C34.9597 3.3136 48.3709 4.36553 47.2215 19.5596Z" fill="#39B54A"/>
<path fill-rule="evenodd" clip-rule="evenodd" d="M51.6249 44.095C51.1399 44.095 50.7362 43.7126 50.7155 43.2232C50.6247 41.1002 51.0492 39.0746 51.9785 37.2018C52.8577 35.4295 54.1894 33.7951 55.9359 32.3439C59.2074 29.6251 63.9436 27.5583 69.632 26.3667C70.1244 26.2634 70.6071 26.5793 70.7105 27.0717C70.8138 27.5641 70.498 28.0468 70.0055 28.1502C64.6072 29.2804 60.1442 31.2152 57.1007 33.7449C53.9184 36.3898 52.3831 39.5522 52.5366 43.1449C52.558 43.6476 52.1682 44.0721 51.6655 44.0942C51.6508 44.095 51.6375 44.095 51.6249 44.095Z" fill="#8DC63F"/>
<path fill-rule="evenodd" clip-rule="evenodd" d="M60.6926 30.2949C66.9753 35.1869 70.1687 36.0741 76.9105 29.2364C76.9836 29.1625 77.6258 28.4952 77.6996 28.4214C78.282 27.8397 80.4191 25.0332 84.7102 23.4823C77.3098 18.5593 64.2153 15.4715 60.6926 30.2949Z" fill="#39B54A"/>
<path fill-rule="evenodd" clip-rule="evenodd" d="M77.8259 1.78473L76.5378 2.38265L75.2652 3.01014L74.0095 3.66936C73.5954 3.89674 73.1835 4.12927 72.7708 4.35883C72.3604 4.59284 71.9544 4.83426 71.5462 5.07115C71.4436 5.12948 71.3432 5.19225 71.2428 5.25424L70.9409 5.43951L70.337 5.80936L70.1856 5.90161L70.0366 5.99682L69.7376 6.18653L69.1397 6.56667L68.9906 6.66188L68.843 6.75935L68.5477 6.955L67.9571 7.34621C67.5645 7.60829 67.1791 7.88136 66.793 8.15234C66.5989 8.28591 66.4099 8.42768 66.2187 8.56648L65.6466 8.98358C65.4539 9.11942 65.2657 9.26258 65.0753 9.40138C64.8841 9.5394 64.6937 9.6789 64.5017 9.81552C64.309 9.95136 64.1186 10.0909 63.9266 10.2274C63.7347 10.3647 63.5412 10.4998 63.3478 10.6356C63.153 10.7685 62.9618 10.9073 62.7684 11.0431L62.1875 11.4491C61.7992 11.7193 61.4145 11.9932 61.0226 12.2596C60.6329 12.5283 60.2446 12.8 59.8496 13.0628C59.4555 13.3278 59.0642 13.5958 58.6589 13.8483C58.6412 13.8593 58.6169 13.8542 58.6058 13.8357C58.5962 13.8202 58.5992 13.801 58.611 13.7892C58.9438 13.4475 59.2879 13.1189 59.6333 12.7912C59.9825 12.4686 60.3346 12.1483 60.6926 11.8353C60.8728 11.6796 61.0529 11.5246 61.2345 11.3709C61.4161 11.2174 61.5969 11.0624 61.7815 10.9133C62.1506 10.6143 62.5204 10.3139 62.8962 10.023C63.0851 9.87838 63.2742 9.73443 63.4646 9.59188C63.655 9.44942 63.8447 9.30617 64.0404 9.17042C64.4301 8.89805 64.8191 8.62419 65.2177 8.36359L65.8171 7.97604C66.0171 7.84762 66.2158 7.71623 66.4187 7.59146L67.0233 7.21281C67.2248 7.08656 67.4234 6.95596 67.6278 6.83416L68.2361 6.46135L68.5403 6.27529L68.6923 6.18226L68.8458 6.0922L69.4615 5.73124L69.7693 5.55112L69.9229 5.46105L70.0786 5.37395L70.7023 5.02852L71.0138 4.8558C71.1179 4.79826 71.2213 4.73993 71.3268 4.68526C71.7483 4.46451 72.1677 4.24017 72.5898 4.02308C73.0165 3.81339 73.4417 3.60161 73.8698 3.3949L75.1638 2.79767L76.4719 2.23444L77.797 1.71332C77.8162 1.70591 77.8383 1.7155 77.8464 1.73477C77.8538 1.75325 77.8436 1.77662 77.8259 1.78473Z" fill="#009444"/>
<path fill-rule="evenodd" clip-rule="evenodd" d="M28.0804 6.22714L29.3804 6.80807L30.6618 7.43032L31.9271 8.08579C32.3449 8.31169 32.7597 8.54343 33.1768 8.7716C33.5895 9.00779 33.9977 9.2507 34.4089 9.49063C34.5122 9.54966 34.6126 9.61313 34.7138 9.67521L35.0172 9.86196L35.6247 10.2355L35.7761 10.33L35.9259 10.4267L36.2249 10.6208L36.8235 11.0091L36.9734 11.1066L37.121 11.2062L37.4163 11.4062L38.0076 11.8063C38.2062 11.9377 38.3988 12.0765 38.5945 12.2123L39.1813 12.6184C39.3785 12.7519 39.5704 12.8922 39.7645 13.0295L40.3462 13.4437C40.7323 13.722 41.1088 14.0128 41.486 14.3029C41.675 14.4476 41.8581 14.5997 42.0418 14.7503C42.2256 14.9008 42.4079 15.0537 42.5903 15.2064C42.9536 15.5143 43.3086 15.8302 43.6637 16.1461C43.8416 16.3041 44.0151 16.4665 44.1893 16.6282C44.3635 16.7898 44.537 16.953 44.7097 17.1161C45.0529 17.4453 45.3903 17.7805 45.7247 18.1193C46.0547 18.4625 46.3839 18.8065 46.7006 19.1631C46.7146 19.1786 46.7131 19.2029 46.6976 19.2169C46.6844 19.2287 46.6644 19.2295 46.6504 19.2199C46.2569 18.949 45.8775 18.6633 45.4959 18.3806C45.1135 18.0993 44.7378 17.8107 44.3606 17.5243C43.9819 17.2401 43.6091 16.9485 43.2341 16.6613L42.6724 16.2295C42.4856 16.0848 42.3011 15.9371 42.1121 15.7955C41.9254 15.6515 41.7378 15.5076 41.5526 15.3615C41.3665 15.216 41.1835 15.0676 40.9967 14.9237C40.8107 14.7783 40.6269 14.6307 40.4424 14.4837C40.2578 14.3361 40.077 14.1848 39.8909 14.0401L39.338 13.5979C39.1534 13.451 38.9704 13.3011 38.7829 13.1587C38.4086 12.8708 38.0366 12.5807 37.6564 12.3009L37.0843 11.8831L36.7986 11.6742L36.6553 11.5701L36.5107 11.4683L35.9313 11.0616L35.6412 10.8578L35.4965 10.756L35.3496 10.657L34.7635 10.2599L34.4704 10.0613C34.3723 9.99484 34.2756 9.9277 34.1759 9.86493C33.7788 9.60956 33.3838 9.35044 32.9845 9.09724C32.5822 8.8492 32.1821 8.59827 31.7783 8.3524L30.5537 7.63634L29.3105 6.95201L28.0504 6.29654C28.0319 6.28695 28.0239 6.26332 28.0335 6.24492C28.0406 6.22644 28.0619 6.21903 28.0804 6.22714Z" fill="#009444"/>
<path fill-rule="evenodd" clip-rule="evenodd" d="M83.1393 23.511L81.739 23.7457L80.346 24.013L78.9612 24.3156C78.5013 24.4248 78.0429 24.54 77.5846 24.6514C77.1269 24.7688 76.6714 24.8928 76.2152 25.0132C76.1008 25.0427 75.9878 25.0759 75.8741 25.1092L75.5338 25.2073L74.8539 25.4045L74.6842 25.4532L74.5151 25.5049L74.177 25.609L73.5001 25.8172L73.3311 25.8689L73.1628 25.9243L72.8262 26.0343L72.1537 26.2551C71.7056 26.4034 71.2619 26.5651 70.8175 26.7231C70.5946 26.8006 70.3753 26.887 70.1539 26.9696L69.4917 27.2199C69.2695 27.2996 69.051 27.3881 68.8303 27.4716C68.6095 27.5542 68.3889 27.6377 68.1674 27.7188C67.9453 27.7985 67.7252 27.8828 67.5037 27.9639C67.2823 28.0451 67.0601 28.1249 66.8379 28.2039C66.6143 28.2799 66.3935 28.3633 66.1713 28.443L65.5033 28.68C65.0575 28.8372 64.6138 28.9996 64.1657 29.1531C63.7191 29.3089 63.2725 29.4676 62.8222 29.6167C62.3719 29.7673 61.9239 29.9223 61.4662 30.0581C61.4463 30.0641 61.4242 30.053 61.4183 30.0323C61.4131 30.0153 61.4204 29.9969 61.4353 29.9887C61.8464 29.7473 62.2657 29.5222 62.685 29.2978C63.1073 29.0793 63.5317 28.8645 63.9599 28.6571C64.1747 28.5552 64.3895 28.4533 64.605 28.3536C64.8206 28.2533 65.0362 28.1529 65.2539 28.0576C65.6894 27.8672 66.125 27.676 66.5641 27.4951C66.7849 27.4058 67.0049 27.3173 67.2263 27.2301C67.4478 27.1437 67.6685 27.0559 67.8929 26.9761C68.3409 26.8166 68.7883 26.6557 69.2416 26.5103L69.9221 26.2955C70.1495 26.2246 70.3754 26.1509 70.6035 26.0844L71.287 25.8792C71.5144 25.8106 71.741 25.7382 71.9699 25.6747L72.6549 25.4769L72.9975 25.378L73.1687 25.3285L73.3407 25.2821L74.0294 25.0975L74.3734 25.0052L74.5454 24.9588L74.7181 24.916L75.4113 24.7484L75.7575 24.6642C75.8726 24.6362 75.9885 24.6074 76.1044 24.5831C76.5687 24.4819 77.0323 24.3771 77.4974 24.2797C77.9646 24.1911 78.4304 24.0988 78.8977 24.0132L80.3032 23.7807L81.7139 23.585L83.129 23.4337C83.1497 23.4315 83.1689 23.4462 83.1712 23.4676C83.1733 23.4876 83.1586 23.5081 83.1393 23.511Z" fill="#009444"/>
</svg>
