<svg width="154" height="92" viewBox="0 0 154 92" fill="none" xmlns="http://www.w3.org/2000/svg">
<path d="M84.9992 69.2962L85.7668 66.8163C86.0372 65.9425 86.5804 65.1783 87.3166 64.6355C88.0528 64.0928 88.9434 63.8 89.8581 63.8H91.6774L92.9212 57.7564H98.9648L100.588 40.3454C100.801 38.0626 101.9 35.9544 103.65 34.4725L124.947 16.4297C125.45 16.0033 126.034 15.6825 126.664 15.4863C127.294 15.2902 127.957 15.2228 128.614 15.2881C129.27 15.3533 129.907 15.55 130.486 15.8663C131.065 16.1827 131.574 16.6122 131.984 17.1294L150.512 40.5266C151.229 41.4327 151.57 42.5808 151.462 43.7316C151.354 44.8824 150.806 45.9471 149.932 46.7038L101.902 88.298C101.05 89.0379 99.9413 89.4147 98.8144 89.3477C97.6875 89.2806 96.6316 88.775 95.8728 87.9392C92.9276 84.6838 88.3862 79.1821 85.3139 73.1848C84.706 71.9792 84.5931 70.5839 84.9992 69.2962Z" fill="#B6DFFC"/>
<path d="M150.863 41.0516L144.309 46.5204C143.835 46.9075 143.278 47.182 142.683 47.3235C142.087 47.4649 141.466 47.4696 140.868 47.3371C139.008 46.952 137.086 46.986 135.24 47.4366C133.395 47.8872 131.673 48.7432 130.2 49.9422C128.727 51.1413 127.539 52.6534 126.723 54.3688C125.907 56.0842 125.483 57.9597 125.483 59.8593C125.483 59.9932 125.485 60.1265 125.489 60.2589C125.506 60.8621 125.385 61.4612 125.136 62.0108C124.887 62.5603 124.516 63.046 124.051 63.4308L121.468 65.5872C121.003 65.981 120.453 66.2618 119.861 66.4078C119.269 66.5538 118.651 66.5609 118.056 66.4287C116.182 65.9981 114.236 65.9956 112.361 66.4214C110.486 66.8472 108.731 67.6904 107.228 68.8881C105.724 70.0859 104.509 71.6074 103.675 73.3393C102.84 75.0713 102.407 76.9692 102.408 78.8917C102.408 79.0976 102.413 79.3025 102.423 79.5066C102.444 80.1117 102.326 80.7135 102.076 81.2651C101.826 81.8166 101.452 82.3028 100.983 82.6857L95.3649 87.3745C95.5378 87.569 95.7081 87.7594 95.8696 87.9402C96.6284 88.776 97.6842 89.2816 98.8111 89.3487C99.938 89.4158 101.046 89.039 101.899 88.299L149.929 46.7048C150.719 46.0196 151.246 45.0794 151.417 44.047C151.587 43.0145 151.391 41.9549 150.863 41.0516Z" fill="#7BABDB"/>
<path d="M138.27 69.3753C143.525 69.3753 147.786 65.1148 147.786 59.8593C147.786 54.6037 143.525 50.3433 138.27 50.3433C133.014 50.3433 128.754 54.6037 128.754 59.8593C128.754 65.1148 133.014 69.3753 138.27 69.3753Z" fill="#6F6F7F"/>
<path d="M115.195 88.4067C120.451 88.4067 124.711 84.1463 124.711 78.8908C124.711 73.6352 120.451 69.3748 115.195 69.3748C109.94 69.3748 105.679 73.6352 105.679 78.8908C105.679 84.1463 109.94 88.4067 115.195 88.4067Z" fill="#6F6F7F"/>
<path d="M115.195 82.4421C117.157 82.4421 118.747 80.8521 118.747 78.8908C118.747 76.9294 117.157 75.3395 115.195 75.3395C113.234 75.3395 111.644 76.9294 111.644 78.8908C111.644 80.8521 113.234 82.4421 115.195 82.4421Z" fill="#E2E2E2"/>
<path d="M138.27 63.4106C140.231 63.4106 141.821 61.8206 141.821 59.8593C141.821 57.8979 140.231 56.308 138.27 56.308C136.309 56.308 134.719 57.8979 134.719 59.8593C134.719 61.8206 136.309 63.4106 138.27 63.4106Z" fill="#E2E2E2"/>
<path d="M143.874 32.1436L141.247 34.506C140.908 34.8047 140.633 35.1674 140.435 35.5733C140.238 35.9791 140.123 36.42 140.097 36.8706C140.071 37.3211 140.135 37.7723 140.284 38.1981C140.433 38.6239 140.666 39.016 140.967 39.3515C141.269 39.6871 141.634 39.9595 142.042 40.1531C142.45 40.3468 142.892 40.4577 143.342 40.4796C143.793 40.5014 144.244 40.4338 144.668 40.2805C145.093 40.1272 145.482 39.8914 145.815 39.5866L148.124 37.5109L143.874 32.1436Z" fill="#E05F5F"/>
<path d="M86.4568 75.2822C87.5719 77.2004 88.7869 79.0589 90.0966 80.85L96.0503 76.0273C96.5776 75.6 96.9135 74.9809 96.9843 74.306C97.0551 73.6311 96.855 72.9557 96.4279 72.4283L95.4837 71.2629C95.0565 70.7355 94.4373 70.3995 93.7624 70.3287C93.0874 70.2579 92.412 70.4581 91.8847 70.8852L86.4568 75.2822Z" fill="#FFD392"/>
<path d="M107.062 42.7162L106.662 48.8589C106.627 49.3972 106.749 49.9342 107.014 50.4045C107.278 50.8748 107.673 51.2582 108.151 51.508C108.63 51.7578 109.17 51.8633 109.707 51.8117C110.244 51.7601 110.754 51.5536 111.176 51.2172L114.693 48.4148C115.451 47.8106 115.946 46.9364 116.073 45.9755C116.201 45.0146 115.951 44.0417 115.377 43.2608L111.164 37.531L108.637 39.6278C108.178 40.0085 107.802 40.4787 107.531 41.0097C107.261 41.5407 107.101 42.1213 107.062 42.7162Z" fill="#6F6F7F"/>
<path d="M120.701 28.8657L126.911 23.8159L130.156 27.7012C131.01 28.7231 131.43 30.0379 131.328 31.3654C131.226 32.6929 130.61 33.9281 129.611 34.8079L123.188 40.4648L119.875 36.2381C119.019 35.1462 118.626 33.7619 118.781 32.3832C118.935 31.0044 119.625 29.7413 120.701 28.8657Z" fill="#6F6F7F"/>
<path d="M48.7947 31.4819L59.9689 39.1636C61.1036 39.9438 62.0438 40.9743 62.717 42.1755C63.3902 43.3768 63.7783 44.7167 63.8515 46.0918L64.5815 59.8565L67.0238 59.6156C67.9484 59.5245 68.8718 59.8 69.5952 60.3829C70.3186 60.9659 70.7842 61.8096 70.8917 62.7324L71.0922 64.4576L74.3567 65.0082C74.9531 65.1091 75.5164 65.3523 75.9988 65.7172C76.4812 66.0822 76.8686 66.558 77.1279 67.1045C77.3873 67.6509 77.5111 68.2519 77.4889 68.8563C77.4666 69.4608 77.2989 70.051 77 70.5769L67.5432 87.2258C66.7882 88.5538 65.5382 89.529 64.0665 89.9383C62.5947 90.3476 61.0208 90.1577 59.6886 89.4102L54.3341 86.4031C54.4164 86.089 54.4786 85.7699 54.5204 85.4478C55.656 77.3758 47.2742 71.4569 39.8839 74.8949C39.4829 75.0815 39.0761 75.2933 38.6635 75.5304C37.6633 76.1096 36.5176 76.3888 35.363 76.3347C34.2085 76.2806 33.0939 75.8955 32.1523 75.2253L5.18952 55.9684C3.89587 55.0446 2.99592 53.669 2.66756 52.1136C2.3392 50.5582 2.60634 48.9362 3.41617 47.5683L12.2572 32.6317L37.0934 47.1012L48.7947 31.4819Z" fill="#FF8585"/>
<path d="M8.90466 38.2955L11.7953 40.1307C12.6222 40.655 13.6196 40.8397 14.5794 40.6462C15.5392 40.4527 16.3872 39.8961 16.9465 39.0924L18.7914 36.4404L12.2573 32.6322L8.90466 38.2955Z" fill="#E05F5F"/>
<path d="M71.2711 71.227C70.587 70.837 69.7775 70.7303 69.0157 70.9295C68.2539 71.1288 67.6003 71.6183 67.1948 72.2933C66.7893 72.9683 66.664 73.7752 66.8458 74.5413C67.0276 75.3075 67.5021 75.9721 68.1676 76.3929L72.2296 78.9747L75.3248 73.5252L71.2711 71.227Z" fill="#FFD392"/>
<path d="M52.3313 20.8854C57.5868 20.8854 61.8473 16.6249 61.8473 11.3694C61.8473 6.11385 57.5868 1.85339 52.3313 1.85339C47.0758 1.85339 42.8153 6.11385 42.8153 11.3694C42.8153 16.6249 47.0758 20.8854 52.3313 20.8854Z" fill="#6F6F7F"/>
<path d="M52.3313 14.9207C54.2926 14.9207 55.8826 13.3307 55.8826 11.3694C55.8826 9.40809 54.2926 7.81812 52.3313 7.81812C50.37 7.81812 48.78 9.40809 48.78 11.3694C48.78 13.3307 50.37 14.9207 52.3313 14.9207Z" fill="#E2E2E2"/>
<path d="M46.7599 45.8372L50.0277 41.2439L53.9887 43.7904C55.0643 44.4818 55.949 45.4323 56.5616 46.5546C57.1743 47.677 57.4952 48.9352 57.495 50.2139V53.8542C57.4949 54.3739 57.3526 54.8837 57.0835 55.3283C56.8144 55.7729 56.4287 56.1354 55.9683 56.3765C55.5079 56.6175 54.9903 56.728 54.4715 56.6958C53.9528 56.6637 53.4528 56.4902 53.0256 56.1942L47.9565 52.6833C47.4252 52.315 46.9723 51.8448 46.6241 51.3001C46.2759 50.7555 46.0392 50.1471 45.9279 49.5102C45.8166 48.8734 45.8328 48.2208 45.9757 47.5903C46.1185 46.9598 46.3851 46.3639 46.7599 45.8372Z" fill="#6F6F7F"/>
<path d="M17.3602 64.6618L21.6429 67.7203L37.0933 47.0994L33.2589 44.8658L17.3602 64.6618Z" fill="#E05F5F"/>
<path d="M18.7914 52.6011C16.7155 52.602 14.671 53.1085 12.8348 54.0768C10.9986 55.0452 9.4259 56.4462 8.25269 58.1588L29.053 73.0118C30.468 71.1105 31.3264 68.8532 31.5323 66.492C31.7382 64.1309 31.2836 61.759 30.2191 59.6415C29.1546 57.5239 27.5222 55.744 25.5044 54.5007C23.4866 53.2574 21.1629 52.5997 18.7928 52.6011H18.7914Z" fill="#E05F5F"/>
<path d="M18.7914 74.9049C24.0469 74.9049 28.3074 70.6445 28.3074 65.3889C28.3074 60.1334 24.0469 55.8729 18.7914 55.8729C13.5358 55.8729 9.27539 60.1334 9.27539 65.3889C9.27539 70.6445 13.5358 74.9049 18.7914 74.9049Z" fill="#6F6F7F"/>
<path d="M18.7914 68.9402C20.7527 68.9402 22.3427 67.3503 22.3427 65.3889C22.3427 63.4276 20.7527 61.8376 18.7914 61.8376C16.8301 61.8376 15.2401 63.4276 15.2401 65.3889C15.2401 67.3503 16.8301 68.9402 18.7914 68.9402Z" fill="#E2E2E2"/>
<path d="M133.421 15.9898C132.858 15.2796 132.159 14.6898 131.364 14.2555C130.569 13.8212 129.695 13.5512 128.793 13.4616C127.892 13.372 126.982 13.4646 126.117 13.734C125.252 14.0033 124.45 14.4439 123.759 15.0294L102.465 33.0695C100.343 34.8585 99.0128 37.4117 98.7615 40.1753L97.2933 55.9212H92.9211C92.4986 55.9211 92.0891 56.0669 91.7616 56.3338C91.4341 56.6007 91.2087 56.9724 91.1235 57.3862L90.1806 61.9648H89.8594C88.5515 61.9601 87.2769 62.3767 86.2242 63.1528C85.1715 63.9289 84.3967 65.0233 84.0144 66.2741L83.2473 68.7517C82.6944 70.4964 82.8499 72.3885 83.6804 74.0195C86.7811 80.0732 91.2817 85.5992 94.5114 89.1689C95.5967 90.353 97.0999 91.0688 98.7033 91.1647C100.307 91.2607 101.885 90.7294 103.103 89.6832L106.781 86.4981C108.774 88.6883 111.544 90.0127 114.499 90.1886C117.455 90.3646 120.362 89.3781 122.601 87.4397C124.839 85.5014 126.231 82.7648 126.479 79.8144C126.727 76.8639 125.812 73.9333 123.929 71.6483L129.389 66.9183C131.159 69.1355 133.698 70.6066 136.502 71.0398C139.306 71.4731 142.17 70.8368 144.527 69.2571C146.884 67.6775 148.561 65.2698 149.226 62.5116C149.891 59.7534 149.495 56.846 148.117 54.366C146.739 51.8859 144.479 50.0144 141.785 49.1224C139.092 48.2304 136.162 48.3831 133.576 49.5503C130.99 50.7174 128.937 52.8138 127.824 55.4236C126.711 58.0335 126.619 60.9663 127.567 63.6404L121.129 69.2165C119.074 67.9545 116.671 67.3799 114.267 67.5761C111.864 67.7723 109.585 68.7291 107.763 70.3077C105.94 71.8863 104.667 74.0046 104.13 76.3553C103.592 78.706 103.817 81.1669 104.773 83.3808L100.699 86.9087C100.208 87.3315 99.5717 87.5467 98.9247 87.509C98.2778 87.4712 97.6709 87.1834 97.2322 86.7064C95.8558 85.1868 94.2434 83.2978 92.6183 81.1675L97.2065 77.451C98.1122 76.7174 98.6893 75.6541 98.811 74.495C98.9326 73.3358 98.5889 72.1759 97.8553 71.2702L96.911 70.1052C96.5479 69.6568 96.0999 69.2842 95.5928 69.0089C95.0856 68.7336 94.5292 68.5609 93.9553 68.5007C93.3813 68.4404 92.8012 68.4938 92.2479 68.6578C91.6946 68.8218 91.1791 69.0932 90.7307 69.4565L87.0142 72.4682C86.9927 72.4273 86.9683 72.3865 86.9491 72.3452C86.5623 71.5654 86.4927 70.666 86.755 69.8359L87.5226 67.3583C87.6756 66.8576 87.9858 66.4195 88.4073 66.109C88.8288 65.7985 89.3391 65.6321 89.8626 65.6345H91.6818C92.1043 65.6345 92.5139 65.4888 92.8414 65.2219C93.1689 64.955 93.3943 64.5832 93.4795 64.1694L94.4219 59.5908H98.9689C99.4262 59.5909 99.867 59.4202 100.205 59.1122C100.543 58.8042 100.754 58.3811 100.796 57.9258L102.42 40.5148C102.584 38.7082 103.454 37.0392 104.84 35.8697L126.132 17.8283C126.447 17.5609 126.813 17.3597 127.208 17.2368C127.603 17.1138 128.019 17.0715 128.43 17.1124C128.842 17.1534 129.241 17.2767 129.604 17.475C129.967 17.6733 130.287 17.9426 130.543 18.2669L141.364 31.9316L140.019 33.141C139.246 33.8356 138.697 34.7438 138.44 35.7508C138.184 36.7578 138.231 37.8183 138.578 38.7981C138.924 39.7779 139.553 40.6329 140.386 41.255C141.218 41.8771 142.216 42.2382 143.254 42.2927C143.349 42.2979 143.444 42.3005 143.539 42.3005C144.834 42.3024 146.083 41.8222 147.044 40.9534L147.9 40.184L149.073 41.666C149.498 42.201 149.7 42.8798 149.636 43.5603C149.572 44.2407 149.247 44.87 148.73 45.3164L148.047 45.9078C147.679 46.2265 147.453 46.6783 147.418 47.1638C147.384 47.6493 147.543 48.1288 147.862 48.4967C148.18 48.8646 148.632 49.0909 149.118 49.1257C149.603 49.1605 150.083 49.001 150.451 48.6823L151.133 48.0913C152.367 47.0268 153.141 45.5262 153.293 43.9037C153.446 42.2812 152.965 40.6627 151.951 39.387L133.421 15.9898ZM138.27 52.179C139.789 52.1788 141.274 52.6291 142.537 53.4729C143.8 54.3167 144.785 55.5161 145.366 56.9195C145.948 58.3229 146.1 59.8671 145.804 61.357C145.507 62.8469 144.776 64.2155 143.702 65.2897C142.628 66.3639 141.259 67.0954 139.769 67.3919C138.28 67.6883 136.735 67.5362 135.332 66.955C133.928 66.3737 132.729 65.3893 131.885 64.1263C131.041 62.8632 130.591 61.3783 130.591 59.8592C130.593 57.8232 131.403 55.8713 132.842 54.4315C134.282 52.9917 136.234 52.1817 138.27 52.179ZM115.195 71.2101C116.714 71.21 118.199 71.6604 119.462 72.5043C120.726 73.3482 121.71 74.5477 122.292 75.9512C122.873 77.3546 123.025 78.899 122.729 80.3889C122.432 81.8789 121.701 83.2475 120.627 84.3217C119.553 85.3959 118.184 86.1275 116.694 86.4239C115.204 86.7203 113.66 86.5682 112.256 85.9869C110.853 85.4056 109.653 84.4211 108.809 83.158C107.965 81.8949 107.515 80.4099 107.515 78.8908C107.517 76.8545 108.327 74.9023 109.767 73.4624C111.207 72.0225 113.159 71.2125 115.195 71.2101ZM93.0404 72.3113C93.1142 72.2514 93.1991 72.2068 93.2902 72.1798C93.3813 72.1528 93.4768 72.144 93.5713 72.154C93.6658 72.164 93.7574 72.1925 93.8408 72.2379C93.9243 72.2833 93.9979 72.3447 94.0576 72.4186L95.0014 73.5836C95.1221 73.7327 95.1787 73.9236 95.1588 74.1144C95.1388 74.3052 95.0439 74.4803 94.895 74.6012L90.465 78.1897C89.8912 77.3522 89.3521 76.5248 88.8477 75.7075L93.0404 72.3113ZM144.588 38.2239C144.434 38.3634 144.253 38.4711 144.057 38.5408C143.861 38.6105 143.654 38.6409 143.446 38.6301C143.238 38.6194 143.034 38.5677 142.847 38.4782C142.659 38.3886 142.491 38.2629 142.352 38.1083C142.213 37.9536 142.105 37.773 142.036 37.5768C141.967 37.3806 141.937 37.1727 141.949 36.965C141.96 36.7573 142.012 36.5539 142.102 36.3664C142.192 36.1789 142.319 36.0111 142.474 35.8724L143.648 34.8171L145.615 37.3012L144.588 38.2239Z" fill="#494456"/>
<path d="M115.195 84.2773C116.261 84.2774 117.302 83.9616 118.188 83.3698C119.074 82.7779 119.764 81.9367 120.172 80.9524C120.58 79.9682 120.687 78.8851 120.479 77.8401C120.271 76.7952 119.758 75.8354 119.005 75.082C118.251 74.3286 117.292 73.8156 116.247 73.6077C115.202 73.3998 114.119 73.5065 113.134 73.9141C112.15 74.3218 111.309 75.0122 110.717 75.8981C110.125 76.7839 109.809 77.8254 109.809 78.8907C109.811 80.3188 110.379 81.6879 111.388 82.6977C112.398 83.7076 113.767 84.2756 115.195 84.2773ZM115.195 77.1747C115.535 77.1747 115.866 77.2752 116.149 77.4637C116.431 77.6522 116.651 77.9202 116.781 78.2337C116.911 78.5473 116.945 78.8923 116.879 79.2252C116.813 79.5581 116.649 79.8639 116.409 80.104C116.169 80.344 115.863 80.5075 115.531 80.5737C115.198 80.64 114.853 80.606 114.539 80.4762C114.226 80.3463 113.957 80.1264 113.769 79.8441C113.58 79.5619 113.48 79.2302 113.48 78.8907C113.48 78.4359 113.661 77.9998 113.983 77.6782C114.304 77.3565 114.74 77.1755 115.195 77.1747Z" fill="#494456"/>
<path d="M138.27 65.2458C139.335 65.2458 140.377 64.9299 141.263 64.338C142.148 63.7461 142.839 62.9049 143.246 61.9206C143.654 60.9363 143.761 59.8533 143.553 58.8084C143.345 57.7635 142.832 56.8037 142.079 56.0504C141.325 55.297 140.366 54.784 139.321 54.5762C138.276 54.3683 137.193 54.475 136.209 54.8827C135.224 55.2904 134.383 55.9808 133.791 56.8666C133.199 57.7524 132.883 58.7939 132.883 59.8592C132.885 61.2874 133.453 62.6566 134.463 63.6664C135.473 64.6762 136.842 65.2443 138.27 65.2458ZM138.27 58.1433C138.609 58.1433 138.941 58.2439 139.223 58.4324C139.505 58.621 139.725 58.889 139.855 59.2026C139.985 59.5161 140.019 59.8612 139.953 60.194C139.887 60.5269 139.723 60.8327 139.483 61.0726C139.243 61.3126 138.938 61.4761 138.605 61.5423C138.272 61.6085 137.927 61.5745 137.613 61.4446C137.3 61.3147 137.032 61.0948 136.843 60.8126C136.655 60.5304 136.554 60.1986 136.554 59.8592C136.554 59.4043 136.735 58.9682 137.057 58.6465C137.379 58.3248 137.815 58.1439 138.27 58.1433Z" fill="#494456"/>
<path d="M116.856 42.1739L112.642 36.4441C112.494 36.2427 112.307 36.0737 112.091 35.9474C111.875 35.8211 111.636 35.7403 111.387 35.7098C111.139 35.6794 110.888 35.6999 110.648 35.7703C110.408 35.8406 110.185 35.9592 109.992 36.1188L107.465 38.2152C106.816 38.7563 106.283 39.4237 105.898 40.177C105.514 40.9303 105.287 41.7537 105.231 42.5974L104.831 48.7397C104.765 49.634 104.965 50.5278 105.404 51.3095C105.844 52.0911 106.504 52.726 107.302 53.1348C107.965 53.4846 108.703 53.6683 109.453 53.6702C110.497 53.6672 111.508 53.3082 112.32 52.6525L115.837 49.85C116.969 48.9525 117.709 47.6502 117.899 46.2179C118.089 44.7857 117.715 43.3356 116.856 42.1739ZM113.549 46.9796L110.033 49.7821C109.889 49.8968 109.715 49.9671 109.532 49.9847C109.348 50.0022 109.164 49.9662 109.001 49.881C108.838 49.7958 108.703 49.6651 108.613 49.5048C108.523 49.3444 108.482 49.1614 108.494 48.9778L108.894 42.836C108.917 42.49 109.01 42.1524 109.168 41.8437C109.326 41.5349 109.545 41.2614 109.811 41.0397L110.841 40.1863L113.9 44.3478C114.195 44.7464 114.322 45.2437 114.257 45.7347C114.192 46.2257 113.938 46.6721 113.549 46.9796Z" fill="#494456"/>
<path d="M131.565 26.5248L128.32 22.6395C128.01 22.2691 127.568 22.0355 127.087 21.9892C126.607 21.9429 126.128 22.0877 125.753 22.3922L119.543 27.4393C118.101 28.6231 117.178 30.3229 116.97 32.177C116.762 34.0312 117.285 35.8933 118.429 37.3673L121.741 41.594C121.895 41.7907 122.088 41.9539 122.307 42.0736C122.527 42.1933 122.768 42.2669 123.017 42.29C123.073 42.2951 123.13 42.2978 123.186 42.2978C123.632 42.2976 124.064 42.1345 124.399 41.839L130.822 36.1822C132.189 34.992 133.032 33.3123 133.171 31.5055C133.31 29.6988 132.733 27.9099 131.565 26.5248ZM128.399 33.4306L123.432 37.8032L121.319 35.1062C120.764 34.3909 120.51 33.4873 120.61 32.5876C120.711 31.6879 121.159 30.8631 121.859 30.2886L126.664 26.3817L128.748 28.8772C129.299 29.5299 129.571 30.3729 129.505 31.2244C129.44 32.0758 129.042 32.8674 128.398 33.4283L128.399 33.4306Z" fill="#494456"/>
<path d="M4.1228 57.4619L8.5064 60.5929C7.29088 63.1837 7.09507 66.1371 7.9579 68.8657C8.82074 71.5943 10.679 73.8982 13.1631 75.3191C15.6472 76.74 18.5751 77.1739 21.3645 76.5344C24.1539 75.8949 26.6005 74.2289 28.2175 71.8677C29.8345 69.5066 30.5036 66.6233 30.0916 63.7913C29.6796 60.9594 28.2168 58.3862 25.994 56.5837C23.7713 54.7811 20.9515 53.8812 18.0955 54.063C15.2395 54.2447 12.5566 55.4948 10.5803 57.5646L6.25587 54.4763C5.33127 53.8232 4.68761 52.8449 4.45388 51.7373C4.22014 50.6297 4.4136 49.4748 4.99548 48.5038L9.5204 40.8598L10.8124 41.6792C12.0382 42.4605 13.5191 42.7365 14.944 42.4491C16.3689 42.1617 17.627 41.3334 18.4541 40.1381L19.3319 38.8763L34.3905 47.6481L29.5118 54.1574C29.3672 54.3502 29.262 54.5696 29.2022 54.8031C29.1423 55.0366 29.1291 55.2795 29.1632 55.5181C29.1973 55.7567 29.278 55.9863 29.4008 56.1937C29.5236 56.401 29.686 56.5822 29.8789 56.7268C30.0717 56.8714 30.2911 56.9766 30.5245 57.0365C30.758 57.0963 31.001 57.1095 31.2396 57.0754C31.7214 57.0066 32.1562 56.7492 32.4483 56.3598L38.5621 48.2023L49.2068 33.9944L58.9293 40.6776C59.8299 41.3011 60.5764 42.122 61.1119 43.0776C61.6473 44.0333 61.9576 45.0985 62.019 46.1922L62.749 59.9569C62.7621 60.2046 62.8253 60.4471 62.9347 60.6696C63.0442 60.8922 63.1976 61.0903 63.3857 61.2519C63.5738 61.4135 63.7928 61.5353 64.0293 61.61C64.2658 61.6847 64.515 61.7106 64.7618 61.6862L67.2041 61.4449C67.6494 61.4035 68.0932 61.5374 68.4413 61.8181C68.7894 62.0988 69.0144 62.5041 69.0684 62.948L69.2693 64.6727C69.3151 65.0674 69.4877 65.4366 69.7613 65.7247C70.0348 66.0129 70.3944 66.2045 70.7862 66.2708L74.0507 66.8214C74.3556 66.8734 74.6435 66.998 74.8901 67.1848C75.1367 67.3715 75.3347 67.6149 75.4674 67.8943C75.6001 68.1737 75.6636 68.4809 75.6525 68.79C75.6415 69.0991 75.5561 69.4011 75.4038 69.6702L74.6348 71.0238L72.1764 69.6303C71.0754 68.9944 69.7686 68.8163 68.5375 69.1345C67.3065 69.4527 66.2496 70.2417 65.5947 71.3316C64.9397 72.4214 64.7389 73.7249 65.0357 74.9613C65.3324 76.1977 66.1029 77.2681 67.1812 77.9419L69.7694 79.5872L65.9451 86.3196C65.4286 87.2244 64.5756 87.8886 63.5719 88.1677C62.5681 88.4469 61.4947 88.3184 60.5852 87.8103L56.3695 85.4423C56.6327 83.3582 56.3315 81.2416 55.4975 79.3135C54.6634 77.3855 53.3271 75.7167 51.628 74.4815C49.847 73.1651 47.7436 72.3542 45.5399 72.1344C43.3362 71.9146 41.114 72.294 39.1081 73.2325C38.6516 73.4445 38.1904 73.6836 37.7445 73.9419C37.0489 74.3439 36.2525 74.5379 35.45 74.5008C34.6474 74.4637 33.8724 74.1971 33.2168 73.7327C32.8207 73.4497 32.3284 73.3358 31.8483 73.4158C31.3682 73.4958 30.9395 73.7633 30.6566 74.1594C30.3736 74.5555 30.2596 75.0477 30.3397 75.5279C30.4197 76.008 30.6872 76.4367 31.0833 76.7196C32.3125 77.5925 33.7663 78.0943 35.2722 78.1655C36.7781 78.2366 38.2728 77.8741 39.5788 77.1211C39.934 76.9164 40.296 76.7279 40.6562 76.5599C42.0608 75.889 43.6225 75.6155 45.1715 75.7692C46.7206 75.9229 48.1981 76.4978 49.4436 77.4317C50.6438 78.3043 51.582 79.489 52.1563 80.8572C52.7306 82.2255 52.919 83.7249 52.7012 85.1927C52.6695 85.4361 52.6236 85.6774 52.5635 85.9153C52.5403 86.0011 52.523 86.0883 52.5117 86.1764C52.4665 86.5382 52.5301 86.9052 52.6944 87.2307C52.8586 87.5562 53.1161 87.8253 53.4339 88.0039L58.7893 91.0106C60.5453 91.993 62.6183 92.2416 64.5567 91.7024C66.4952 91.1633 68.1421 89.8799 69.1385 88.1319L78.5954 71.483C79.0392 70.7008 79.2881 69.823 79.3208 68.9242C79.3535 68.0254 79.1692 67.1319 78.7833 66.3194C78.3975 65.5069 77.8216 64.7994 77.1043 64.2567C76.387 63.714 75.5496 63.3521 74.6628 63.2017L72.7559 62.8806L72.7146 62.5241C72.5464 61.1251 71.8381 59.8472 70.7409 58.9632C69.6437 58.0792 68.2444 57.659 66.8417 57.7922L66.3108 57.8445L65.6841 46C65.5914 44.3451 65.1221 42.7331 64.3119 41.2871C63.5017 39.841 62.3721 38.5991 61.0091 37.6558L49.8349 29.9719C49.4443 29.7035 48.965 29.5966 48.4974 29.6735C48.0298 29.7505 47.61 30.0054 47.3261 30.3848L36.6047 44.6905L19.7164 34.8529L13.1823 31.0446C12.7636 30.8008 12.2655 30.7325 11.7967 30.8544C11.3278 30.9764 10.9262 31.2788 10.6794 31.6957L1.83648 46.6336C0.781742 48.3942 0.431253 50.4883 0.855238 52.4963C1.27922 54.5043 2.44636 56.278 4.1228 57.4619ZM18.7914 57.7087C20.3105 57.7083 21.7955 58.1585 23.0588 59.0022C24.3221 59.8459 25.3067 61.0452 25.8883 62.4486C26.4699 63.8519 26.6223 65.3962 26.3261 66.8862C26.03 68.3761 25.2987 69.7448 24.2246 70.8191C23.1506 71.8933 21.7821 72.625 20.2922 72.9215C18.8024 73.218 17.258 73.066 15.8545 72.4848C14.4511 71.9035 13.2515 70.9191 12.4075 69.6561C11.5635 68.393 11.113 66.908 11.113 65.389C11.1152 63.353 11.9248 61.4011 13.3642 59.9613C14.8037 58.5215 16.7554 57.7114 18.7914 57.7087ZM68.632 74.0974C68.5845 73.8752 68.6022 73.644 68.6829 73.4316C68.7637 73.2192 68.9041 73.0346 69.0872 72.9C69.2703 72.7655 69.4884 72.6867 69.7153 72.6732C69.9421 72.6597 70.1681 72.7119 70.3659 72.8237L72.8215 74.2158L71.5864 76.3911L69.1523 74.8439C69.0202 74.7605 68.9061 74.6514 68.8167 74.5232C68.7274 74.395 68.6646 74.2503 68.632 74.0974ZM16.1486 37.0245L15.4397 38.0435C15.1515 38.4597 14.7134 38.748 14.2172 38.8481C13.7211 38.9482 13.2054 38.8522 12.7785 38.5804L11.391 37.7003L12.9083 35.1369L16.1486 37.0245Z" fill="#494456"/>
<path d="M18.7914 70.7765C19.8567 70.7765 20.8982 70.4606 21.784 69.8687C22.6698 69.2768 23.3602 68.4355 23.7679 67.4512C24.1756 66.467 24.2823 65.3839 24.0745 64.339C23.8666 63.2941 23.3536 62.3343 22.6003 61.581C21.8469 60.8277 20.8871 60.3146 19.8422 60.1068C18.7973 59.899 17.7143 60.0056 16.73 60.4133C15.7457 60.821 14.9045 61.5114 14.3126 62.3973C13.7207 63.2831 13.4048 64.3245 13.4048 65.3899C13.4064 66.818 13.9744 68.1872 14.9842 69.197C15.9941 70.2069 17.3632 70.7749 18.7914 70.7765ZM18.7914 63.6739C19.1308 63.6739 19.4625 63.7745 19.7447 63.9631C20.0269 64.1516 20.2469 64.4196 20.3768 64.7332C20.5066 65.0468 20.5406 65.3918 20.4744 65.7247C20.4082 66.0575 20.2448 66.3633 20.0048 66.6033C19.7648 66.8433 19.459 67.0067 19.1261 67.0729C18.7933 67.1391 18.4482 67.1051 18.1347 66.9753C17.8211 66.8454 17.5531 66.6254 17.3646 66.3432C17.176 66.0611 17.0754 65.7293 17.0754 65.3899C17.0755 64.9347 17.2563 64.4982 17.5781 64.1763C17.8998 63.8544 18.3362 63.6733 18.7914 63.673V63.6739Z" fill="#494456"/>
<path d="M52.3314 0.0180664C50.0863 0.0179757 47.8915 0.683654 46.0248 1.93092C44.158 3.17818 42.703 4.951 41.8438 7.0252C40.9846 9.09939 40.7597 11.3818 41.1977 13.5838C41.6357 15.7858 42.7168 17.8084 44.3043 19.3959C45.8919 20.9835 47.9145 22.0646 50.1165 22.5026C52.3185 22.9405 54.6009 22.7157 56.6751 21.8565C58.7493 20.9973 60.5221 19.5423 61.7694 17.6755C63.0166 15.8087 63.6823 13.614 63.6822 11.3689C63.6787 8.35956 62.4817 5.47447 60.3537 3.34654C58.2258 1.21861 55.3407 0.0215879 52.3314 0.0180664ZM52.3314 19.0501C50.8123 19.0502 49.3273 18.5998 48.0641 17.7559C46.801 16.912 45.8165 15.7125 45.235 14.3091C44.6536 12.9056 44.5014 11.3613 44.7977 9.87138C45.094 8.38145 45.8254 7.01284 46.8995 5.93861C47.9736 4.86438 49.3421 4.13278 50.832 3.83633C52.3219 3.53988 53.8663 3.69189 55.2698 4.27314C56.6733 4.85439 57.8729 5.83877 58.7169 7.10181C59.561 8.36484 60.0115 9.8498 60.0116 11.3689C60.0093 13.4052 59.1994 15.3575 57.7596 16.7974C56.3198 18.2374 54.3677 19.0475 52.3314 19.0501Z" fill="#494456"/>
<path d="M52.3313 5.98279C51.2659 5.98279 50.2244 6.29872 49.3386 6.89063C48.4528 7.48253 47.7624 8.32383 47.3547 9.30812C46.947 10.2924 46.8404 11.3755 47.0482 12.4204C47.2561 13.4653 47.7692 14.4251 48.5226 15.1784C49.2759 15.9317 50.2358 16.4447 51.2807 16.6525C52.3256 16.8603 53.4087 16.7536 54.393 16.3458C55.3772 15.938 56.2185 15.2476 56.8103 14.3617C57.4021 13.4758 57.718 12.4343 57.7179 11.3689C57.7161 9.94091 57.1479 8.57191 56.1381 7.5622C55.1283 6.55249 53.7593 5.98449 52.3313 5.98279ZM52.3313 13.0854C51.9919 13.0854 51.6602 12.9847 51.378 12.7962C51.0958 12.6077 50.8759 12.3397 50.746 12.0262C50.6161 11.7126 50.5821 11.3676 50.6482 11.0348C50.7144 10.7019 50.8778 10.3962 51.1177 10.1561C51.3577 9.91614 51.6634 9.75267 51.9962 9.68641C52.3291 9.62014 52.6741 9.65406 52.9877 9.78387C53.3012 9.91368 53.5693 10.1336 53.7579 10.4157C53.9465 10.6978 54.0472 11.0295 54.0473 11.3689C54.0468 11.8239 53.8659 12.2602 53.5442 12.5819C53.2225 12.9037 52.7863 13.0848 52.3313 13.0854Z" fill="#494456"/>
<path d="M46.9131 54.1918L51.9804 57.7023C52.683 58.1889 53.5054 58.4741 54.3585 58.5267C55.2116 58.5794 56.0628 58.3976 56.8199 58.0011C57.5771 57.6045 58.2113 57.0083 58.6538 56.2771C59.0963 55.5458 59.3302 54.7074 59.3303 53.8527V50.2129C59.3339 48.6264 58.9372 47.0647 58.177 45.6723C57.4167 44.2798 56.3175 43.1016 54.9811 42.2468L51.0201 39.7003C50.6232 39.4451 50.1433 39.3524 49.6799 39.4417C49.2166 39.531 48.8055 39.7953 48.5319 40.1798L45.2646 44.7735C44.7491 45.4983 44.3826 46.3182 44.1864 47.1857C43.9902 48.0532 43.9682 48.9511 44.1216 49.8272C44.275 50.7032 44.6007 51.5402 45.08 52.2894C45.5593 53.0386 46.1821 53.6853 46.9131 54.1918ZM48.2552 46.9011L50.508 43.7352L52.9962 45.3351C53.8147 45.8585 54.4879 46.58 54.9535 47.4327C55.4191 48.2854 55.662 49.2418 55.6597 50.2133V53.8532C55.6596 54.0379 55.609 54.2192 55.5134 54.3772C55.4177 54.5353 55.2806 54.6641 55.1169 54.7499C54.9533 54.8356 54.7693 54.8749 54.5849 54.8636C54.4005 54.8522 54.2227 54.7906 54.0708 54.6855L49.0035 51.1746C48.6718 50.9448 48.389 50.6515 48.1715 50.3115C47.954 49.9716 47.8062 49.5919 47.7366 49.1944C47.667 48.7969 47.6771 48.3895 47.7662 47.9959C47.8553 47.6023 48.0217 47.2303 48.2557 46.9016L48.2552 46.9011Z" fill="#494456"/>
<path d="M128.471 42.1752L126.612 43.8118C126.423 43.9686 126.267 44.1618 126.154 44.3798C126.041 44.5979 125.972 44.8365 125.953 45.0814C125.934 45.3263 125.964 45.5726 126.042 45.8057C126.12 46.0387 126.243 46.2538 126.406 46.4381C126.568 46.6225 126.766 46.7723 126.987 46.8788C127.209 46.9853 127.449 47.0463 127.695 47.0581C127.94 47.0699 128.185 47.0323 128.416 46.9476C128.646 46.8628 128.858 46.7327 129.037 46.5648L130.897 44.9282C131.086 44.7714 131.242 44.5782 131.355 44.3602C131.468 44.1421 131.536 43.9035 131.555 43.6586C131.574 43.4137 131.544 43.1674 131.466 42.9343C131.389 42.7013 131.265 42.4862 131.103 42.3019C130.94 42.1175 130.742 41.9677 130.521 41.8612C130.3 41.7547 130.059 41.6937 129.814 41.6819C129.568 41.6701 129.323 41.7077 129.092 41.7924C128.862 41.8772 128.651 42.0073 128.471 42.1752Z" fill="#494456"/>
<path d="M118.386 55.1687C118.801 55.169 119.204 55.0279 119.529 54.7686L121.414 53.266C121.603 53.1157 121.76 52.9298 121.876 52.7189C121.993 52.508 122.067 52.2761 122.094 52.0366C122.121 51.7971 122.101 51.5546 122.034 51.323C121.967 51.0914 121.856 50.8752 121.705 50.6867C121.555 50.4982 121.369 50.3412 121.158 50.2246C120.947 50.1079 120.715 50.034 120.476 50.0069C120.236 49.9799 119.994 50.0003 119.762 50.067C119.531 50.1337 119.314 50.2453 119.126 50.3956L117.241 51.8982C116.943 52.1356 116.726 52.4597 116.621 52.8257C116.516 53.1917 116.527 53.5814 116.653 53.9408C116.779 54.3002 117.014 54.6115 117.324 54.8315C117.635 55.0515 118.007 55.1694 118.388 55.1687H118.386Z" fill="#494456"/>
<path d="M41.0589 59.5436C41.2624 59.6769 41.4904 59.7684 41.7295 59.8129C41.9687 59.8573 42.2143 59.8538 42.4521 59.8024C42.6899 59.7511 42.9151 59.653 43.1147 59.5139C43.3142 59.3747 43.4841 59.1972 43.6145 58.9918C43.7448 58.7864 43.833 58.5572 43.874 58.3174C43.9149 58.0776 43.9078 57.832 43.853 57.595C43.7981 57.358 43.6968 57.1342 43.5547 56.9367C43.4126 56.7393 43.2327 56.572 43.0254 56.4447L40.9951 55.1558C40.7917 55.0225 40.5637 54.9309 40.3245 54.8865C40.0854 54.842 39.8397 54.8456 39.6019 54.8969C39.3641 54.9483 39.1389 55.0464 38.9394 55.1855C38.7398 55.3247 38.57 55.5021 38.4396 55.7075C38.3093 55.9129 38.2211 56.1422 38.1801 56.382C38.1392 56.6218 38.1463 56.8674 38.2011 57.1044C38.2559 57.3414 38.3573 57.5651 38.4994 57.7626C38.6414 57.9601 38.8213 58.1274 39.0286 58.2547L41.0589 59.5436Z" fill="#494456"/>
<path d="M27.6608 21.3914C27.2052 21.5628 26.8364 21.9081 26.6354 22.3514C26.4343 22.7947 26.4177 23.2997 26.589 23.7553L27.3066 25.664C27.3898 25.8918 27.5173 26.1008 27.6817 26.279C27.8462 26.4571 28.0443 26.601 28.2646 26.7022C28.4849 26.8034 28.7231 26.8599 28.9655 26.8685C29.2078 26.8771 29.4494 26.8376 29.6763 26.7522C29.9033 26.6669 30.1111 26.5375 30.2877 26.3714C30.4644 26.2053 30.6063 26.0058 30.7055 25.7846C30.8046 25.5633 30.8589 25.3246 30.8652 25.0822C30.8715 24.8398 30.8297 24.5986 30.7423 24.3724L30.0247 22.4637C29.9399 22.2381 29.8115 22.0314 29.6468 21.8554C29.4821 21.6794 29.2844 21.5375 29.0649 21.438C28.8453 21.3384 28.6084 21.283 28.3675 21.2751C28.1266 21.2671 27.8864 21.3066 27.6608 21.3914Z" fill="#494456"/>
<path d="M95.3227 19.0726L94.3747 21.1938C94.2684 21.4148 94.2074 21.655 94.1954 21.9C94.1835 22.145 94.2207 22.39 94.3051 22.6204C94.3894 22.8507 94.519 23.0619 94.6864 23.2413C94.8537 23.4207 95.0553 23.5647 95.2792 23.6649C95.5032 23.765 95.7449 23.8193 95.9902 23.8244C96.2354 23.8295 96.4792 23.7854 96.7072 23.6947C96.9351 23.604 97.1426 23.4685 97.3172 23.2963C97.4919 23.124 97.6303 22.9185 97.7241 22.6918L98.6725 20.5707C98.8554 20.1292 98.8588 19.6337 98.6821 19.1897C98.5054 18.7457 98.1625 18.3881 97.7262 18.193C97.29 17.9979 96.7949 17.9806 96.3461 18.1449C95.8973 18.3092 95.5299 18.642 95.3227 19.0726Z" fill="#494456"/>
<path d="M88.1696 56.5699C88.3953 56.6543 88.6355 56.6933 88.8764 56.6848C89.1173 56.6764 89.3541 56.6206 89.5734 56.5206C89.7927 56.4206 89.9901 56.2784 90.1545 56.1021C90.3188 55.9258 90.4468 55.7188 90.5311 55.493L93.1006 48.6144C93.2099 48.3217 93.2428 48.006 93.196 47.6971C93.1492 47.3882 93.0244 47.0964 92.8333 46.8493C92.6422 46.6021 92.3912 46.4078 92.104 46.2848C91.8169 46.1618 91.5031 46.1142 91.1923 46.1463L86.5761 46.6235L83.3102 37.553C83.1832 37.2 82.9511 36.8944 82.6451 36.6773C82.3391 36.4602 81.9739 36.3422 81.5988 36.339H81.5832C81.2107 36.339 80.847 36.4525 80.5405 36.6641C80.234 36.8758 79.9991 37.1758 79.8672 37.5241L76.2241 47.1392H71.0477C70.7286 47.1394 70.415 47.2227 70.138 47.3811C69.8609 47.5394 69.6299 47.7672 69.4678 48.042C69.3057 48.3169 69.218 48.6292 69.2134 48.9483C69.2089 49.2673 69.2876 49.5821 69.4418 49.8614L72.6838 55.7376C72.9267 56.1487 73.3203 56.449 73.781 56.5746C74.2417 56.7003 74.7332 56.6414 75.1512 56.4106C75.5692 56.1797 75.8808 55.795 76.0198 55.3382C76.1588 54.8813 76.1142 54.3883 75.8956 53.9638L74.1553 50.8098H77.4928C77.8653 50.8098 78.2289 50.6964 78.5354 50.4847C78.842 50.273 79.0768 49.973 79.2088 49.6247L81.5405 43.4705L83.6098 49.2186C83.7487 49.6045 84.0128 49.9327 84.36 50.1509C84.7072 50.3691 85.1175 50.4648 85.5254 50.4226L88.6266 50.1014L87.0941 54.2083C86.9237 54.6641 86.9412 55.1689 87.1429 55.6118C87.3446 56.0546 87.7139 56.3993 88.1696 56.5699Z" fill="#494456"/>
<path d="M45.3875 84.4614C46.4011 84.4614 47.2228 83.6397 47.2228 82.6261C47.2228 81.6125 46.4011 80.7908 45.3875 80.7908C44.3739 80.7908 43.5522 81.6125 43.5522 82.6261C43.5522 83.6397 44.3739 84.4614 45.3875 84.4614Z" fill="#494456"/>
</svg>
