<svg width="256" height="121" viewBox="0 0 256 121" fill="none" xmlns="http://www.w3.org/2000/svg">
<path d="M18.7176 115.111C14.3231 112.799 9.64908 108.838 7.02379 105.197C3.27729 100.005 2.57709 97.6787 2.137 88.9637C1.723 80.7464 2.17291 77.6951 4.51802 73.1129C10.8104 60.7796 24.7181 53.2952 38.0574 55.0634L44.8015 55.9664L47.8971 48.4988L50.9927 41.0291L48.1315 34.5611C45.5719 28.7735 44.7352 28.0469 40.1982 27.6584C34.924 27.1964 31.8412 23.2127 34.0323 19.6679C35.4039 17.4482 62.4925 19.1429 65.942 21.6629C69.6849 24.3992 65.87 27.9146 59.1632 27.9146C53.2105 27.9146 52.7209 28.6496 55.771 33.005C57.5769 35.5838 59.777 36.0227 75.0303 36.8543C84.5015 37.3793 94.9581 38.1773 98.2668 38.6183L104.283 39.4373L103.352 26.3144C102.825 18.8867 101.649 12.3662 100.643 11.2931C99.6654 10.2431 96.7465 8.96628 94.1576 8.43918C90.7403 7.74618 89.3277 6.63318 89.0028 4.38198C88.6122 1.67298 89.1918 1.28238 93.6246 1.28238C99.8504 1.28238 106.308 4.46598 108.575 8.65128C110.046 11.3645 112.047 44.2358 112.455 72.3695C112.527 77.924 113.076 79.7216 114.663 79.7216C116.454 79.7216 116.764 75.9626 116.764 54.3074V28.8953L129.681 29.8613C152.613 31.5833 176.104 37.1819 201.276 46.8965C203.255 47.6525 203.783 47.2745 203.566 45.2375C203.04 40.313 203.602 39.0866 206.361 39.0866C208.609 39.0866 209.833 41.4134 213.014 51.7244L216.913 64.3601L224.003 63.4991C231.898 62.5541 239.674 65.0111 245.442 70.3157C249.848 74.3666 253.961 83.4449 254 89.2031C254.035 94.4699 250.838 102.88 247.324 106.765C241.04 113.714 227.329 116.74 218.054 113.227C203.262 107.622 197.67 87.7205 207.075 74.1503C209.248 71.015 210.678 68.1002 210.254 67.676C209.829 67.235 203.906 74.1524 197.09 83.0102C190.274 91.868 183.989 99.4259 183.123 99.8039C182.258 100.182 163.664 99.8039 141.803 98.9639C119.943 98.1239 97.9595 97.5359 92.9521 97.6829C87.9446 97.8929 79.4355 97.9769 74.0429 97.9979H64.2381L60.0361 104.512C51.2373 118.156 33.3658 122.679 18.7185 114.97L18.7176 115.111ZM40.4255 110.396C45.5078 108.989 56.5335 99.6464 56.5335 96.7421C56.5335 96.1541 50.5235 94.8311 43.1779 93.8168C32.4847 92.3468 29.5291 91.4354 28.3508 89.2325C27.1934 87.0716 27.4706 85.8368 29.6486 83.4617C31.1714 81.8027 34.3626 76.5506 36.7395 71.7941L41.0613 63.1442L37.0088 62.2412C34.78 61.7582 30.4111 62.0312 27.3002 62.8712C3.88569 69.1775 2.45434 101.78 25.2356 109.903C31.8907 112.276 33.4001 112.332 40.4255 110.396ZM239.59 103.368C244.632 98.7203 247.393 91.6034 246.222 86.2715C244.051 76.391 237.476 71.3405 226.786 71.3405C221.419 71.3405 220.413 71.7815 220.413 74.0495C220.413 79.3835 223.057 83.6171 227.317 85.1018C231.912 86.6978 233.066 90.482 229.39 91.8911C225.369 93.4451 217.622 88.5059 215.228 82.8821L212.998 77.6426L211.166 81.8447C208.611 87.7058 208.784 92.3048 211.767 97.8656C217.103 107.815 231.645 110.69 239.59 103.368ZM183.094 88.5521C205.264 60.5171 210.578 51.7664 190.999 75.5363L180.494 88.2875L147.228 87.4895C118.244 86.7755 113.961 86.9435 113.961 88.7705C113.961 91.007 119.84 91.4165 161.383 92.0717L180.091 92.3657L183.094 88.5521ZM104.897 68.1884C104.337 56.4389 103.725 46.6634 103.536 46.4639C102.914 45.7919 65.1021 43.0871 63.0725 43.5596C61.5857 43.8956 63.3245 48.7445 69.9128 62.5835C74.7715 72.7916 79.45 81.1433 80.3095 81.1433C81.1699 81.1433 83.3837 82.6553 85.2309 84.5033C89.5683 88.8419 90.873 89.306 99.0829 89.4383L105.916 89.6483L104.897 68.2871L104.897 68.1884ZM56.7581 79.0433C56.2361 75.9647 50.002 67.1363 48.3498 67.1363C47.7792 67.1363 45.5972 70.6349 43.501 74.9084L39.6897 82.6805L48.4618 82.2605C56.3502 81.8825 57.186 81.5675 56.7581 79.0433ZM63.3162 66.0863C59.4435 57.806 56.0646 50.8151 55.8072 50.5505C55.5498 50.2775 54.3078 52.0625 53.0478 54.5006C50.7573 58.9295 50.7587 58.9337 56.2784 64.9229C59.3155 68.2157 62.6329 73.2158 63.6504 76.0277C64.8114 79.2386 66.4055 81.1433 67.9288 81.1433C69.9472 81.1433 69.1672 78.6002 63.3162 66.0863Z" fill="#DAD7E5"/>
<mask id="mask0_114_7299" style="mask-type:alpha" maskUnits="userSpaceOnUse" x="2" y="1" width="252" height="118">
<path d="M18.7176 115.128C14.3231 112.816 9.64908 108.855 7.02379 105.214C3.27729 100.023 2.57709 97.696 2.137 88.981C1.723 80.7637 2.17291 77.7124 4.51802 73.1302C10.8104 60.7969 24.7181 53.3125 38.0574 55.0807L44.8015 55.9837L47.8971 48.5161L50.9927 41.0464L48.1315 34.5784C45.5719 28.7908 44.7352 28.0642 40.1982 27.6757C34.924 27.2137 31.8412 23.23 34.0323 19.6852C35.4039 17.4655 62.4925 19.1602 65.942 21.6802C69.6849 24.4165 65.87 27.9319 59.1632 27.9319C53.2105 27.9319 52.7209 28.6669 55.771 33.0223C57.5769 35.6011 59.777 36.04 75.0303 36.8716C84.5015 37.3966 94.9581 38.1946 98.2668 38.6356L104.283 39.4546L103.352 26.3317C102.825 18.904 101.649 12.3835 100.643 11.3104C99.6654 10.2604 96.7465 8.98359 94.1576 8.45649C90.7403 7.76349 89.3277 6.65049 89.0028 4.39929C88.6122 1.69029 89.1918 1.29968 93.6246 1.29968C99.8504 1.29968 106.308 4.48329 108.575 8.66859C110.046 11.3818 112.047 44.2531 112.455 72.3868C112.527 77.9413 113.076 79.7389 114.663 79.7389C116.454 79.7389 116.764 75.9799 116.764 54.3247V28.9126L129.681 29.8786C152.613 31.6006 176.104 37.1992 201.276 46.9138C203.255 47.6698 203.783 47.2918 203.566 45.2548C203.04 40.3303 203.602 39.1039 206.361 39.1039C208.609 39.1039 209.833 41.4307 213.014 51.7417L216.913 64.3774L224.003 63.5164C231.898 62.5714 239.674 65.0284 245.442 70.333C249.848 74.3839 253.961 83.4622 254 89.2204C254.035 94.4872 250.838 102.898 247.324 106.783C241.04 113.732 227.329 116.758 218.054 113.244C203.262 107.639 197.67 87.7378 207.075 74.1676C209.248 71.0323 210.678 68.1175 210.254 67.6933C209.829 67.2523 203.906 74.1697 197.09 83.0275C190.274 91.8853 183.989 99.4432 183.123 99.8212C182.258 100.199 163.664 99.8212 141.803 98.9812C119.943 98.1412 97.9595 97.5532 92.9521 97.7002C87.9446 97.9102 79.4355 97.9942 74.0429 98.0152H64.2381L60.0361 104.529C51.2373 118.173 33.3658 122.696 18.7185 114.987L18.7176 115.128ZM40.4255 110.414C45.5078 109.007 56.5335 99.6637 56.5335 96.7594C56.5335 96.1714 50.5235 94.8484 43.1779 93.8341C32.4847 92.3641 29.5291 91.4527 28.3508 89.2498C27.1934 87.0889 27.4706 85.8541 29.6486 83.479C31.1714 81.82 34.3626 76.5679 36.7395 71.8114L41.0613 63.1615L37.0088 62.2585C34.78 61.7755 30.4111 62.0485 27.3002 62.8885C3.88569 69.1948 2.45434 101.797 25.2356 109.92C31.8907 112.293 33.4001 112.35 40.4255 110.414ZM239.59 103.385C244.632 98.7376 247.393 91.6207 246.222 86.2888C244.051 76.4083 237.476 71.3578 226.786 71.3578C221.419 71.3578 220.413 71.7988 220.413 74.0668C220.413 79.4008 223.057 83.6344 227.317 85.1191C231.912 86.7151 233.066 90.4993 229.39 91.9084C225.369 93.4624 217.622 88.5232 215.228 82.8994L212.998 77.6599L211.166 81.862C208.611 87.7231 208.784 92.3221 211.767 97.8829C217.103 107.833 231.645 110.708 239.59 103.385ZM183.094 88.5694C205.264 60.5344 210.578 51.7837 190.999 75.5536L180.494 88.3048L147.228 87.5068C118.244 86.7928 113.961 86.9608 113.961 88.7878C113.961 91.0243 119.84 91.4338 161.383 92.089L180.091 92.383L183.094 88.5694ZM104.897 68.2057C104.337 56.4562 103.725 46.6807 103.536 46.4812C102.914 45.8092 65.1021 43.1044 63.0725 43.5769C61.5857 43.9129 63.3245 48.7618 69.9128 62.6008C74.7715 72.8089 79.45 81.1606 80.3095 81.1606C81.1699 81.1606 83.3837 82.6726 85.2309 84.5206C89.5683 88.8592 90.873 89.3233 99.0829 89.4556L105.916 89.6656L104.897 68.3044L104.897 68.2057ZM56.7581 79.0606C56.2361 75.982 50.002 67.1536 48.3498 67.1536C47.7792 67.1536 45.5972 70.6522 43.501 74.9257L39.6897 82.6978L48.4618 82.2778C56.3502 81.8998 57.186 81.5848 56.7581 79.0606ZM63.3162 66.1036C59.4435 57.8233 56.0646 50.8324 55.8072 50.5678C55.5498 50.2948 54.3078 52.0798 53.0478 54.5179C50.7573 58.9468 50.7587 58.951 56.2784 64.9402C59.3155 68.233 62.6329 73.2331 63.6504 76.045C64.8114 79.2559 66.4055 81.1606 67.9288 81.1606C69.9472 81.1606 69.1672 78.6175 63.3162 66.1036Z" fill="#DAD7E5"/>
</mask>
<g mask="url(#mask0_114_7299)">
<path d="M18.7176 115.128C14.3231 112.816 9.64908 108.855 7.02379 105.214C3.27729 100.023 2.57709 97.696 2.137 88.981C1.723 80.7637 2.17291 77.7124 4.51802 73.1302C10.8104 60.7969 24.7181 53.3125 38.0574 55.0807L44.8015 55.9837L47.8971 48.5161L50.9927 41.0464L48.1315 34.5784C45.5719 28.7908 44.7352 28.0642 40.1982 27.6757C34.924 27.2137 31.8412 23.23 34.0323 19.6852C35.4039 17.4655 62.4925 19.1602 65.942 21.6802C69.6849 24.4165 65.87 27.9319 59.1632 27.9319C53.2105 27.9319 52.7209 28.6669 55.771 33.0223C57.5769 35.6011 59.777 36.04 75.0303 36.8716C84.5015 37.3966 94.9581 38.1946 98.2668 38.6356L104.283 39.4546L103.352 26.3317C102.825 18.904 101.649 12.3835 100.643 11.3104C99.6654 10.2604 96.7465 8.98359 94.1576 8.45649C90.7403 7.76349 89.3277 6.65049 89.0028 4.39929C88.6122 1.69029 89.1918 1.29968 93.6246 1.29968C99.8504 1.29968 106.308 4.48329 108.575 8.66859C110.046 11.3818 112.047 44.2531 112.455 72.3868C112.527 77.9413 113.076 79.7389 114.663 79.7389C116.454 79.7389 116.764 75.9799 116.764 54.3247V28.9126L129.681 29.8786C152.613 31.6006 176.104 37.1992 201.276 46.9138C203.255 47.6698 203.783 47.2918 203.566 45.2548C203.04 40.3303 203.602 39.1039 206.361 39.1039C208.609 39.1039 209.833 41.4307 213.014 51.7417L216.913 64.3774L224.003 63.5164C231.898 62.5714 239.674 65.0284 245.442 70.333C249.848 74.3839 253.961 83.4622 254 89.2204C254.035 94.4872 250.838 102.898 247.324 106.783C241.04 113.732 227.329 116.758 218.054 113.244C203.262 107.639 197.67 87.7378 207.075 74.1676C209.248 71.0323 210.678 68.1175 210.254 67.6933C209.829 67.2523 203.906 74.1697 197.09 83.0275C190.274 91.8853 183.989 99.4432 183.123 99.8212C182.258 100.199 163.664 99.8212 141.803 98.9812C119.943 98.1412 97.9595 97.5532 92.9521 97.7002C87.9446 97.9102 79.4355 97.9942 74.0429 98.0152H64.2381L60.0361 104.529C51.2373 118.173 33.3658 122.696 18.7185 114.987L18.7176 115.128ZM40.4255 110.414C45.5078 109.007 56.5335 99.6637 56.5335 96.7594C56.5335 96.1714 50.5235 94.8484 43.1779 93.8341C32.4847 92.3641 29.5291 91.4527 28.3508 89.2498C27.1934 87.0889 27.4706 85.8541 29.6486 83.479C31.1714 81.82 34.3626 76.5679 36.7395 71.8114L41.0613 63.1615L37.0088 62.2585C34.78 61.7755 30.4111 62.0485 27.3002 62.8885C3.88569 69.1948 2.45434 101.797 25.2356 109.92C31.8907 112.293 33.4001 112.35 40.4255 110.414ZM239.59 103.385C244.632 98.7376 247.393 91.6207 246.222 86.2888C244.051 76.4083 237.476 71.3578 226.786 71.3578C221.419 71.3578 220.413 71.7988 220.413 74.0668C220.413 79.4008 223.057 83.6344 227.317 85.1191C231.912 86.7151 233.066 90.4993 229.39 91.9084C225.369 93.4624 217.622 88.5232 215.228 82.8994L212.998 77.6599L211.166 81.862C208.611 87.7231 208.784 92.3221 211.767 97.8829C217.103 107.833 231.645 110.708 239.59 103.385ZM183.094 88.5694C205.264 60.5344 210.578 51.7837 190.999 75.5536L180.494 88.3048L147.228 87.5068C118.244 86.7928 113.961 86.9608 113.961 88.7878C113.961 91.0243 119.84 91.4338 161.383 92.089L180.091 92.383L183.094 88.5694ZM104.897 68.2057C104.337 56.4562 103.725 46.6807 103.536 46.4812C102.914 45.8092 65.1021 43.1044 63.0725 43.5769C61.5857 43.9129 63.3245 48.7618 69.9128 62.6008C74.7715 72.8089 79.45 81.1606 80.3095 81.1606C81.1699 81.1606 83.3837 82.6726 85.2309 84.5206C89.5683 88.8592 90.873 89.3233 99.0829 89.4556L105.916 89.6656L104.897 68.3044L104.897 68.2057ZM56.7581 79.0606C56.2361 75.982 50.002 67.1536 48.3498 67.1536C47.7792 67.1536 45.5972 70.6522 43.501 74.9257L39.6897 82.6978L48.4618 82.2778C56.3502 81.8998 57.186 81.5848 56.7581 79.0606ZM63.3162 66.1036C59.4435 57.8233 56.0646 50.8324 55.8072 50.5678C55.5498 50.2948 54.3078 52.0798 53.0478 54.5179C50.7573 58.9468 50.7587 58.951 56.2784 64.9402C59.3155 68.233 62.6329 73.2331 63.6504 76.045C64.8114 79.2559 66.4055 81.1606 67.9288 81.1606C69.9472 81.1606 69.1672 78.6175 63.3162 66.1036Z" fill="#DAD7E5"/>
<path d="M117 67.7997V24.2997L201 28.7997L202.5 61.7997L180.5 88.7997L115.5 87.2997L117 67.7997Z" fill="#FFDE76"/>
<path d="M170.5 90.2997C212.449 54.766 150.667 39.9664 114.5 41.7997V16.2997L195 11.7997L203 47.7997V61.7997L180 90.2997H170.5Z" fill="#FFBA55"/>
</g>
<path d="M211.202 73.2377L211.014 73.4405L210.852 73.665C208.351 77.128 205.353 83.1159 205.251 89.701C205.198 93.0745 205.91 96.6582 207.897 100.055C209.886 103.455 213.004 106.413 217.367 108.762C221.875 111.189 226.179 112.186 230.209 111.903C234.244 111.619 237.667 110.077 240.442 107.974C245.846 103.88 248.982 97.5518 250.313 93.0843L250.482 92.515L250.498 91.9213C250.604 88.0243 249.48 82.6106 246.772 77.8593C244.015 73.0203 239.318 68.4088 232.159 67.3482C226.167 66.4604 221.635 67.0038 218.116 68.3865C214.569 69.7808 212.471 71.872 211.202 73.2377Z" stroke="#374F68" stroke-width="9"/>
<path d="M54.9988 67.7358L54.4289 66.6316L53.3731 65.9763C47.355 62.2409 42.606 60.0602 38.977 58.8821C35.7555 57.8363 32.8638 57.3963 30.6709 57.8717C26.744 58.44 21.1824 60.4721 16.3186 63.9528C11.3198 67.5302 6.49454 73.0633 5.53476 80.7416C3.73776 95.1176 8.63731 106.15 16.9876 110.325C17.3918 110.527 17.8522 110.769 18.3629 111.038C21.1035 112.482 25.2957 114.69 30.0656 115.531C36.1343 116.6 43.0617 115.537 50.2884 109.832C54.4437 106.551 56.91 104.604 58.393 102.078C59.1441 100.799 59.583 99.4902 59.9796 98.2928C60.0267 98.1507 60.0744 98.0058 60.1233 97.8574C60.5073 96.6925 60.9615 95.3144 61.694 93.4308L62 92.644V91.7998C62 90.4649 62.0303 89.6363 62.0595 88.8336C62.0801 88.2693 62.1002 87.7178 62.1091 87.0122C62.1275 85.5344 62.054 84.0865 61.6157 82.3333C60.833 79.2027 58.8923 75.2795 54.9988 67.7358Z" stroke="#374F68" stroke-width="9"/>
<path d="M110 12.2997H101L98 9.29968C93.5 8.79968 85.5 6.49968 89.5 1.29967C103.5 -0.700332 109.333 7.79967 110 12.2997Z" fill="#374F68" stroke="#374F68"/>
<path d="M54 29.2998H45C32.6 27.2998 31.5 21.7997 33 19.2997C41.8333 17.6331 62.3 15.9997 67.5 22.7997C71 26.2997 61.1667 28.6331 54 29.2998Z" fill="#374F68"/>
</svg>
