<svg width="192" height="126" viewBox="0 0 192 126" fill="none" xmlns="http://www.w3.org/2000/svg">
<path d="M191.833 92.1667V100.5C191.833 102.71 190.955 104.83 189.393 106.393C187.83 107.955 185.71 108.833 183.5 108.833H8.50002C6.28988 108.833 4.17027 107.955 2.60746 106.393C1.04466 104.83 0.166687 102.71 0.166687 100.5V92.1667H191.833Z" fill="#7C7D7D"/>
<path d="M191.833 92.1667V100.5H16.8333C14.6232 100.5 12.5036 99.622 10.9408 98.0592C9.37797 96.4964 8.5 94.3768 8.5 92.1667H191.833Z" fill="#919191"/>
<path d="M158.5 125.5C167.705 125.5 175.167 118.038 175.167 108.833C175.167 99.6286 167.705 92.1667 158.5 92.1667C149.295 92.1667 141.833 99.6286 141.833 108.833C141.833 118.038 149.295 125.5 158.5 125.5Z" fill="#374F68"/>
<path d="M62.6667 108.833C62.6729 111.832 61.8701 114.777 60.3428 117.357C58.8155 119.938 56.6203 122.058 53.9887 123.495C51.357 124.933 48.3863 125.633 45.3898 125.524C42.3932 125.414 39.4818 124.498 36.9623 122.872C34.4429 121.246 32.4088 118.97 31.0745 116.285C29.7401 113.599 29.155 110.604 29.3807 107.614C29.6063 104.624 30.6345 101.75 32.3568 99.2952C34.0791 96.8406 36.4317 94.8961 39.1667 93.6667C41.7022 92.5269 44.4825 92.0395 47.2545 92.2487C50.0264 92.4579 52.7021 93.3572 55.0378 94.8646C57.3734 96.372 59.295 98.4397 60.6274 100.879C61.9598 103.319 62.6609 106.053 62.6667 108.833Z" fill="#374F68"/>
<path d="M61.1667 115.667C58.0881 117.035 54.667 117.439 51.3544 116.824C48.0419 116.209 44.9935 114.605 42.6111 112.222C40.2288 109.84 38.6244 106.792 38.0095 103.479C37.3946 100.166 37.7981 96.7453 39.1667 93.6667C42.2453 92.298 45.6664 91.8946 48.979 92.5095C52.2915 93.1244 55.34 94.7288 57.7223 97.1111C60.1046 99.4934 61.709 102.542 62.3239 105.854C62.9388 109.167 62.5353 112.588 61.1667 115.667Z" fill="#425B72"/>
<path d="M173.667 115.667C170.588 117.035 167.167 117.439 163.854 116.824C160.542 116.209 157.493 114.605 155.111 112.222C152.729 109.84 151.124 106.792 150.509 103.479C149.895 100.166 150.298 96.7453 151.667 93.6667C154.745 92.298 158.166 91.8946 161.479 92.5095C164.792 93.1244 167.84 94.7288 170.222 97.1111C172.605 99.4934 174.209 102.542 174.824 105.854C175.439 109.167 175.035 112.588 173.667 115.667Z" fill="#425B72"/>
<path d="M46 113C45.3166 112.996 44.6446 112.824 44.0433 112.499C43.4421 112.174 42.9299 111.706 42.5521 111.137C42.1743 110.567 41.9424 109.913 41.8768 109.233C41.8113 108.553 41.914 107.867 42.1761 107.236C42.4382 106.604 42.8515 106.047 43.3797 105.614C43.9078 105.18 44.5346 104.883 45.2047 104.748C45.8748 104.614 46.5677 104.646 47.2223 104.843C47.8769 105.039 48.4731 105.394 48.9584 105.875C49.546 106.458 49.9467 107.202 50.1095 108.014C50.2723 108.825 50.1898 109.667 49.8724 110.431C49.5551 111.196 49.0173 111.848 48.3276 112.306C47.6379 112.763 46.8276 113.005 46 113Z" fill="#EDEBF2"/>
<path d="M158.5 113C157.395 113.105 156.293 112.767 155.438 112.06C154.582 111.352 154.043 110.334 153.938 109.229C153.833 108.124 154.171 107.023 154.878 106.167C155.585 105.311 156.603 104.772 157.708 104.667C163.667 103.458 164.417 113 158.5 113Z" fill="#EDEBF2"/>
<path d="M125.167 0.5H0.166687V92.1667H125.167V0.5Z" fill="#DAD7E5"/>
<path d="M125.167 0.5V83.8333H25.1667C20.7464 83.8333 16.5072 82.0774 13.3816 78.9518C10.2559 75.8262 8.5 71.5869 8.5 67.1667V0.5H125.167Z" fill="#EDEBF2"/>
<path d="M191.833 92.1667H125.167V25.5H160.583C168.917 25.5 170.292 30.125 188.5 54.375C192.875 60.25 191.833 63 191.833 92.1667Z" fill="#FFCC66"/>
<path d="M191.833 83.8333H146C142.685 83.8333 139.505 82.5164 137.161 80.1722C134.817 77.828 133.5 74.6485 133.5 71.3333V25.5C160.708 25.5 165.625 23.875 170.583 30.5C195.125 63.25 191.833 53.2917 191.833 83.8333Z" fill="#FFDE76"/>
<path d="M150.167 79.6667H146C144.895 79.6667 143.835 79.2277 143.054 78.4463C142.272 77.6649 141.833 76.6051 141.833 75.5C141.833 74.3949 142.272 73.3351 143.054 72.5537C143.835 71.7723 144.895 71.3333 146 71.3333H150.167C151.272 71.3333 152.332 71.7723 153.113 72.5537C153.894 73.3351 154.333 74.3949 154.333 75.5C154.333 76.6051 153.894 77.6649 153.113 78.4463C152.332 79.2277 151.272 79.6667 150.167 79.6667Z" fill="#FFBA55"/>
<path d="M96 21.3333H29.3334V71.3333H96V21.3333Z" fill="#DF8761"/>
<path d="M96 21.3333V63H50.1667C46.8515 63 43.6721 61.683 41.3279 59.3388C38.9836 56.9946 37.6667 53.8152 37.6667 50.5V21.3333H96Z" fill="#F29B75"/>
<path d="M75.1667 21.3333V42.1667L62.6667 38L50.1667 42.1667V21.3333H75.1667Z" fill="#FFCC66"/>
<path d="M75.1667 21.3333V33.8333L62.6667 29.6667L58.5 31.0417V21.3333H75.1667Z" fill="#FFDE76"/>
<path d="M190.875 58.8333H150.167C147.957 58.8333 145.837 57.9554 144.274 56.3926C142.711 54.8298 141.833 52.7101 141.833 50.5V25.5C171.625 25.5 164 21.7083 185.583 50.5C187.797 52.9656 189.585 55.7817 190.875 58.8333Z" fill="#9FDBF3"/>
<path d="M185.583 50.5H158.5C156.29 50.5 154.17 49.622 152.607 48.0592C151.045 46.4964 150.167 44.3768 150.167 42.1667V25.5C170.167 25.5 164.958 23 185.583 50.5Z" fill="#B2E5FB"/>
</svg>
