<svg width="231" height="126" viewBox="0 0 231 126" fill="none" xmlns="http://www.w3.org/2000/svg">
<path d="M56.2743 92.8962C56.2591 94.537 55.213 95.8579 53.9377 95.8463L16.7228 95.508L16.7781 89.566L53.9929 89.9043C55.2681 89.9157 56.2896 91.2554 56.2743 92.8962Z" fill="#FFD551"/>
<path d="M53.9649 92.8888L16.7499 92.5504L16.7224 95.5076L53.9374 95.8459C55.2126 95.8575 56.2587 94.5368 56.2739 92.8958C56.2789 92.357 56.1705 91.852 55.9795 91.4144C55.5727 92.302 54.8213 92.8965 53.9649 92.8888Z" fill="#FFC34C"/>
<path d="M17.4323 95.8065C15.7731 95.8065 14.4278 94.4763 14.4278 92.8353V44.9488H20.4366V92.8353C20.4369 94.4761 19.0916 95.8065 17.4323 95.8065Z" fill="#FFD551"/>
<path d="M17.4186 92.8351V44.9484H14.4282V92.8351C14.4282 94.4759 15.7732 95.8061 17.4327 95.8061C17.9776 95.8061 18.4872 95.6605 18.9279 95.4096C18.0267 94.8967 17.4186 93.9371 17.4186 92.8351Z" fill="#FFC34C"/>
<path d="M21.373 50.5672H13.4095C8.16615 50.5672 3.91571 46.3638 3.91571 41.1788V23.2152C3.91571 22.4175 4.56961 21.7708 5.37629 21.7708H29.4062C30.2129 21.7708 30.8668 22.4175 30.8668 23.2152V41.1788C30.8668 46.3638 26.6163 50.5672 21.373 50.5672Z" fill="#E58D23"/>
<path d="M11.2187 41.1788V23.2152C11.2187 22.4175 11.8726 21.7708 12.6793 21.7708H5.37641C4.56973 21.7708 3.91583 22.4175 3.91583 23.2152V41.1788C3.91583 46.3638 8.16641 50.5672 13.4096 50.5672H20.7125C15.4692 50.5672 11.2187 46.3638 11.2187 41.1788Z" fill="#BF6C0D"/>
<path d="M15.6682 46.7631C15.4962 46.7631 15.3224 46.7131 15.1702 46.6088C14.7722 46.3364 14.673 45.7965 14.9486 45.403L19.5176 38.8781L16.5199 39.4844C16.014 39.5868 15.4927 39.3888 15.1927 38.98C14.8943 38.5732 14.8655 38.048 15.1179 37.6093L19.3048 30.3297C19.5443 29.9138 20.0791 29.7681 20.5 30.0048C20.9206 30.2414 21.0677 30.7705 20.8285 31.1866L17.1462 37.5887L20.274 36.956C20.8054 36.8486 21.3389 37.0648 21.6337 37.5066C21.923 37.9401 21.9159 38.4978 21.6151 38.9273L16.3896 46.3898C16.2193 46.6328 15.946 46.7631 15.6682 46.7631Z" fill="#FFDF74"/>
<path d="M29.4062 21.7708H5.37641C4.56973 21.7708 3.91583 22.4175 3.91583 23.2152V28.3982H30.8669V23.2152C30.8668 22.4175 30.2129 21.7708 29.4062 21.7708Z" fill="#BF6C0D"/>
<path d="M13.5191 25.9427H7.94299V7.65445C7.94299 6.13179 9.1912 4.89728 10.7311 4.89728C12.2708 4.89728 13.5192 6.13164 13.5192 7.65445L13.5191 25.9427Z" fill="#FFEACF"/>
<path d="M26.8395 25.9427H21.2635V7.65445C21.2635 6.13179 22.5117 4.89728 24.0516 4.89728C25.5913 4.89728 26.8397 6.13164 26.8397 7.65445V25.9427H26.8395Z" fill="#FFEACF"/>
<path d="M12.2647 5.35298C11.8246 5.06569 11.2979 4.89728 10.7311 4.89728C9.19135 4.89728 7.94299 6.13164 7.94299 7.6543V25.9426H11.0102V7.65445C11.0102 6.69235 11.5093 5.84623 12.2647 5.35298Z" fill="#FFD59A"/>
<path d="M25.5851 5.35298C25.145 5.06569 24.6183 4.89728 24.0515 4.89728C22.5117 4.89728 21.2634 6.13164 21.2634 7.6543V25.9426H24.3306V7.65445C24.3307 6.69235 24.8298 5.84623 25.5851 5.35298Z" fill="#FFD59A"/>
<path d="M33.6141 25.9427H1.16846C0.52318 25.9427 0 25.4253 0 24.7872V20.0523C0 19.4141 0.52318 18.8968 1.16846 18.8968H33.6141C34.2594 18.8968 34.7826 19.4141 34.7826 20.0523V24.7872C34.7826 25.4253 34.2594 25.9427 33.6141 25.9427Z" fill="#FFA730"/>
<path d="M7.3029 24.787V20.052C7.3029 19.4139 7.82608 18.8965 8.47137 18.8965H1.16846C0.52318 18.8965 0 19.4139 0 20.052V24.787C0 25.4251 0.52318 25.9425 1.16846 25.9425H8.47137C7.82608 25.9425 7.3029 25.4252 7.3029 24.787Z" fill="#E58D23"/>
<path d="M10.2059 24.5863C11.4159 24.5863 12.3968 23.6163 12.3968 22.4197C12.3968 21.2232 11.4159 20.2532 10.2059 20.2532C8.9959 20.2532 8.01501 21.2232 8.01501 22.4197C8.01501 23.6163 8.9959 24.5863 10.2059 24.5863Z" fill="#E58D23"/>
<path d="M24.7435 48.1452C24.4221 48.1452 24.1127 47.9697 23.9591 47.6661C23.7426 47.238 23.918 46.7175 24.3509 46.5034C28.2627 44.5685 27.7052 41.2827 27.6794 41.1438C27.5928 40.6752 27.9045 40.2224 28.3776 40.1337C28.8516 40.0447 29.3071 40.3476 29.4003 40.815C29.7213 42.4301 29.2431 46.0214 25.135 48.0536C25.0089 48.1158 24.8751 48.1452 24.7435 48.1452Z" fill="#FFA730"/>
<path d="M28.5936 38.7674C28.1097 38.7674 27.7173 38.3793 27.7173 37.9007V35.2994C27.7173 34.8209 28.1097 34.4328 28.5936 34.4328C29.0775 34.4328 29.47 34.8209 29.47 35.2994V37.9007C29.47 38.3793 29.0777 38.7674 28.5936 38.7674Z" fill="#FFA730"/>
<path d="M32.1432 24.8532C31.6593 24.8532 31.2668 24.4651 31.2668 23.9866V20.3976C31.2668 19.919 31.6593 19.5309 32.1432 19.5309C32.6271 19.5309 33.0195 19.919 33.0195 20.3976V23.9866C33.0195 24.4651 32.6271 24.8532 32.1432 24.8532Z" fill="#FFB74B"/>
<path d="M230.616 92.1667V100.5C230.616 102.71 229.738 104.83 228.175 106.393C226.612 107.955 224.493 108.833 222.283 108.833H47.2826C45.0725 108.833 42.9529 107.955 41.3901 106.393C39.8273 104.83 38.9493 102.71 38.9493 100.5V92.1667H230.616Z" fill="#7C7D7D"/>
<path d="M230.616 92.1667V100.5H55.6159C53.4058 100.5 51.2862 99.622 49.7234 98.0592C48.1606 96.4964 47.2826 94.3768 47.2826 92.1667H230.616Z" fill="#919191"/>
<path d="M197.283 125.5C206.487 125.5 213.949 118.038 213.949 108.833C213.949 99.6286 206.487 92.1667 197.283 92.1667C188.078 92.1667 180.616 99.6286 180.616 108.833C180.616 118.038 188.078 125.5 197.283 125.5Z" fill="#374F68"/>
<path d="M101.449 108.833C101.456 111.832 100.653 114.777 99.1254 117.357C97.5981 119.938 95.4029 122.058 92.7713 123.495C90.1396 124.933 87.1689 125.633 84.1723 125.524C81.1758 125.414 78.2644 124.498 75.7449 122.872C73.2255 121.246 71.1914 118.97 69.8571 116.285C68.5227 113.599 67.9376 110.604 68.1632 107.614C68.3889 104.624 69.4171 101.75 71.1394 99.2952C72.8617 96.8406 75.2143 94.8961 77.9493 93.6667C80.4848 92.5269 83.2651 92.0395 86.037 92.2487C88.809 92.4579 91.4847 93.3572 93.8203 94.8646C96.156 96.372 98.0776 98.4397 99.41 100.879C100.742 103.319 101.443 106.053 101.449 108.833Z" fill="#374F68"/>
<path d="M99.9493 115.667C96.8707 117.035 93.4496 117.439 90.137 116.824C86.8245 116.209 83.776 114.605 81.3937 112.222C79.0114 109.84 77.407 106.792 76.7921 103.479C76.1772 100.166 76.5807 96.7453 77.9493 93.6667C81.0279 92.298 84.449 91.8946 87.7616 92.5095C91.0741 93.1244 94.1225 94.7288 96.5049 97.1111C98.8872 99.4934 100.492 102.542 101.107 105.854C101.721 109.167 101.318 112.588 99.9493 115.667Z" fill="#425B72"/>
<path d="M212.449 115.667C209.371 117.035 205.949 117.439 202.637 116.824C199.324 116.209 196.276 114.605 193.894 112.222C191.511 109.84 189.907 106.792 189.292 103.479C188.677 100.166 189.081 96.7453 190.449 93.6667C193.528 92.298 196.949 91.8946 200.262 92.5095C203.574 93.1244 206.622 94.7288 209.005 97.1111C211.387 99.4934 212.992 102.542 213.606 105.854C214.221 109.167 213.818 112.588 212.449 115.667Z" fill="#425B72"/>
<path d="M84.7826 113C84.0992 112.996 83.4272 112.824 82.8259 112.499C82.2246 112.174 81.7125 111.706 81.3347 111.137C80.9569 110.567 80.725 109.913 80.6594 109.233C80.5938 108.553 80.6966 107.867 80.9587 107.236C81.2208 106.604 81.6341 106.047 82.1623 105.614C82.6904 105.18 83.3172 104.883 83.9873 104.748C84.6574 104.614 85.3503 104.646 86.0049 104.843C86.6595 105.039 87.2557 105.394 87.741 105.875C88.3286 106.458 88.7293 107.202 88.8921 108.014C89.0549 108.825 88.9724 109.667 88.655 110.431C88.3377 111.196 87.7999 111.848 87.1102 112.306C86.4205 112.763 85.6102 113.005 84.7826 113Z" fill="#EDEBF2"/>
<path d="M197.283 113C196.178 113.105 195.076 112.767 194.22 112.06C193.365 111.352 192.825 110.334 192.72 109.229C192.615 108.124 192.953 107.023 193.661 106.167C194.368 105.311 195.386 104.772 196.491 104.667C202.449 103.458 203.199 113 197.283 113Z" fill="#EDEBF2"/>
<path d="M163.949 0.5H38.9493V92.1667H163.949V0.5Z" fill="#DAD7E5"/>
<path d="M163.949 0.5V83.8333H63.9493C59.529 83.8333 55.2898 82.0774 52.1641 78.9518C49.0385 75.8262 47.2826 71.5869 47.2826 67.1667V0.5H163.949Z" fill="#EDEBF2"/>
<path d="M230.616 92.1667H163.949V25.5H199.366C207.699 25.5 209.074 30.125 227.283 54.375C231.658 60.25 230.616 63 230.616 92.1667Z" fill="#FFCC66"/>
<path d="M230.616 83.8333H184.783C181.467 83.8333 178.288 82.5164 175.944 80.1722C173.6 77.828 172.283 74.6485 172.283 71.3333V25.5C199.491 25.5 204.408 23.875 209.366 30.5C233.908 63.25 230.616 53.2917 230.616 83.8333Z" fill="#FFDE76"/>
<path d="M188.949 79.6667H184.783C183.678 79.6667 182.618 79.2277 181.836 78.4463C181.055 77.6649 180.616 76.6051 180.616 75.5C180.616 74.3949 181.055 73.3351 181.836 72.5537C182.618 71.7723 183.678 71.3333 184.783 71.3333H188.949C190.054 71.3333 191.114 71.7723 191.896 72.5537C192.677 73.3351 193.116 74.3949 193.116 75.5C193.116 76.6051 192.677 77.6649 191.896 78.4463C191.114 79.2277 190.054 79.6667 188.949 79.6667Z" fill="#FFBA55"/>
<path d="M134.783 21.3333H68.116V71.3333H134.783V21.3333Z" fill="#DF8761"/>
<path d="M134.783 21.3333V63H88.9493C85.6341 63 82.4546 61.683 80.1104 59.3388C77.7662 56.9946 76.4493 53.8152 76.4493 50.5V21.3333H134.783Z" fill="#F29B75"/>
<path d="M113.949 21.3333V42.1667L101.449 38L88.9493 42.1667V21.3333H113.949Z" fill="#FFCC66"/>
<path d="M113.949 21.3333V33.8333L101.449 29.6667L97.2826 31.0417V21.3333H113.949Z" fill="#FFDE76"/>
<path d="M229.658 58.8333H188.949C186.739 58.8333 184.62 57.9554 183.057 56.3926C181.494 54.8298 180.616 52.7101 180.616 50.5V25.5C210.408 25.5 202.783 21.7083 224.366 50.5C226.579 52.9656 228.367 55.7817 229.658 58.8333Z" fill="#9FDBF3"/>
<path d="M224.366 50.5H197.283C195.072 50.5 192.953 49.622 191.39 48.0592C189.827 46.4964 188.949 44.3768 188.949 42.1667V25.5C208.949 25.5 203.741 23 224.366 50.5Z" fill="#B2E5FB"/>
</svg>
