<svg width="121" height="120" viewBox="0 0 121 120" fill="none" xmlns="http://www.w3.org/2000/svg">
<path d="M49.5625 16.1562C54.5187 16.1562 60.5997 14.0594 62.6775 11.7719C63.5318 10.8522 64.1529 9.74085 64.4884 8.53125H55.4147C53.0282 10.7067 51.0467 13.2884 49.5625 16.1562Z" fill="#4EDFA6"/>
<path d="M57.0731 24.3722L55.3956 32.7025C56.9777 34.0729 58.9388 34.9304 61.0191 35.1616L62.9063 29.5L62.9634 29.4809C60.9056 27.89 58.939 26.1844 57.0731 24.3722Z" fill="#4EDFA6"/>
<path d="M49.5625 16.1562C49.5625 24.0863 51.8881 29.7097 55.3956 32.7025L57.0731 24.3722C54.4066 21.7871 51.8985 19.0434 49.5625 16.1562Z" fill="#85EE89"/>
<path d="M62.9062 29.5L61.0191 35.1616C61.3927 35.2001 61.7681 35.2192 62.1438 35.2188H72.4375C69.0158 33.78 65.8237 31.8468 62.9634 29.481L62.9062 29.5Z" fill="#85EE89"/>
<path d="M64.8125 0.90625C61.4431 3.14133 58.2961 5.69471 55.4147 8.53125H64.4884C64.7015 7.78735 64.8105 7.01755 64.8125 6.24375V0.90625Z" fill="#85EE89"/>
<path d="M49.5625 9.29371V16.1562C51.0467 13.2883 53.0282 10.7066 55.4147 8.53121H55.2812L53.5465 3.32715C52.4042 3.86734 51.43 4.70782 50.7283 5.75874C50.0266 6.80966 49.6236 8.03152 49.5625 9.29371Z" fill="#85EE89"/>
<path d="M57.1875 23.7812L57.0731 24.3722C58.939 26.1844 60.9056 27.89 62.9635 29.4809L70.455 25.7256C69.5321 23.0785 67.9589 20.7057 65.88 18.825C65.5178 18.5581 65.1556 18.3103 64.7744 18.0815L57.1875 23.7812Z" fill="#85EE89"/>
<path d="M70.455 25.7256L62.9634 29.4809C65.8237 31.8467 69.0158 33.7799 72.4375 35.2187C72.3673 31.9592 71.6952 28.7408 70.455 25.7256Z" fill="#AAF66F"/>
<path d="M57.5687 16.1563H49.5625C51.8985 19.0435 54.4066 21.7871 57.0731 24.3723L57.1875 23.7813L64.7744 18.0816C62.5911 16.7992 60.1006 16.1337 57.5687 16.1563Z" fill="#AAF66F"/>
<path d="M53.5466 3.32721L55.2813 8.53127H55.4147C58.2961 5.69473 61.4431 3.14135 64.8125 0.90627C60.911 0.725569 57.0294 1.5597 53.5466 3.32721Z" fill="#AAF66F"/>
<path d="M13.3437 72.3906C13.3437 71.1267 12.8416 69.9146 11.9479 69.0208C11.0542 68.1271 9.84202 67.625 8.5781 67.625H7.62498L7.37716 67.4916C6.29139 69.2784 5.71768 71.3292 5.71873 73.42V77.1563H8.5781C9.2045 77.1583 9.82511 77.0364 10.4042 76.7976C10.9833 76.5588 11.5095 76.2079 11.9524 75.7649C12.3953 75.322 12.7463 74.7958 12.9851 74.2167C13.2238 73.6376 13.3457 73.017 13.3437 72.3906Z" fill="#FF942C"/>
<path d="M104.844 67.625C104.844 67.625 106.75 75.25 110.562 77.1563C113.43 78.3647 116.505 79.0056 119.617 79.0434C118.766 75.7732 116.854 72.8778 114.18 70.8113C111.507 68.7449 108.223 67.6242 104.844 67.625Z" fill="#FF942C"/>
<path d="M70.8172 45.3219L81.9688 67.625H91.5L78.9187 50.85C76.9031 48.1629 74.0543 46.2189 70.8172 45.3219Z" fill="#ABF5FF"/>
<path d="M53.375 50.4688V67.625H74.3438L66.7188 50.4688H53.375Z" fill="#89F2FF"/>
<path d="M28.5938 50.4688L22.875 67.625H47.6562V50.4688H28.5938Z" fill="#89F2FF"/>
<path d="M34.3125 111.469C31.1541 111.469 28.5938 108.908 28.5938 105.75C28.5938 102.592 31.1541 100.031 34.3125 100.031C37.4709 100.031 40.0312 102.592 40.0312 105.75C40.0312 108.908 37.4709 111.469 34.3125 111.469Z" fill="#595751"/>
<path d="M95.3125 111.469C92.1541 111.469 89.5938 108.908 89.5938 105.75C89.5938 102.592 92.1541 100.031 95.3125 100.031C98.4709 100.031 101.031 102.592 101.031 105.75C101.031 108.908 98.4709 111.469 95.3125 111.469Z" fill="#595751"/>
<path d="M95.3125 92.4063C92.6734 92.4063 90.0935 93.1889 87.8991 94.6551C85.7047 96.1213 83.9944 98.2053 82.9845 100.644C81.9745 103.082 81.7103 105.765 82.2251 108.353C82.74 110.942 84.0109 113.319 85.877 115.185C87.7432 117.052 90.1208 118.322 92.7093 118.837C95.2977 119.352 97.9807 119.088 100.419 118.078C102.857 117.068 104.941 115.358 106.407 113.163C107.874 110.969 108.656 108.389 108.656 105.75C108.657 103.997 108.313 102.262 107.643 100.642C106.973 99.0226 105.99 97.5511 104.751 96.3118C103.511 95.0724 102.04 94.0896 100.42 93.4194C98.8009 92.7493 97.0652 92.405 95.3125 92.4063ZM89.5937 105.75C89.5937 104.619 89.9291 103.513 90.5575 102.573C91.1859 101.632 92.0791 100.899 93.124 100.467C94.169 100.034 95.3188 99.9205 96.4282 100.141C97.5375 100.362 98.5565 100.906 99.3563 101.706C100.156 102.506 100.701 103.525 100.921 104.634C101.142 105.744 101.029 106.894 100.596 107.938C100.163 108.983 99.4301 109.877 98.4897 110.505C97.5492 111.133 96.4436 111.469 95.3125 111.469C93.7958 111.469 92.3412 110.866 91.2687 109.794C90.1963 108.721 89.5937 107.267 89.5937 105.75Z" fill="#75726A"/>
<path d="M34.3125 92.4063C31.6734 92.4063 29.0935 93.1889 26.8991 94.6551C24.7047 96.1213 22.9944 98.2053 21.9845 100.644C20.9745 103.082 20.7103 105.765 21.2251 108.353C21.74 110.942 23.0109 113.319 24.877 115.185C26.7432 117.052 29.1208 118.322 31.7093 118.837C34.2977 119.352 36.9807 119.088 39.4189 118.078C41.8572 117.068 43.9412 115.358 45.4074 113.163C46.8736 110.969 47.6562 108.389 47.6562 105.75C47.6575 103.997 47.3132 102.262 46.6431 100.642C45.9729 99.0226 44.9901 97.5511 43.7507 96.3118C42.5114 95.0724 41.0399 94.0896 39.4204 93.4194C37.8009 92.7493 36.0652 92.405 34.3125 92.4063ZM28.5937 105.75C28.5937 104.619 28.9291 103.513 29.5575 102.573C30.1859 101.632 31.0791 100.899 32.124 100.467C33.169 100.034 34.3188 99.9205 35.4282 100.141C36.5375 100.362 37.5565 100.906 38.3563 101.706C39.156 102.506 39.7007 103.525 39.9214 104.634C40.142 105.744 40.0288 106.894 39.5959 107.938C39.1631 108.983 38.4301 109.877 37.4897 110.505C36.5492 111.133 35.4436 111.469 34.3125 111.469C32.7958 111.469 31.3412 110.866 30.2687 109.794C29.1963 108.721 28.5937 107.267 28.5937 105.75Z" fill="#75726A"/>
<path d="M53.375 50.4688H66.7188L74.3438 67.6251H53.375V50.4688ZM28.5938 50.4688H47.6562V67.6251H22.875L28.5938 50.4688ZM8.57812 67.6251C9.84205 67.6251 11.0542 68.1271 11.9479 69.0209C12.8417 69.9146 13.3438 71.1268 13.3438 72.3907C13.3438 73.6546 12.8417 74.8668 11.9479 75.7605C11.0542 76.6542 9.84205 77.1563 8.57812 77.1563H5.71875V101.938C5.72176 102.948 6.12441 103.916 6.83874 104.63C7.55307 105.344 8.52104 105.747 9.53125 105.75H17.1562C17.1562 95.2276 24.8384 86.6876 34.3125 86.6876C43.7866 86.6876 51.4688 95.2276 51.4688 105.75H78.1562C78.1562 95.2276 85.8384 86.6876 95.3125 86.6876C104.787 86.6876 112.469 95.2276 112.469 105.75H116.281C117.291 105.747 118.259 105.344 118.974 104.63C119.688 103.916 120.091 102.948 120.094 101.938V82.8751C120.092 81.5832 119.931 80.2965 119.617 79.0435C116.505 79.0057 113.43 78.3648 110.562 77.1563C106.75 75.2501 104.844 67.6251 104.844 67.6251H81.9688L70.8172 45.3219C69.4849 44.9387 68.105 44.7462 66.7188 44.7501H32.2919C29.9563 44.7485 27.6516 45.2841 25.556 46.3154C23.4604 47.3467 21.6299 48.846 20.2062 50.6976L8.0825 66.4432C7.83001 66.7806 7.5946 67.1306 7.37718 67.4916L7.625 67.6251H8.57812Z" fill="#4EDFA6"/>
<path d="M17.1562 105.75H20.9688C20.9688 102.211 22.3746 98.817 24.877 96.3145C27.3795 93.8121 30.7735 92.4062 34.3125 92.4062C37.8515 92.4062 41.2455 93.8121 43.748 96.3145C46.2504 98.817 47.6562 102.211 47.6562 105.75H51.4688C51.4688 95.2275 43.7866 86.6875 34.3125 86.6875C24.8384 86.6875 17.1562 95.2275 17.1562 105.75Z" fill="#28BE77"/>
<path d="M78.1562 105.75H81.9688C81.9688 102.211 83.3746 98.817 85.877 96.3145C88.3795 93.8121 91.7735 92.4062 95.3125 92.4062C98.8515 92.4062 102.246 93.8121 104.748 96.3145C107.25 98.817 108.656 102.211 108.656 105.75H112.469C112.469 95.2275 104.787 86.6875 95.3125 86.6875C85.8384 86.6875 78.1562 95.2275 78.1562 105.75Z" fill="#28BE77"/>
<path d="M64.8125 50.4688L53.375 61.9062V50.4688H64.8125Z" fill="#ABF5FF"/>
<path d="M66.7188 50.4688L69.6506 57.0682L59.0938 67.625H53.375V61.9062L64.8125 50.4688H66.7188Z" fill="#89F2FF"/>
<path d="M74.3438 67.625H59.0938L69.6506 57.0682L74.3438 67.625Z" fill="#6BDFED"/>
<path d="M47.6562 67.625H32.4062L47.6562 52.375V67.625Z" fill="#6BDFED"/>
<path d="M23.8281 64.7656L38.125 50.4688H47.6562V52.375L32.4062 67.625H22.875L23.8281 64.7656Z" fill="#89F2FF"/>
<path d="M28.5938 50.4688H38.125L23.8281 64.7656L28.5938 50.4688Z" fill="#ABF5FF"/>
<path d="M47.6563 67.6251V50.4688H28.7272C28.0471 48.9141 27.5266 47.2944 27.1736 45.6346C28.8167 45.0496 30.5478 44.7505 32.2919 44.7501H66.7188C68.1051 44.7462 69.4849 44.9387 70.8172 45.3219L81.9688 67.6251H104.844C104.844 67.6251 106.75 75.2501 110.563 77.1563C113.43 78.3648 116.505 79.0057 119.617 79.0435C119.931 80.2965 120.092 81.5832 120.094 82.8751V86.6876C88.8141 86.6876 61.1716 79.1693 44.225 67.6251H47.6563ZM53.375 67.6251H74.3438L66.7188 50.4688H53.375V67.6251Z" fill="#75F0BF"/>
<path d="M1.90625 90.5H5.71875V86.6875H3.8125V35.2188C3.81755 30.6702 5.62669 26.3094 8.84302 23.093C12.0593 19.8767 16.4202 18.0675 20.9688 18.0625H49.5625V14.25H20.9688C15.4095 14.2566 10.0798 16.4679 6.14885 20.3988C2.21786 24.3298 0.00655746 29.6595 0 35.2188V88.5938C0 89.0993 0.200836 89.5842 0.558327 89.9417C0.915817 90.2992 1.40068 90.5 1.90625 90.5Z" fill="#85EE89"/>
<path d="M49.5625 15.1193C51.0015 12.6983 52.7532 10.4775 54.7723 8.51409L53.1329 3.59406C53.2721 3.50638 53.3998 3.40344 53.5466 3.32719C53.6933 3.25094 53.8325 3.1785 53.9736 3.10225L55.5291 7.76875C58.1399 5.25477 60.9591 2.9667 63.9566 0.929125C64.2406 0.919594 64.5189 0.90625 64.8125 0.90625V1.47812C61.9054 3.44312 59.164 5.64264 56.6156 8.05469H64.5895C64.5552 8.21291 64.5323 8.37494 64.4884 8.53125C64.4446 8.68756 64.3493 8.84578 64.2978 9.00781H55.6225C53.4385 11.0709 51.5855 13.4582 50.1287 16.0857L50.163 16.1258C49.9723 16.1258 49.7607 16.1562 49.5663 16.1562L49.5625 15.1193Z" fill="#DAFFA8"/>
<path d="M50.1839 16.1562C52.2759 18.7146 54.503 21.1593 56.8558 23.4801C56.8768 23.4553 56.8787 23.4191 56.9053 23.4L64.2997 17.8414C64.456 17.9272 64.6218 17.9901 64.7743 18.0816C64.9268 18.1731 65.0336 18.2569 65.1556 18.3427C65.1194 18.3828 65.106 18.4361 65.0546 18.4609L57.6202 24.0519L57.5897 24.1987C59.3167 25.8662 61.1308 27.4411 63.0244 28.9167L70.2682 25.2948C70.3292 25.4416 70.3959 25.5846 70.4588 25.7333C70.5217 25.8819 70.5617 26.0383 70.6189 26.1869L63.8746 29.5667C66.4926 31.634 69.3606 33.3632 72.4108 34.7136C72.4108 34.8852 72.4413 35.0663 72.4413 35.2359H71.2213C68.365 33.8675 65.6658 32.1929 63.1712 30.2415L61.5166 35.1978C61.3526 35.1978 61.1811 35.1978 61.0228 35.173C60.9447 35.173 60.8723 35.1406 60.796 35.1311L60.5692 35.0224L62.3706 29.6201C60.7445 28.3562 59.0689 26.9018 57.3762 25.3024L55.8683 32.8016L55.8264 33.0266C55.6853 32.9179 55.5367 32.8359 55.3994 32.7139C55.2622 32.5919 55.1363 32.4452 55.001 32.3193L56.5603 24.5418C54.0989 22.1407 51.7735 19.604 49.5949 16.9435C49.5949 16.6805 49.5663 16.4365 49.5663 16.1677L50.1839 16.1562Z" fill="#DAFFA8"/>
<path d="M95.3125 98.125C96.8206 98.125 98.2948 98.5722 99.5487 99.41C100.803 100.248 101.78 101.439 102.357 102.832C102.934 104.225 103.085 105.758 102.791 107.238C102.497 108.717 101.771 110.075 100.704 111.142C99.6378 112.208 98.2792 112.934 96.8001 113.228C95.321 113.523 93.7878 113.372 92.3945 112.795C91.0012 112.217 89.8104 111.24 88.9725 109.986C88.1347 108.732 87.6875 107.258 87.6875 105.75C87.6875 103.728 88.4908 101.788 89.9208 100.358C91.3508 98.9283 93.2902 98.125 95.3125 98.125ZM95.3125 111.469C96.4436 111.469 97.5492 111.133 98.4897 110.505C99.4301 109.877 100.163 108.983 100.596 107.938C101.029 106.894 101.142 105.744 100.921 104.634C100.701 103.525 100.156 102.506 99.3563 101.706C98.5565 100.906 97.5375 100.362 96.4282 100.141C95.3188 99.9205 94.169 100.034 93.124 100.467C92.0791 100.899 91.1859 101.632 90.5575 102.573C89.9291 103.513 89.5937 104.619 89.5937 105.75C89.5937 107.267 90.1963 108.721 91.2687 109.794C92.3412 110.866 93.7958 111.469 95.3125 111.469Z" fill="#63615A"/>
<path d="M34.3125 98.125C35.8206 98.125 37.2948 98.5722 38.5487 99.41C39.8026 100.248 40.78 101.439 41.3571 102.832C41.9342 104.225 42.0852 105.758 41.791 107.238C41.4968 108.717 40.7706 110.075 39.7042 111.142C38.6378 112.208 37.2792 112.934 35.8001 113.228C34.321 113.523 32.7878 113.372 31.3945 112.795C30.0012 112.217 28.8104 111.24 27.9725 109.986C27.1347 108.732 26.6875 107.258 26.6875 105.75C26.6875 103.728 27.4908 101.788 28.9208 100.358C30.3508 98.9283 32.2902 98.125 34.3125 98.125ZM34.3125 111.469C35.4436 111.469 36.5492 111.133 37.4897 110.505C38.4301 109.877 39.1631 108.983 39.5959 107.938C40.0288 106.894 40.142 105.744 39.9214 104.634C39.7007 103.525 39.156 102.506 38.3563 101.706C37.5565 100.906 36.5375 100.362 35.4282 100.141C34.3188 99.9205 33.169 100.034 32.124 100.467C31.0791 100.899 30.1859 101.632 29.5575 102.573C28.9291 103.513 28.5937 104.619 28.5937 105.75C28.5937 107.267 29.1963 108.721 30.2687 109.794C31.3412 110.866 32.7958 111.469 34.3125 111.469Z" fill="#63615A"/>
<path d="M53.375 48.5625H66.7188C67.0876 48.5625 67.4485 48.6694 67.7578 48.8704C68.067 49.0714 68.3113 49.3578 68.4611 49.6948L76.0861 66.8511C76.215 67.1413 76.2694 67.4592 76.2443 67.7758C76.2192 68.0924 76.1153 68.3977 75.9422 68.664C75.7691 68.9302 75.5322 69.1491 75.2531 69.3005C74.9739 69.452 74.6613 69.5313 74.3438 69.5312H53.375C52.8694 69.5312 52.3846 69.3304 52.0271 68.9729C51.6696 68.6154 51.4688 68.1306 51.4688 67.625V50.4688C51.4688 49.9632 51.6696 49.4783 52.0271 49.1208C52.3846 48.7633 52.8694 48.5625 53.375 48.5625ZM53.375 67.625H74.3438L66.7188 50.4688H53.375V67.625Z" fill="#8F8B81"/>
<path d="M21.0679 67.0226L26.7866 49.8664C26.913 49.4869 27.1555 49.1569 27.4798 48.9229C27.8041 48.6889 28.1938 48.5628 28.5938 48.5625H47.6562C48.1618 48.5625 48.6467 48.7633 49.0042 49.1208C49.3617 49.4783 49.5625 49.9632 49.5625 50.4688V67.625C49.5625 68.1306 49.3617 68.6154 49.0042 68.9729C48.6467 69.3304 48.1618 69.5312 47.6562 69.5312H22.875C22.5731 69.531 22.2756 69.4591 22.0069 69.3214C21.7383 69.1837 21.5062 68.9842 21.3297 68.7392C21.1533 68.4943 21.0375 68.2109 20.992 67.9125C20.9465 67.614 20.9725 67.309 21.0679 67.0226ZM47.6562 67.625V50.4688H28.5938L22.875 67.625H47.6562Z" fill="#8F8B81"/>
<path d="M29.9263 58.6866C28.7044 57.4638 29.0939 55.0935 30.7963 53.3923C32.4986 51.6911 34.8693 51.3033 36.0912 52.5261C37.3131 53.7488 36.9237 56.1192 35.2213 57.8204C33.5189 59.5216 31.1483 59.9094 29.9263 58.6866Z" fill="#F6FAFD"/>
<path d="M37.1829 62.8953C36.5689 62.2809 36.7643 61.0903 37.6192 60.236C38.4741 59.3817 39.6648 59.1871 40.2788 59.8015C40.8927 60.4159 40.6974 61.6065 39.8425 62.4608C38.9876 63.3151 37.7968 63.5096 37.1829 62.8953Z" fill="#F6FAFD"/>
</svg>
