<svg width="176" height="152" viewBox="0 0 176 152" fill="none" xmlns="http://www.w3.org/2000/svg">
<path d="M28.9647 123.992C28.9515 125.412 28.5623 126.559 28.0954 126.555L14.4708 126.431L14.5186 121.289L28.1432 121.413C28.6101 121.417 28.9779 122.572 28.9647 123.992Z" fill="#FFD551"/>
<path d="M28.1191 123.996L14.4944 123.872L14.4706 126.431L28.0953 126.555C28.5621 126.559 28.9513 125.411 28.9645 123.991C28.9688 123.525 28.9314 123.089 28.8636 122.711C28.7105 123.481 28.4326 123.999 28.1191 123.996Z" fill="#FFC34C"/>
<path d="M15.085 126.69C13.6492 126.69 12.485 125.539 12.485 124.119V82.6803H17.6848V124.119C17.685 125.539 16.5208 126.69 15.085 126.69Z" fill="#FFD551"/>
<path d="M15.0732 124.118V82.6799H12.4854V124.118C12.4854 125.538 13.6493 126.689 15.0854 126.689C15.5569 126.689 15.9979 126.563 16.3792 126.346C15.5994 125.902 15.0732 125.072 15.0732 124.118Z" fill="#FFC34C"/>
<path d="M18.495 87.542H11.6038C7.06651 87.542 3.38841 83.9045 3.38841 79.4177V63.873C3.38841 63.1827 3.95426 62.6231 4.65232 62.6231H25.4465C26.1445 62.6231 26.7104 63.1827 26.7104 63.873V79.4177C26.7104 83.9045 23.0323 87.542 18.495 87.542Z" fill="#E58D23"/>
<path d="M9.70807 79.4177V63.873C9.70807 63.1827 10.2739 62.6231 10.972 62.6231H4.65244C3.95439 62.6231 3.38853 63.1827 3.38853 63.873V79.4177C3.38853 83.9045 7.06676 87.542 11.6039 87.542H17.9235C13.3862 87.542 9.70807 83.9045 9.70807 79.4177Z" fill="#BF6C0D"/>
<path d="M13.5584 84.2501C13.4096 84.2501 13.2591 84.2069 13.1274 84.1166C12.783 83.8809 12.6972 83.4137 12.9357 83.0732L16.8895 77.4269L14.2954 77.9516C13.8576 78.0402 13.4065 77.8688 13.1469 77.5151C12.8887 77.163 12.8638 76.7086 13.0822 76.329L16.7053 70.0296C16.9126 69.6697 17.3753 69.5436 17.7396 69.7485C18.1036 69.9532 18.2308 70.411 18.0238 70.7711L14.8374 76.3111L17.544 75.7637C18.0039 75.6707 18.4656 75.8578 18.7206 76.2401C18.971 76.6152 18.9648 77.0978 18.7046 77.4695L14.1827 83.9272C14.0353 84.1374 13.7988 84.2501 13.5584 84.2501Z" fill="#FFDF74"/>
<path d="M25.4465 62.6231H4.65244C3.95439 62.6231 3.38853 63.1827 3.38853 63.873V68.3581H26.7105V63.873C26.7104 63.1827 26.1445 62.6231 25.4465 62.6231Z" fill="#BF6C0D"/>
<path d="M11.6986 66.2333H6.87338V50.4076C6.87338 49.09 7.95352 48.0217 9.28605 48.0217C10.6185 48.0217 11.6987 49.0899 11.6987 50.4076L11.6986 66.2333Z" fill="#FFEACF"/>
<path d="M23.2255 66.2333H18.4003V50.4076C18.4003 49.09 19.4805 48.0217 20.813 48.0217C22.1454 48.0217 23.2257 49.0899 23.2257 50.4076V66.2333H23.2255Z" fill="#FFEACF"/>
<path d="M10.6132 48.4161C10.2323 48.1675 9.77658 48.0217 9.28605 48.0217C7.95364 48.0217 6.87338 49.0899 6.87338 50.4075V66.2332H9.52759V50.4076C9.52759 49.5751 9.95946 48.8429 10.6132 48.4161Z" fill="#FFD59A"/>
<path d="M22.14 48.4161C21.7592 48.1675 21.3034 48.0217 20.8129 48.0217C19.4805 48.0217 18.4002 49.0899 18.4002 50.4075V66.2332H21.0544V50.4076C21.0545 49.5751 21.4864 48.8429 22.14 48.4161Z" fill="#FFD59A"/>
<path d="M29.0878 66.2333H1.01113C0.452731 66.2333 0 65.7856 0 65.2334V61.136C0 60.5838 0.452731 60.1361 1.01113 60.1361H29.0878C29.6462 60.1361 30.0989 60.5838 30.0989 61.136V65.2334C30.0989 65.7856 29.6462 66.2333 29.0878 66.2333Z" fill="#FFA730"/>
<path d="M6.31953 65.2333V61.1359C6.31953 60.5837 6.77227 60.136 7.33066 60.136H1.01113C0.452731 60.136 0 60.5837 0 61.1359V65.2333C0 65.7855 0.452731 66.2332 1.01113 66.2332H7.33066C6.77227 66.2332 6.31953 65.7856 6.31953 65.2333Z" fill="#E58D23"/>
<path d="M8.83167 65.0597C9.87872 65.0597 10.7275 64.2203 10.7275 63.1848C10.7275 62.1494 9.87872 61.31 8.83167 61.31C7.78461 61.31 6.93581 62.1494 6.93581 63.1848C6.93581 64.2203 7.78461 65.0597 8.83167 65.0597Z" fill="#E58D23"/>
<path d="M21.4117 85.4462C21.1335 85.4462 20.8658 85.2944 20.7329 85.0317C20.5456 84.6612 20.6974 84.2107 21.072 84.0255C24.457 82.3512 23.9745 79.5078 23.9523 79.3876C23.8773 78.9821 24.1471 78.5902 24.5564 78.5135C24.9666 78.4365 25.3608 78.6986 25.4414 79.1031C25.7192 80.5007 25.3054 83.6084 21.7504 85.367C21.6414 85.4207 21.5256 85.4462 21.4117 85.4462Z" fill="#FFA730"/>
<path d="M24.7434 77.331C24.3246 77.331 23.985 76.9952 23.985 76.5811V74.33C23.985 73.916 24.3246 73.5801 24.7434 73.5801C25.1621 73.5801 25.5017 73.916 25.5017 74.33V76.5811C25.5017 76.9952 25.1622 77.331 24.7434 77.331Z" fill="#FFA730"/>
<path d="M27.8149 65.2905C27.3962 65.2905 27.0566 64.9547 27.0566 64.5406V61.4349C27.0566 61.0208 27.3962 60.685 27.8149 60.685C28.2337 60.685 28.5733 61.0208 28.5733 61.4349V64.5406C28.5733 64.9547 28.2337 65.2905 27.8149 65.2905Z" fill="#FFB74B"/>
<path d="M147.459 26.0175V51.214H115.964C115.961 45.9294 117.62 40.7777 120.706 36.4877C123.792 32.1978 128.149 28.9867 133.16 27.3089C137.809 26.0161 142.654 25.5786 147.459 26.0175Z" fill="#FFCC66"/>
<path d="M147.459 26.0175V48.0645H129.664C128.667 48.0687 127.684 47.8363 126.794 47.3863C125.905 46.9364 125.135 46.2817 124.547 45.4761C123.96 44.6706 123.572 43.7371 123.416 42.7526C123.26 41.768 123.34 40.7604 123.649 39.8126C125.371 34.7115 128.683 30.2964 133.097 27.2144C137.772 25.9457 142.639 25.5401 147.459 26.0175Z" fill="#FFDE76"/>
<path d="M144.31 101.607L134.861 126.804H27.776V107.906C27.7744 101.905 29.2019 95.9896 31.9403 90.6497C34.6788 85.3097 38.6494 80.6986 43.5238 77.1979C55.4292 68.6311 64.9408 70.1114 84.4681 70.1114V101.607C84.4681 104.948 85.7954 108.153 88.1581 110.515C90.5207 112.878 93.7251 114.205 97.0664 114.205H122.263V51.214H134.861L144.31 101.607Z" fill="#DAD7E5"/>
<path d="M78.169 76.4105V107.906C78.169 111.247 79.4963 114.452 81.8589 116.814C84.2216 119.177 87.426 120.504 90.7672 120.504H109.665C111.335 120.504 112.937 119.841 114.119 118.659C115.3 117.478 115.964 115.876 115.964 114.205H97.0664C93.7251 114.205 90.5207 112.878 88.1581 110.515C85.7954 108.153 84.4681 104.948 84.4681 101.607V70.1114C65.3188 70.1114 49.3505 67.5603 35.9334 84.5364C48.3426 74.7728 58.0748 76.4105 78.169 76.4105Z" fill="#EDEBF2"/>
<path d="M144.31 101.607L139.113 115.497C137.318 105.67 129.664 64.4422 129.916 64.8831C129.759 63.971 129.804 63.0353 130.05 62.1427C130.295 61.2502 130.734 60.4226 131.335 59.7189C131.937 59.0153 132.686 58.4528 133.529 58.0716C134.373 57.6903 135.29 57.4997 136.215 57.5132C136.373 57.5132 135.523 54.6786 144.31 101.607Z" fill="#EDEBF2"/>
<path d="M172.656 126.804H134.861L144.31 101.607C152.278 101.607 158.798 102.52 165.286 108.977C167.625 111.319 169.48 114.098 170.744 117.157C172.009 120.216 172.658 123.494 172.656 126.804Z" fill="#FFCC66"/>
<path d="M167.365 120.504H141.759C141.252 120.501 140.753 120.375 140.306 120.138C139.858 119.901 139.474 119.559 139.186 119.142C138.899 118.724 138.716 118.244 138.654 117.741C138.592 117.238 138.652 116.727 138.83 116.252L144.31 101.607H147.459C152.207 101.609 156.858 102.952 160.875 105.482C164.893 108.012 168.114 111.625 170.168 115.906C170.417 116.387 170.538 116.923 170.519 117.464C170.5 118.005 170.342 118.532 170.06 118.994C169.779 119.456 169.383 119.838 168.91 120.103C168.438 120.367 167.906 120.506 167.365 120.504Z" fill="#FFDE76"/>
<path d="M71.8699 82.7096V114.205H40.3742C40.3742 106.394 39.4924 95.3079 51.2087 87.245C58.5787 82.0482 65.1298 82.7096 71.8699 82.7096Z" fill="#FFCC66"/>
<path d="M71.8699 82.7096V107.906H46.6734C46.6734 100.158 46.1694 94.3945 51.2087 87.245C58.5787 82.0482 65.1298 82.7096 71.8699 82.7096Z" fill="#FFDE76"/>
<path d="M71.8699 95.3079V101.607H65.5707C64.7354 101.607 63.9343 101.275 63.3437 100.685C62.753 100.094 62.4212 99.2928 62.4212 98.4575C62.4212 97.6221 62.753 96.821 63.3437 96.2304C63.9343 95.6397 64.7354 95.3079 65.5707 95.3079H71.8699Z" fill="#FFBA55"/>
<path d="M144.31 145.701C141.974 145.701 139.668 145.182 137.558 144.182C135.448 143.181 133.587 141.723 132.109 139.914C130.632 138.105 129.576 135.99 129.017 133.723C128.458 131.455 128.41 129.092 128.877 126.804H159.743C160.21 129.092 160.162 131.455 159.603 133.723C159.044 135.99 157.987 138.105 156.51 139.914C155.033 141.723 153.172 143.181 151.062 144.182C148.952 145.182 146.645 145.701 144.31 145.701Z" fill="#374F68"/>
<path d="M159.743 126.804H128.877C128.66 127.839 128.554 128.895 128.562 129.953H153.444C154.021 132.76 153.811 135.672 152.839 138.367C151.866 141.062 150.168 143.437 147.932 145.228C151.905 144.288 155.357 141.84 157.561 138.403C159.764 134.966 160.547 130.807 159.743 126.804Z" fill="#2C435E"/>
<path d="M56.1221 145.701C53.7866 145.701 51.4803 145.182 49.3701 144.182C47.26 143.181 45.3989 141.723 43.9217 139.914C42.4444 138.105 41.388 135.99 40.8289 133.723C40.2698 131.455 40.2221 129.092 40.6892 126.804H71.5549C72.022 129.092 71.9743 131.455 71.4152 133.723C70.8561 135.99 69.7997 138.105 68.3225 139.914C66.8452 141.723 64.9841 143.181 62.874 144.182C60.7638 145.182 58.4575 145.701 56.1221 145.701Z" fill="#374F68"/>
<path d="M71.5549 126.804H40.6892C40.4722 127.839 40.3666 128.895 40.3742 129.953H65.2558C65.8328 132.76 65.6235 135.672 64.6509 138.367C63.6784 141.062 61.9803 143.437 59.744 145.228C63.7172 144.288 67.1697 141.84 69.3732 138.403C71.5766 134.966 72.3589 130.807 71.5549 126.804Z" fill="#2C435E"/>
<path d="M62.4212 129.953C62.4212 131.624 61.7575 133.226 60.5762 134.407C59.3949 135.589 57.7927 136.252 56.1221 136.252C54.4514 136.252 52.8492 135.589 51.6679 134.407C50.4866 133.226 49.8229 131.624 49.8229 129.953H62.4212Z" fill="#DAD7E5"/>
<path d="M150.609 129.953C150.609 131.624 149.945 133.226 148.764 134.407C147.583 135.589 145.98 136.252 144.31 136.252C142.639 136.252 141.037 135.589 139.856 134.407C138.674 133.226 138.011 131.624 138.011 129.953H150.609Z" fill="#DAD7E5"/>
<path d="M93.9168 63.8123V70.1114C65.7282 70.1114 55.9331 68.2532 43.5238 77.1979V57.5132H87.6177C89.2883 57.5132 90.8905 58.1768 92.0718 59.3581C93.2531 60.5394 93.9168 62.1416 93.9168 63.8123Z" fill="#DF8761"/>
<path d="M93.9168 63.8123V70.1114C65.7282 70.1114 55.9331 68.2532 43.5238 77.1979V57.5132H87.6177C89.2883 57.5132 90.8905 58.1768 92.0718 59.3581C93.2531 60.5394 93.9168 62.1416 93.9168 63.8123Z" fill="#425B72"/>
<path d="M90.7672 66.9618V70.1114H65.5707C57.6669 70.144 49.9664 72.6191 43.5238 77.1979C43.5238 72.8125 45.2659 68.6067 48.3669 65.5058C51.4678 62.4048 55.6736 60.6627 60.059 60.6627H84.4681C86.1387 60.6627 87.7409 61.3264 88.9223 62.5077C90.1036 63.689 90.7672 65.2912 90.7672 66.9618Z" fill="#374F68"/>
<path d="M87.6177 10.2697H37.2247V57.5131H87.6177V10.2697Z" fill="#A87E6B"/>
<path d="M87.6177 10.2697V51.214H68.7203C62.0378 51.214 55.6289 48.5594 50.9037 43.8341C46.1784 39.1089 43.5238 32.7001 43.5238 26.0175V10.2697H87.6177Z" fill="#BE927C"/>
<path d="M125.412 41.7653H106.515C105.68 41.7653 104.879 41.4335 104.288 40.8429C103.697 40.2522 103.365 39.4511 103.365 38.6158C103.365 37.7805 103.697 36.9794 104.288 36.3887C104.879 35.798 105.68 35.4662 106.515 35.4662H125.412C126.248 35.4662 127.049 35.798 127.639 36.3887C128.23 36.9794 128.562 37.7805 128.562 38.6158C128.562 39.4511 128.23 40.2522 127.639 40.8429C127.049 41.4335 126.248 41.7653 125.412 41.7653Z" fill="#374F68"/>
<path d="M68.7203 10.2697H56.1221V22.868H68.7203V10.2697Z" fill="#F6CCAF"/>
<path d="M68.7203 10.2697V19.7184C66.2144 19.7184 63.811 18.7229 62.0391 16.951C60.2671 15.179 59.2716 12.7757 59.2716 10.2697H68.7203Z" fill="#FFDEC7"/>
<path d="M65.5707 48.0645H59.2716C58.4363 48.0645 57.6352 47.7326 57.0445 47.142C56.4539 46.5513 56.1221 45.7502 56.1221 44.9149C56.1221 44.0796 56.4539 43.2785 57.0445 42.6878C57.6352 42.0972 58.4363 41.7654 59.2716 41.7654H65.5707C66.4061 41.7654 67.2072 42.0972 67.7978 42.6878C68.3885 43.2785 68.7203 44.0796 68.7203 44.9149C68.7203 45.7502 68.3885 46.5513 67.7978 47.142C67.2072 47.7326 66.4061 48.0645 65.5707 48.0645Z" fill="#EDEBF2"/>
</svg>
