<svg width="45" height="82" viewBox="0 0 45 82" fill="none" xmlns="http://www.w3.org/2000/svg">
<path d="M3.90833 1.95416C3.90833 0.87495 3.03338 0 1.95417 0C0.874954 0 0 0.874954 0 1.95416V80.0458C0 81.1251 0.874958 82 1.95417 82C3.03338 82 3.90833 81.125 3.90833 80.0458V1.95416Z" fill="#37474F"/>
<path d="M3.92759 5.61286C10.3912 5.49241 16.1934 6.16224 21.4783 6.77257C29.6385 7.71489 36.5061 8.50791 42.0861 5.86285L44.8996 4.52917V7.64341V32.2203V33.5163L43.6971 34.0316C35.9695 37.3434 29.0389 36.0491 21.7827 34.6939C16.159 33.6437 10.324 32.5544 3.92758 33.8001L3.92759 5.61286Z" fill="#F4511E"/>
</svg>
