<svg width="94" height="86" viewBox="0 0 94 86" fill="none" xmlns="http://www.w3.org/2000/svg">
<path d="M74.754 75.917C72.8589 75.9154 71.0416 75.1626 69.7006 73.8234C68.3596 72.4843 67.6042 70.6681 67.6 68.773L67.582 49.5C67.5817 48.6731 67.2534 47.8802 66.6689 47.2952C66.0845 46.7102 65.2919 46.3811 64.465 46.38H61.5C61.0359 46.38 60.5908 46.1956 60.2626 45.8674C59.9344 45.5393 59.75 45.0941 59.75 44.63C59.75 44.1659 59.9344 43.7208 60.2626 43.3926C60.5908 43.0644 61.0359 42.88 61.5 42.88H64.465C66.2194 42.8824 67.9012 43.5804 69.1416 44.8211C70.3821 46.0617 71.0799 47.7436 71.082 49.498L71.1 68.77C71.1223 69.7233 71.5167 70.6299 72.1987 71.2962C72.8808 71.9625 73.7965 72.3356 74.75 72.3356C75.7035 72.3356 76.6192 71.9625 77.3013 71.2962C77.9833 70.6299 78.3777 69.7233 78.4 68.77V49.345C78.4 48.8809 78.5844 48.4358 78.9126 48.1076C79.2407 47.7794 79.6859 47.595 80.15 47.595C80.6141 47.595 81.0592 47.7794 81.3874 48.1076C81.7156 48.4358 81.9 48.8809 81.9 49.345V68.766C81.8976 70.661 81.1441 72.4777 79.8047 73.8181C78.4652 75.1586 76.649 75.9133 74.754 75.917Z" fill="#2D1F5E"/>
<path d="M61.5 8H14.558V84H61.5V8Z" fill="#FFAD5A"/>
<path d="M52.308 16.924H23.75V39.636H52.308V16.924Z" fill="#F9D16E"/>
<path d="M61.8629 0H14.1949C11.9858 0 10.1949 1.79086 10.1949 4C10.1949 6.20914 11.9858 8 14.1949 8H61.8629C64.0721 8 65.8629 6.20914 65.8629 4C65.8629 1.79086 64.0721 0 61.8629 0Z" fill="#E84949"/>
<path d="M75.56 37.833C75.3302 37.8332 75.1026 37.788 74.8902 37.7001C74.6778 37.6122 74.4848 37.4833 74.3223 37.3208C74.1598 37.1582 74.0309 36.9653 73.943 36.7529C73.8551 36.5405 73.8099 36.3129 73.81 36.083V32.414C73.8092 31.782 73.5578 31.1761 73.1109 30.7292C72.664 30.2822 72.0581 30.0308 71.426 30.03H69.358C68.8939 30.03 68.4488 29.8457 68.1206 29.5175C67.7924 29.1893 67.608 28.7442 67.608 28.28C67.608 27.8159 67.7924 27.3708 68.1206 27.0426C68.4488 26.7144 68.8939 26.53 69.358 26.53H71.426C72.986 26.5319 74.4815 27.1524 75.5846 28.2555C76.6877 29.3585 77.3082 30.8541 77.31 32.414V36.083C77.31 36.5472 77.1257 36.9923 76.7975 37.3205C76.4693 37.6487 76.0242 37.833 75.56 37.833Z" fill="#2D1F5E"/>
<path d="M43.712 65.817C43.6922 67.3113 43.0846 68.7377 42.0209 69.7874C40.9572 70.8371 39.5229 71.4256 38.0285 71.4256C36.534 71.4256 35.0997 70.8371 34.036 69.7874C32.9723 68.7377 32.3648 67.3113 32.345 65.817C32.345 62.678 38.029 55 38.029 55C38.029 55 43.712 62.678 43.712 65.817Z" fill="#FFF8E3"/>
<path d="M92 85.75H2C1.53587 85.75 1.09075 85.5656 0.762564 85.2374C0.434375 84.9092 0.25 84.4641 0.25 84C0.25 83.5359 0.434375 83.0908 0.762564 82.7626C1.09075 82.4344 1.53587 82.25 2 82.25H92C92.4641 82.25 92.9092 82.4344 93.2374 82.7626C93.5656 83.0908 93.75 83.5359 93.75 84C93.75 84.4641 93.5656 84.9092 93.2374 85.2374C92.9092 85.5656 92.4641 85.75 92 85.75Z" fill="#2D1F5E"/>
<path d="M80.1551 49.3451C78.9368 49.3437 77.7688 48.8592 76.9074 47.9977C76.0459 47.1363 75.5614 45.9683 75.5601 44.75V34.55L82.6751 39.2161C83.3123 39.6345 83.8355 40.2048 84.1977 40.8756C84.5599 41.5464 84.7497 42.2967 84.7501 43.059V44.75C84.7487 45.9683 84.2642 47.1363 83.4028 47.9977C82.5413 48.8592 81.3733 49.3437 80.1551 49.3451Z" fill="#FFAD5A"/>
<path d="M80.1551 51.1C78.472 51.0982 76.8584 50.4284 75.6687 49.2378C74.4791 48.0472 73.8106 46.4331 73.8101 44.75V34.55C73.8099 34.2343 73.8952 33.9244 74.0568 33.6532C74.2185 33.382 74.4505 33.1596 74.7283 33.0095C75.0061 32.8594 75.3193 32.7873 75.6347 32.8008C75.9502 32.8143 76.2561 32.9128 76.5201 33.086L83.6351 37.753C84.5164 38.3292 85.24 39.1162 85.7403 40.0427C86.2406 40.9693 86.5018 42.006 86.5001 43.059V44.75C86.4995 46.4331 85.831 48.0472 84.6414 49.2378C83.4517 50.4284 81.8382 51.0982 80.1551 51.1ZM77.3101 37.79V44.75C77.3101 45.5046 77.6098 46.2282 78.1433 46.7617C78.6769 47.2953 79.4005 47.595 80.1551 47.595C80.9096 47.595 81.6332 47.2953 82.1668 46.7617C82.7003 46.2282 83.0001 45.5046 83.0001 44.75V43.058C83.0008 42.5858 82.8837 42.121 82.6593 41.7055C82.4349 41.2901 82.1104 40.9372 81.7151 40.679L77.3101 37.79Z" fill="#E84949"/>
<path d="M61.5 20.092H64.208C65.5741 20.092 66.8843 20.6347 67.8503 21.6007C68.8163 22.5667 69.359 23.8769 69.359 25.243V31.319C69.359 32.6852 68.8163 33.9953 67.8503 34.9613C66.8843 35.9273 65.5741 36.47 64.208 36.47H61.5V20.092Z" fill="#E84949"/>
</svg>
