<svg width="62" height="62" viewBox="0 0 62 62" fill="none" xmlns="http://www.w3.org/2000/svg">
<path d="M37 59V60C36.9984 60.5299 36.7872 61.0377 36.4125 61.4124C36.0377 61.7872 35.5299 61.9984 35 62H27C26.4701 61.9984 25.9623 61.7872 25.5875 61.4124C25.2128 61.0377 25.0016 60.5299 25 60V59L25.03 58.85C25.4253 58.9515 25.8319 59.0019 26.24 59H35.76C36.1681 59.0019 36.5747 58.9515 36.97 58.85L37 59Z" fill="#FFDF64"/>
<path d="M31 56C35.97 56 40 56 40 54V55.44C39.9498 56.2656 39.6238 57.0505 39.0744 57.6688C38.525 58.2871 37.784 58.703 36.97 58.85C36.5747 58.9515 36.1681 59.0019 35.76 59H26.24C25.8319 59.0019 25.4253 58.9515 25.03 58.85C24.216 58.703 23.475 58.2871 22.9256 57.6688C22.3762 57.0505 22.0502 56.2656 22 55.44V54C22 56 26.03 56 31 56Z" fill="#A9A599"/>
<path d="M22.03 50.91C23.2 51.44 25.69 52 31 52C36 52 38.5 51.5 39.75 51H40V54C40 56 35.97 56 31 56C26.03 56 22 56 22 54V51L22.03 50.91Z" fill="#D8D4C9"/>
<path d="M41.72 45L41 50C41 50 41 50.5 39.75 51C38.5 51.5 36 52 31 52C25.69 52 23.2 51.44 22.03 50.91C21 50.44 21 50 21 50L20.28 45H41.72Z" fill="#FFDF64"/>
<path d="M22.98 7.06006C22.83 7.81006 21.29 15.9901 25.76 21.7001C24.1758 22.9526 22.8593 24.5106 21.8887 26.2817C20.9181 28.0527 20.3133 30.0007 20.11 32.0101L20 32.0001C15.62 28.5001 14.31 21.1701 14.05 19.3901C14.9436 16.7231 16.3011 14.2349 18.06 12.0401C19.5223 10.2134 21.1712 8.54436 22.98 7.06006Z" fill="#AAF66F"/>
<path d="M27.0601 4.1C25.6439 5.00683 24.2816 5.99516 22.9801 7.06C21.1713 8.5443 19.5223 10.2133 18.0601 12.04L18.0001 12C14.5401 12.86 9.59006 17.47 8.31006 18.7C8.81544 14.7481 10.3924 11.0099 12.8701 7.89L13.0001 8C17.541 6.2605 22.2256 4.92206 27.0001 4L27.0601 4.1Z" fill="#85EE89"/>
<path d="M20.24 44.7C20.1689 44.1858 19.9972 43.6906 19.7347 43.2428C19.4722 42.795 19.124 42.4032 18.71 42.09C15.6278 39.8945 13.0692 37.0445 11.2176 33.7441C9.36605 30.4438 8.26728 26.7748 8.00003 23C7.99368 21.5609 8.09732 20.1233 8.31003 18.7C9.59003 17.47 14.54 12.86 18 12L18.06 12.04C16.3011 14.2348 14.9436 16.723 14.05 19.39C13.3482 21.5229 12.9937 23.7546 13 26C13 44.25 26 45 26 45H20.28L20.24 44.7Z" fill="#4EDFA6"/>
<path d="M12.87 7.89002C17.07 2.69002 23.63 1.84841e-05 31 1.84841e-05C32.1566 -0.0013086 33.3121 0.0688251 34.46 0.210019C32.9245 0.842567 31.4255 1.56035 29.97 2.36002C29.06 2.86002 28.08 3.44002 27.06 4.10002L27 4.00002C22.2255 4.92208 17.5409 6.26052 13 8.00002L12.87 7.89002Z" fill="#4EDFA6"/>
<path d="M22.94 41.42C24.3644 42.9464 26.0865 44.1648 28 45H26C26 45 13 44.25 13 26C12.9936 23.7547 13.3481 21.5229 14.05 19.39C14.31 21.17 15.62 28.5 20 32L20.11 32.01C20.0368 32.6708 20 33.3352 20 34C19.9795 36.7612 21.0339 39.4221 22.94 41.42Z" fill="#85EE89"/>
<path d="M29.97 2.35999C29.8235 4.81987 30.1797 7.28382 31.017 9.60145C31.8543 11.9191 33.1551 14.0418 34.84 15.84C32.1531 17.3235 29.5431 18.9423 27.02 20.69C26.59 21.01 26.17 21.35 25.76 21.7C21.29 15.99 22.83 7.80999 22.98 7.05999C24.2816 5.99515 25.6439 5.00682 27.06 4.09999C28.08 3.43999 29.06 2.85999 29.97 2.35999Z" fill="#85EE89"/>
<path d="M42 5.99996V6.35996C42.0168 7.60826 41.7616 8.84525 41.2522 9.98499C40.7427 11.1247 39.9913 12.1399 39.05 12.96C39.03 12.97 39.02 12.99 39 13C37.6895 14.0537 36.2986 15.0033 34.84 15.84C33.1551 14.0418 31.8542 11.9191 31.0169 9.60143C30.1796 7.28379 29.8234 4.81984 29.97 2.35996C31.4255 1.56029 32.9245 0.842509 34.46 0.209961H34.47C36.7276 0.47282 38.9383 1.04484 41.04 1.90996L41 1.99996C41.4959 3.2873 41.8317 4.6307 42 5.99996Z" fill="#AAF66F"/>
<path d="M34.84 15.84C36.2987 15.0033 37.6896 14.0538 39 13C39.02 12.99 39.03 12.97 39.05 12.96C39.9913 12.14 40.7428 11.1248 41.2522 9.98506C41.7617 8.84532 42.0168 7.60833 42 6.36003V6.00003C41.8318 4.63078 41.496 3.28738 41 2.00003L41.04 1.91003C48.71 5.10003 54 12.25 54 23C53.7328 26.7748 52.634 30.4438 50.7824 33.7442C48.9309 37.0445 46.3723 39.8945 43.29 42.09C42.8761 42.4033 42.5279 42.795 42.2654 43.2428C42.0029 43.6907 41.8312 44.1858 41.76 44.7L41.72 45H28C26.0866 44.1648 24.3645 42.9464 22.94 41.42C21.0339 39.4222 19.9796 36.7613 20 34C20.0001 33.3352 20.0368 32.6708 20.11 32.01C20.3133 30.0007 20.9181 28.0527 21.8887 26.2816C22.8593 24.5106 24.1758 22.9525 25.76 21.7C26.17 21.35 26.59 21.01 27.02 20.69C29.5431 18.9423 32.1531 17.3236 34.84 15.84Z" fill="#01CADB"/>
<path d="M37 59L36.97 58.85C36.5747 58.9515 36.1681 59.0019 35.76 59H26.24C25.8319 59.0019 25.4253 58.9515 25.03 58.85L25 59V60C25.0022 60.3522 25.0985 60.6975 25.279 61C25.4536 60.6976 25.7043 60.4461 26.0063 60.2707C26.3082 60.0952 26.6508 60.0019 27 60H35C35.3492 60.0019 35.6918 60.0952 35.9937 60.2707C36.2957 60.4461 36.5464 60.6976 36.721 61C36.9015 60.6975 36.9978 60.3522 37 60V59Z" fill="#FFB844"/>
<path d="M22.25 49C23.5 48.5 26 48 31 48C36.31 48 38.8 48.56 39.97 49.09C41 49.56 41 50 41 50L41.72 45H20.28L21 50C21 50 21 49.5 22.25 49Z" fill="#FFB844"/>
<path d="M27 37C21.058 22.144 45 18 45 10C45 5.54903 43.143 3.26903 41.495 2.11803C41.342 2.05003 41.195 1.97403 41.04 1.91003L41 2.00003C41.496 3.28738 41.8318 4.63078 42 6.00003V6.36003C42.0168 7.60833 41.7617 8.84532 41.2522 9.98506C40.7428 11.1248 39.9913 12.14 39.05 12.96C39.03 12.97 39.02 12.99 39 13C37.6896 14.0538 36.2987 15.0033 34.84 15.84C32.1531 17.3236 29.5431 18.9423 27.02 20.69C26.59 21.01 26.17 21.35 25.76 21.7C24.1758 22.9525 22.8593 24.5106 21.8887 26.2816C20.9181 28.0527 20.3133 30.0007 20.11 32.01C20.0368 32.6708 20.0001 33.3352 20 34C19.9796 36.7613 21.0339 39.4222 22.94 41.42C24.3645 42.9464 26.0866 44.1648 28 45H41.72L41.76 44.7C41.8312 44.1858 42.0029 43.6907 42.2654 43.2428C42.5279 42.795 42.8761 42.4033 43.29 42.09C43.49 41.942 43.677 41.79 43.869 41.64C35 42 29 42 27 37Z" fill="#01A2B0"/>
<path d="M15.522 25.158C16.3818 27.7953 17.9273 30.1566 20 32L20.11 32.01C20.3132 30.0007 20.9181 28.0527 21.8886 26.2816C22.8592 24.5105 24.1757 22.9525 25.76 21.7C24.3094 19.7795 23.3469 17.5356 22.955 15.161C21.0444 16.1617 19.384 17.5802 18.0972 19.3109C16.8103 21.0417 15.9301 23.0402 15.522 25.158Z" fill="#4EDFA6"/>
<path d="M13.5161 31.81C12.6152 31.7979 11.7387 31.5158 11.0001 31C10.4052 30.6707 9.86786 30.2468 9.40906 29.745C11.2189 34.6898 14.4555 38.9862 18.7091 42.09C19.123 42.4032 19.4712 42.795 19.7337 43.2428C19.9962 43.6906 20.1679 44.1858 20.2391 44.7L20.2791 45H26.0001C26.0001 45 15.9231 44.412 13.5161 31.81Z" fill="#37CDC2"/>
<path d="M15.522 25.158C14.755 28.719 15.122 31.593 13.516 31.81C15.923 44.412 26 45 26 45H28C26.0865 44.1647 24.3645 42.9463 22.94 41.42C21.0339 39.4221 19.9796 36.7612 20 34C20.0001 33.3351 20.0368 32.6708 20.11 32.01L20 32C17.9273 30.1565 16.3818 27.7952 15.522 25.158Z" fill="#35C4BA"/>
<path d="M32 12C28.8352 12.5627 25.7813 13.63 22.955 15.161C23.3469 17.5356 24.3094 19.7795 25.76 21.7C26.17 21.35 26.59 21.01 27.02 20.69C29.543 18.9423 32.153 17.3235 34.84 15.84C33.7278 14.6981 32.7867 13.4014 32.046 11.99L32 12Z" fill="#35C4BA"/>
<path d="M41 2.00002L41.04 1.91002C40.959 1.87602 40.873 1.85002 40.791 1.81702C40.991 6.64802 38.809 10.617 32.046 11.99C32.7868 13.4014 33.7279 14.6982 34.84 15.84C36.2986 15.0033 37.6896 14.0538 39 13C39.02 12.99 39.03 12.97 39.05 12.96C39.9913 12.14 40.7428 11.1248 41.2522 9.98504C41.7616 8.8453 42.0168 7.60831 42 6.36002V6.00002C41.8318 4.63076 41.4959 3.28736 41 2.00002Z" fill="#4EDFA6"/>
<path d="M27.06 4.1L27 4C22.2255 4.92206 17.5409 6.2605 13 8L12.87 7.89C12.1706 8.7593 11.5451 9.68552 11 10.659C15.0926 7.12413 20.2931 5.13272 25.7 5.03C26.152 4.712 26.611 4.387 27.06 4.1Z" fill="#85EE89"/>
<path d="M27 4.00002L27.06 4.10002C28.08 3.44002 29.06 2.86002 29.97 2.36002C31.4255 1.56035 32.9245 0.842567 34.46 0.210019C33.3121 0.0688251 32.1566 -0.0013086 31 1.84841e-05C23.63 1.84841e-05 17.07 2.69002 12.87 7.89002L13 8.00002C17.5409 6.26052 22.2255 4.92208 27 4.00002Z" fill="#C6FF79"/>
<path d="M30.029 5.16999C29.9328 4.23649 29.913 3.29669 29.97 2.35999C29.06 2.85999 28.08 3.43999 27.06 4.09999C26.611 4.38699 26.152 4.71199 25.694 5.02999C26.126 5.01099 26.562 4.99999 27 4.99999C28.012 5.00218 29.0231 5.05893 30.029 5.16999Z" fill="#AAF66F"/>
<path d="M30.029 5.16996C30.172 5.18596 30.318 5.19196 30.46 5.20996H30.47C32.7276 5.47282 34.9383 6.04484 37.04 6.90996C37.7786 7.22112 38.4997 7.57231 39.2 7.96196C40.4111 6.15287 40.973 3.98662 40.794 1.81696C40.876 1.84996 40.962 1.87596 41.043 1.90996C38.9413 1.04484 36.7306 0.47282 34.473 0.209961H34.463C32.9275 0.842509 31.4285 1.56029 29.973 2.35996C29.9151 3.29659 29.9338 4.23639 30.029 5.16996Z" fill="#C6FF79"/>
<path d="M54 23C54 12.467 48.915 5.40004 41.5 2.11804C43.143 3.26904 45 5.54904 45 10C44.9954 10.756 44.8418 11.5035 44.548 12.2C47.947 16.01 50 21.306 50 28C49.7548 32.0999 48.4709 36.07 46.269 39.537C50.8172 35.1811 53.5744 29.2833 54 23Z" fill="#89F2FF"/>
<path d="M42 6.00003V6.36003C41.998 7.39961 41.818 8.43116 41.468 9.41003C42.5896 10.2277 43.622 11.1611 44.548 12.195C44.8411 11.5001 44.9947 10.7543 45 10C45 5.54903 43.143 3.26903 41.495 2.11803C41.342 2.05103 41.195 1.97403 41.04 1.91003L41 2.00003C41.4959 3.28738 41.8318 4.63078 42 6.00003Z" fill="#01CADB"/>
<path d="M39.2 7.96202C39.9873 8.39535 40.7459 8.87902 41.471 9.41002C41.82 8.43097 41.9989 7.39942 42 6.36002V6.00002C41.8317 4.63076 41.4959 3.28736 41 2.00002L41.04 1.91002C40.959 1.87602 40.873 1.85002 40.791 1.81702C40.9708 3.98633 40.41 6.15255 39.2 7.96202Z" fill="#AAF66F"/>
<path d="M37 55.8V57C37 57.5304 36.7893 58.0391 36.4142 58.4142C36.0391 58.7893 35.5304 59 35 59H35.76C36.1681 59.0019 36.5747 58.9515 36.97 58.85C37.784 58.703 38.525 58.2871 39.0744 57.6688C39.6238 57.0505 39.9498 56.2656 40 55.44V54C40 55.071 38.837 55.566 37 55.8Z" fill="#C9C6BC"/>
<path d="M25 57V55.8C23.163 55.569 22 55.074 22 54V55.44C22.0502 56.2656 22.3762 57.0505 22.9256 57.6688C23.475 58.2871 24.216 58.703 25.03 58.85C25.4253 58.9515 25.8319 59.0019 26.24 59H27C26.4696 59 25.9609 58.7893 25.5858 58.4142C25.2107 58.0391 25 57.5304 25 57Z" fill="#8F8B81"/>
<path d="M25 55.8V51.659C23.9804 51.5466 22.981 51.2945 22.03 50.91L22 51V54C22 55.071 23.163 55.566 25 55.8Z" fill="#C9C6BC"/>
<path d="M39.75 51C38.8618 51.3244 37.939 51.5445 37 51.656V55.8C38.837 55.569 40 55.074 40 54V51H39.75Z" fill="#E8E4D8"/>
<path d="M6 24H1C0.734784 24 0.48043 23.8946 0.292893 23.7071C0.105357 23.5196 0 23.2652 0 23C0 22.7348 0.105357 22.4804 0.292893 22.2929C0.48043 22.1054 0.734784 22 1 22H6C6.26522 22 6.51957 22.1054 6.70711 22.2929C6.89464 22.4804 7 22.7348 7 23C7 23.2652 6.89464 23.5196 6.70711 23.7071C6.51957 23.8946 6.26522 24 6 24Z" fill="#FFDF64"/>
<path d="M61 24H56C55.7348 24 55.4804 23.8946 55.2929 23.7071C55.1054 23.5196 55 23.2652 55 23C55 22.7348 55.1054 22.4804 55.2929 22.2929C55.4804 22.1054 55.7348 22 56 22H61C61.2652 22 61.5196 22.1054 61.7071 22.2929C61.8946 22.4804 62 22.7348 62 23C62 23.2652 61.8946 23.5196 61.7071 23.7071C61.5196 23.8946 61.2652 24 61 24Z" fill="#FFDF64"/>
<path d="M11.26 6.26004C10.9948 6.25998 10.7405 6.15459 10.553 5.96704L6.29304 1.70704C6.11088 1.51844 6.01009 1.26584 6.01237 1.00364C6.01465 0.741443 6.11981 0.49063 6.30522 0.305222C6.49063 0.119814 6.74144 0.0146453 7.00364 0.0123669C7.26584 0.0100885 7.51844 0.110883 7.70704 0.293041L11.967 4.55304C12.1069 4.69289 12.2021 4.87106 12.2406 5.06501C12.2792 5.25896 12.2594 5.46 12.1837 5.6427C12.108 5.8254 11.9799 5.98156 11.8155 6.09144C11.6511 6.20133 11.4578 6.26 11.26 6.26004Z" fill="#FFDF64"/>
<path d="M53 46C52.7348 46 52.4805 45.8946 52.293 45.707L48.033 41.447C47.8509 41.2584 47.7501 41.0058 47.7524 40.7436C47.7546 40.4814 47.8598 40.2306 48.0452 40.0452C48.2306 39.8598 48.4814 39.7546 48.7436 39.7524C49.0058 39.7501 49.2584 39.8509 49.447 40.033L53.707 44.293C53.8468 44.4329 53.942 44.611 53.9806 44.805C54.0192 44.999 53.9994 45.2 53.9237 45.3827C53.848 45.5654 53.7199 45.7215 53.5555 45.8314C53.3911 45.9413 53.1978 46 53 46Z" fill="#FFDF64"/>
<path d="M50.74 6.26004C50.5423 6.26 50.349 6.20133 50.1846 6.09144C50.0202 5.98156 49.892 5.8254 49.8163 5.6427C49.7407 5.46 49.7209 5.25896 49.7594 5.06501C49.798 4.87106 49.8932 4.69289 50.033 4.55304L54.293 0.293041C54.4816 0.110883 54.7342 0.0100885 54.9964 0.0123669C55.2586 0.0146453 55.5094 0.119814 55.6948 0.305222C55.8803 0.49063 55.9854 0.741443 55.9877 1.00364C55.99 1.26584 55.8892 1.51844 55.707 1.70704L51.447 5.96704C51.2595 6.15459 51.0052 6.25998 50.74 6.26004Z" fill="#FFDF64"/>
<path d="M9.00003 46.0001C8.80228 46 8.60898 45.9414 8.44457 45.8315C8.28016 45.7216 8.15202 45.5654 8.07635 45.3827C8.00068 45.2 7.98088 44.999 8.01945 44.805C8.05802 44.6111 8.15322 44.4329 8.29303 44.2931L12.553 40.0331C12.6453 39.9376 12.7556 39.8614 12.8776 39.809C12.9996 39.7566 13.1309 39.729 13.2636 39.7278C13.3964 39.7267 13.5281 39.752 13.651 39.8022C13.7739 39.8525 13.8855 39.9268 13.9794 40.0207C14.0733 40.1146 14.1476 40.2262 14.1979 40.3491C14.2481 40.472 14.2734 40.6037 14.2723 40.7365C14.2711 40.8693 14.2435 41.0005 14.1911 41.1225C14.1387 41.2445 14.0625 41.3548 13.967 41.4471L9.70703 45.7071C9.51954 45.8946 9.26523 46 9.00003 46.0001Z" fill="#FFDF64"/>
<path d="M31.3017 37.3106C31.9427 36.6692 31.7384 35.4257 30.8453 34.5333C29.9523 33.6409 28.7087 33.4374 28.0676 34.0789C27.4266 34.7203 27.6309 35.9638 28.524 36.8562C29.417 37.7487 30.6606 37.9521 31.3017 37.3106Z" fill="#F6FAFD"/>
<path d="M29.4942 32.5188C29.8163 32.1965 29.7138 31.5719 29.2653 31.1237C28.8169 30.6755 28.1922 30.5735 27.8701 30.8958C27.5481 31.2181 27.6506 31.8427 28.099 32.2908C28.5475 32.739 29.1722 32.841 29.4942 32.5188Z" fill="#F6FAFD"/>
<path d="M30.3329 2.59297C31.7057 1.84596 33.117 1.17203 34.5609 0.573968L34.6129 0.556968C34.9409 0.420968 35.1249 0.356968 35.1289 0.356968C35.1479 0.34812 35.1657 0.337041 35.1819 0.323968C34.9439 0.288968 34.7099 0.243968 34.4699 0.214968H34.4599C34.1989 0.182968 33.9319 0.166968 33.6689 0.141968C32.6769 0.567968 31.3459 1.18497 29.7899 2.03597C28.8899 2.53097 27.9829 3.07397 27.0899 3.64397C27.0398 3.63041 26.9874 3.62735 26.9359 3.63497C22.2465 4.54398 17.6426 5.84933 13.1739 7.53697C13.0739 7.65597 12.9679 7.76897 12.8739 7.88997C12.8039 7.97597 12.7409 8.06897 12.6739 8.15597C12.7024 8.21925 12.7481 8.27329 12.8057 8.31199C12.8633 8.35069 12.9306 8.37251 12.9999 8.37497C13.045 8.37478 13.0897 8.36665 13.1319 8.35097C17.1815 6.82405 21.3364 5.59249 25.5639 4.66597C24.6499 5.29897 23.7469 5.96597 22.8729 6.66597C22.8042 6.69173 22.7454 6.73865 22.7049 6.79997C20.9484 8.24756 19.3405 9.86655 17.9049 11.633C14.6649 12.439 10.1869 16.41 8.41594 18.076C8.37994 18.284 8.33694 18.486 8.30594 18.697C8.27694 18.883 8.26694 19.081 8.24194 19.27C8.24794 19.27 8.25594 19.27 8.26094 19.262C8.26594 19.254 8.37094 19.153 8.56094 18.968C9.82694 17.751 13.8989 13.994 17.1169 12.688C15.6379 14.69 14.48 16.9103 13.6849 19.269L13.6789 19.29C12.973 21.4564 12.6172 23.7215 12.6249 26C12.6249 34.278 15.3039 39.021 18.2619 41.742C18.4119 41.858 18.5559 41.975 18.7099 42.09C18.878 42.2207 19.0348 42.3652 19.1789 42.522C20.6393 43.6547 22.3038 44.496 24.0819 45H26.3709C26.3714 44.9048 26.3356 44.813 26.2707 44.7433C26.2059 44.6737 26.1169 44.6313 26.0219 44.625C25.5059 44.6 13.3749 43.663 13.3749 26C13.3729 24.3334 13.5706 22.6725 13.9639 21.053C14.5829 24.061 16.1469 29.401 19.7639 32.293C19.8303 32.3462 19.9129 32.3751 19.9979 32.375C20.0255 32.372 20.0527 32.3659 20.0789 32.357C20.0889 32.242 20.0949 32.122 20.1079 32.01C20.1209 31.898 20.1489 31.771 20.1649 31.647C15.9789 28.234 14.6779 21.056 14.4329 19.43C15.3146 16.8349 16.6407 14.4128 18.3519 12.272C19.584 10.7346 20.9537 9.3127 22.4439 8.02397C22.0999 10.6 21.6999 17.117 25.4669 21.935L25.4819 21.953C25.5759 21.87 25.6639 21.781 25.7599 21.7C25.8559 21.619 25.9599 21.546 26.0529 21.466C21.8909 16.145 23.0759 8.58597 23.3219 7.26597C24.5811 6.24081 25.8972 5.28762 27.2639 4.41097C28.0249 3.91897 28.7979 3.45697 29.5639 3.01797C29.464 7.83328 31.2372 12.4994 34.5099 16.033C34.6189 15.969 34.7319 15.905 34.8399 15.84L35.1689 15.64L35.1079 15.579C33.4875 13.8414 32.2304 11.7976 31.4105 9.56764C30.5905 7.33768 30.2242 4.96641 30.3329 2.59297Z" fill="#DAFFA8"/>
<path d="M46.128 15.481C45.9327 16.7412 46.0906 18.031 46.584 19.207C46.9994 20.7018 47.2172 22.2446 47.232 23.796C47.1836 24.6542 47.2448 25.5152 47.414 26.358C47.559 26.9825 47.9399 27.5268 48.477 27.877C48.7617 27.9802 49.0701 27.9998 49.3656 27.9336C49.6611 27.8673 49.9316 27.7179 50.145 27.503C50.4454 27.2622 50.7109 26.9808 50.934 26.667C51.5779 25.5567 51.9295 24.3012 51.956 23.018C52.0701 21.7224 51.9636 20.4169 51.641 19.157C51.122 17.15 49.65 13.709 47.326 14.02C46.688 14.105 46.316 14.846 46.128 15.481Z" fill="white"/>
<path d="M43.041 34.142C43.359 35.483 45.163 34.967 46.062 34.496C47.0879 33.9159 47.9321 33.0617 48.5 32.029C48.7863 31.5856 48.9581 31.0781 49 30.552C49.0336 30.255 48.9774 29.9547 48.8385 29.6899C48.6996 29.4252 48.4845 29.2082 48.221 29.067C47.4808 28.9599 46.728 29.1442 46.121 29.581C45.5215 29.9673 44.9798 30.4367 44.512 30.975C43.9394 31.5428 43.4829 32.2167 43.168 32.959C43.011 33.3325 42.9669 33.7437 43.041 34.142Z" fill="white"/>
</svg>
