<svg width="82" height="55" viewBox="0 0 82 55" fill="none" xmlns="http://www.w3.org/2000/svg">
<path d="M0 0H82V55H0V0ZM41 13.75C44.6246 13.75 48.1008 15.1987 50.6638 17.7773C53.2268 20.3559 54.6667 23.8533 54.6667 27.5C54.6667 31.1467 53.2268 34.6441 50.6638 37.2227C48.1008 39.8013 44.6246 41.25 41 41.25C37.3754 41.25 33.8992 39.8013 31.3362 37.2227C28.7732 34.6441 27.3333 31.1467 27.3333 27.5C27.3333 23.8533 28.7732 20.3559 31.3362 17.7773C33.8992 15.1987 37.3754 13.75 41 13.75ZM18.2222 9.16667C18.2222 11.5978 17.2623 13.9294 15.5536 15.6485C13.845 17.3676 11.5275 18.3333 9.11111 18.3333V36.6667C11.5275 36.6667 13.845 37.6324 15.5536 39.3515C17.2623 41.0706 18.2222 43.4022 18.2222 45.8333H63.7778C63.7778 43.4022 64.7377 41.0706 66.4464 39.3515C68.155 37.6324 70.4725 36.6667 72.8889 36.6667V18.3333C70.4725 18.3333 68.155 17.3676 66.4464 15.6485C64.7377 13.9294 63.7778 11.5978 63.7778 9.16667H18.2222Z" fill="#7B017D"/>
</svg>
