<svg width="102" height="96" viewBox="0 0 102 96" fill="none" xmlns="http://www.w3.org/2000/svg">
<path d="M34.36 70.5712L33.5475 70.1812L33.71 70.0675C34.0149 69.8598 34.2254 69.5399 34.2954 69.1776C34.3654 68.8154 34.2893 68.4401 34.0837 68.1337C33.876 67.8288 33.5561 67.6183 33.1939 67.5483C32.8316 67.4783 32.4564 67.5544 32.15 67.76L31.2887 68.3287L30.6387 68.7837L28.3312 67.6462L30.46 66.2L31.1587 66.5412L32.2475 67.0775C32.5664 67.1748 32.9095 67.1549 33.215 67.0214C33.5205 66.8878 33.7682 66.6495 33.9134 66.3493C34.0586 66.0492 34.0917 65.707 34.0067 65.3846C33.9217 65.0622 33.7242 64.7808 33.45 64.5912L33.125 64.3962L33.8725 63.8925C34.1774 63.6848 34.3879 63.3649 34.4579 63.0027C34.5279 62.6404 34.4518 62.2651 34.2462 61.9587C34.0385 61.6538 33.7186 61.4433 33.3564 61.3733C32.9941 61.3033 32.6189 61.3794 32.3125 61.585L31.565 62.0887V61.8937C31.5359 61.5257 31.3624 61.1841 31.0822 60.9435C30.8021 60.703 30.4382 60.5831 30.07 60.61C29.8877 60.6202 29.7093 60.6669 29.5453 60.7473C29.3814 60.8277 29.2352 60.9401 29.1155 61.078C28.9958 61.2159 28.905 61.3764 28.8484 61.55C28.7919 61.7236 28.7707 61.9068 28.7862 62.0887V63.1125V63.8925L26.6412 65.355L26.625 62.7712L27.275 62.3325L28.25 61.65C28.5517 61.4345 28.7554 61.108 28.8163 60.7423C28.8773 60.3766 28.7905 60.0017 28.575 59.7C28.3595 59.3983 28.033 59.1946 27.6673 59.1336C27.3016 59.0727 26.9267 59.1595 26.625 59.375L26.3162 59.6025V58.6925C26.2871 58.3244 26.1136 57.9828 25.8335 57.7423C25.5534 57.5018 25.1895 57.3818 24.8212 57.4087C24.6382 57.421 24.4594 57.4697 24.2954 57.5518C24.1314 57.6339 23.9854 57.7479 23.8658 57.887C23.7463 58.0262 23.6558 58.1878 23.5994 58.3624C23.543 58.5369 23.5219 58.721 23.5375 58.9037V59.7975L23.375 59.6837C23.2088 59.5832 23.0235 59.5185 22.8309 59.4936C22.6383 59.4687 22.4426 59.4842 22.2564 59.5391C22.0701 59.5941 21.8973 59.6872 21.7491 59.8127C21.6008 59.9381 21.4803 60.0931 21.3953 60.2676C21.3103 60.4422 21.2626 60.6326 21.2552 60.8267C21.2479 61.0208 21.2811 61.2142 21.3527 61.3947C21.4243 61.5753 21.5327 61.7389 21.671 61.8752C21.8094 62.0114 21.9746 62.1174 22.1562 62.1862L23.0825 62.625L23.7812 62.9662L23.9762 65.55L21.75 64.4287V63.6487L21.6687 62.43C21.5959 62.1021 21.4088 61.8108 21.1408 61.6084C20.8728 61.4059 20.5415 61.3054 20.2062 61.325C19.8706 61.3482 19.5551 61.4931 19.3187 61.7324C19.0823 61.9718 18.9415 62.2892 18.9225 62.625V62.9987L17.9475 62.625C17.7832 62.546 17.6049 62.5002 17.4229 62.4902C17.2408 62.4801 17.0586 62.506 16.8866 62.5663C16.7146 62.6267 16.5561 62.7203 16.4203 62.8419C16.2845 62.9635 16.1739 63.1107 16.095 63.275C16.016 63.4393 15.9702 63.6176 15.9601 63.7996C15.9501 63.9816 15.9759 64.1638 16.0363 64.3359C16.0967 64.5079 16.1903 64.6663 16.3119 64.8022C16.4335 64.938 16.5807 65.0485 16.745 65.1275L17.5575 65.5337L17.395 65.6312C17.2435 65.7379 17.1144 65.8734 17.0153 66.03C16.9161 66.1866 16.8488 66.3611 16.8171 66.5437C16.7854 66.7263 16.79 66.9133 16.8306 67.0941C16.8712 67.2749 16.947 67.446 17.0537 67.5975C17.1604 67.749 17.2959 67.878 17.4525 67.9772C17.609 68.0763 17.7836 68.1437 17.9662 68.1753C18.1488 68.207 18.3358 68.2024 18.5166 68.1619C18.6974 68.1213 18.8685 68.0454 19.02 67.9387L19.865 67.37L20.515 66.9312L22.8387 68.0525L20.6937 69.4987L19.93 69.125L18.8412 68.605C18.5223 68.5077 18.1791 68.5276 17.8736 68.6611C17.5681 68.7947 17.3204 69.033 17.1753 69.3332C17.0301 69.6333 16.997 69.9755 17.082 70.2979C17.167 70.6203 17.3645 70.9017 17.6387 71.0912L17.9962 71.2537L17.2325 71.7737C16.9286 71.9892 16.7228 72.3166 16.6604 72.6838C16.5979 73.051 16.6839 73.428 16.8993 73.7319C17.1148 74.0357 17.4422 74.2415 17.8094 74.304C18.1766 74.3664 18.5536 74.2805 18.8575 74.065L19.605 73.5612V73.7562C19.6153 73.9392 19.6619 74.1183 19.7421 74.283C19.8223 74.4478 19.9344 74.595 20.0721 74.716C20.2097 74.837 20.37 74.9294 20.5437 74.9878C20.7174 75.0462 20.9009 75.0695 21.0837 75.0562C21.4531 75.0271 21.7963 74.8541 22.0394 74.5745C22.2825 74.295 22.4062 73.9311 22.3837 73.5612V72.5375V71.7575L24.5287 70.3112L24.7237 72.8787L24.0737 73.3175L23.0662 74C22.8181 74.2268 22.659 74.5346 22.6173 74.8681C22.5756 75.2016 22.6541 75.5391 22.8387 75.82C23.03 76.096 23.3143 76.2939 23.6396 76.3774C23.9649 76.461 24.3093 76.4246 24.61 76.275L24.935 76.0637V76.9575C24.9326 77.1507 24.9704 77.3422 25.0458 77.5201C25.1213 77.6979 25.2328 77.8582 25.3733 77.9908C25.5138 78.1233 25.6802 78.2253 25.8621 78.2903C26.0441 78.3553 26.2375 78.3819 26.4302 78.3684C26.6229 78.3549 26.8107 78.3015 26.9818 78.2118C27.1528 78.122 27.3034 77.9977 27.424 77.8468C27.5446 77.6959 27.6327 77.5217 27.6825 77.335C27.7324 77.1484 27.743 76.9534 27.7137 76.7625V75.8525L27.8925 75.95C28.2231 76.0868 28.5936 76.0916 28.9277 75.9634C29.2617 75.8352 29.5339 75.5837 29.6881 75.2608C29.8422 74.9379 29.8667 74.5682 29.7563 74.2278C29.646 73.8874 29.4093 73.6023 29.095 73.4312L28.185 72.9925L27.47 72.6512L27.2912 70.0837L29.615 71.205V71.985L29.7125 73.1875C29.7754 73.5173 29.9577 73.8124 30.2245 74.0162C30.4914 74.2201 30.8239 74.3184 31.1587 74.2925C31.496 74.2697 31.8136 74.1254 32.0526 73.8864C32.2916 73.6473 32.4359 73.3298 32.4587 72.9925V72.6025L33.2712 72.9925C33.5842 73.1174 33.9321 73.1236 34.2494 73.0099C34.5666 72.8962 34.8314 72.6703 34.9937 72.375C35.137 72.0501 35.1513 71.6828 35.0335 71.3478C34.9158 71.0128 34.675 70.7351 34.36 70.5712Z" fill="#0095E8"/>
<path d="M59.125 86.9999L58.3125 86.6099L58.475 86.4962C58.7799 86.2885 58.9903 85.9686 59.0604 85.6063C59.1304 85.2441 59.0543 84.8688 58.8487 84.5624C58.7473 84.4097 58.6165 84.2787 58.4639 84.1771C58.3114 84.0754 58.1401 84.0052 57.9601 83.9704C57.7802 83.9356 57.595 83.937 57.4156 83.9744C57.2362 84.0119 57.066 84.0848 56.915 84.1887L56.0537 84.7574L55.4037 85.1962L53.0962 84.0749L55.225 82.6287L55.9237 82.9699L57.0125 83.4899C57.3314 83.5873 57.6745 83.5673 57.98 83.4338C58.2855 83.3003 58.5332 83.0619 58.6784 82.7618C58.8236 82.4616 58.8566 82.1195 58.7717 81.7971C58.6867 81.4747 58.4892 81.1933 58.215 81.0037L57.8737 80.8412L58.6212 80.3374C58.9262 80.1297 59.1366 79.8099 59.2066 79.4476C59.2766 79.0853 59.2005 78.7101 58.9949 78.4037C58.8935 78.251 58.7628 78.12 58.6102 78.0183C58.4576 77.9167 58.2864 77.8464 58.1064 77.8116C57.9264 77.7768 57.7413 77.7782 57.5618 77.8157C57.3824 77.8532 57.2122 77.926 57.0612 78.0299L56.3137 78.5337V78.3387C56.316 78.1455 56.2783 77.954 56.2028 77.7761C56.1274 77.5983 56.0159 77.438 55.8754 77.3054C55.7349 77.1728 55.5684 77.0708 55.3865 77.0058C55.2046 76.9408 55.0112 76.9143 54.8185 76.9278C54.6258 76.9413 54.438 76.9946 54.2669 77.0844C54.0958 77.1742 53.9453 77.2984 53.8246 77.4493C53.704 77.6002 53.616 77.7745 53.5662 77.9612C53.5163 78.1478 53.5057 78.3427 53.535 78.5337V79.5574V80.3374L51.39 81.7837L51.2112 79.2162L51.8612 78.7774L52.8525 78.0949C53.1161 77.8756 53.2888 77.566 53.3368 77.2263C53.3847 76.8867 53.3046 76.5414 53.112 76.2575C52.9194 75.9737 52.6281 75.7717 52.2948 75.6908C51.9615 75.6099 51.61 75.656 51.3087 75.8199L51 76.0474V75.1374C50.9709 74.7694 50.7973 74.4278 50.5172 74.1872C50.2371 73.9467 49.8732 73.8268 49.505 73.8537C49.3226 73.8639 49.1442 73.9106 48.9803 73.991C48.8164 74.0714 48.6702 74.1838 48.5505 74.3217C48.4308 74.4596 48.34 74.6201 48.2834 74.7937C48.2269 74.9673 48.2057 75.1505 48.2212 75.3324V76.2424L48.0425 76.1449C47.7078 75.9873 47.3248 75.967 46.9754 76.0886C46.6261 76.2101 46.3382 76.4637 46.1737 76.7949C46.016 77.1296 45.9958 77.5126 46.1173 77.862C46.2388 78.2113 46.4924 78.4991 46.8237 78.6637L47.75 79.1024L48.4487 79.4437L48.6437 82.0274L46.32 80.8899V80.1099V78.9074C46.2472 78.5796 46.06 78.2883 45.792 78.0858C45.5241 77.8833 45.1928 77.7829 44.8575 77.8024C44.5219 77.8257 44.2063 77.9705 43.9699 78.2099C43.7336 78.4492 43.5927 78.7666 43.5737 79.1024V79.4924L42.745 79.1024C42.4131 78.943 42.0315 78.9219 41.6841 79.0438C41.3367 79.1657 41.0519 79.4206 40.8925 79.7524C40.733 80.0843 40.7119 80.4659 40.8338 80.8133C40.9557 81.1607 41.2106 81.4455 41.5425 81.6049L42.355 81.9949L42.1925 82.1087C42.0397 82.2101 41.9087 82.3409 41.8071 82.4934C41.7054 82.646 41.6352 82.8173 41.6004 82.9972C41.5656 83.1772 41.567 83.3624 41.6045 83.5418C41.6419 83.7212 41.7148 83.8914 41.8187 84.0424C42.0264 84.3474 42.3463 84.5578 42.7086 84.6279C43.0708 84.6979 43.4461 84.6218 43.7525 84.4162L44.5 83.7499L45.15 83.3112L47.4737 84.4324L45.3287 85.8787L44.63 85.5374L43.5412 85.0012C43.2223 84.9039 42.8791 84.9238 42.5736 85.0573C42.2681 85.1909 42.0204 85.4292 41.8753 85.7294C41.7301 86.0295 41.697 86.3717 41.782 86.6941C41.867 87.0165 42.0644 87.2979 42.3387 87.4874L42.6962 87.6499L41.9325 88.1537C41.6265 88.3692 41.4186 88.6974 41.3546 89.0661C41.2906 89.4349 41.3757 89.8139 41.5912 90.1199C41.8067 90.4259 42.1349 90.6338 42.5037 90.6978C42.8724 90.7618 43.2515 90.6767 43.5575 90.4612L44.305 89.9574V90.2499C44.3152 90.4322 44.3618 90.6107 44.4422 90.7746C44.5226 90.9385 44.6351 91.0847 44.773 91.2044C44.9109 91.3241 45.0714 91.4149 45.245 91.4715C45.4186 91.528 45.6018 91.5492 45.7837 91.5337C46.1517 91.5086 46.4948 91.3391 46.7383 91.0621C46.9819 90.7851 47.106 90.4231 47.0837 90.0549L47.0025 89.0312V88.2512L49.1475 86.8049L49.3262 89.3724L48.6925 89.8112L47.685 90.4937C47.4369 90.7205 47.2777 91.0283 47.236 91.3618C47.1943 91.6953 47.2728 92.0328 47.4575 92.3137C47.6488 92.5897 47.9331 92.7876 48.2583 92.8711C48.5836 92.9547 48.9281 92.9183 49.2287 92.7687L49.5537 92.5412V93.4512C49.5639 93.6335 49.6106 93.8119 49.691 93.9758C49.7714 94.1398 49.8838 94.2859 50.0217 94.4056C50.1596 94.5253 50.3201 94.6162 50.4937 94.6727C50.6673 94.7293 50.8505 94.7504 51.0325 94.7349C51.2161 94.7226 51.3956 94.674 51.5604 94.5921C51.7253 94.5102 51.8723 94.3965 51.9931 94.2576C52.1139 94.1187 52.2061 93.9573 52.2643 93.7826C52.3226 93.608 52.3457 93.4236 52.3325 93.2399V92.3462H52.5112C52.6755 92.4251 52.8538 92.471 53.0358 92.481C53.2178 92.4911 53.4001 92.4652 53.5721 92.4049C53.7441 92.3445 53.9025 92.2508 54.0384 92.1293C54.1742 92.0077 54.2847 91.8605 54.3637 91.6962C54.4427 91.5319 54.4885 91.3536 54.4985 91.1716C54.5086 90.9896 54.4827 90.8073 54.4224 90.6353C54.362 90.4633 54.2684 90.3049 54.1468 90.169C54.0252 90.0332 53.878 89.9226 53.7137 89.8437L52.8037 89.4049L52.0887 89.0637L51.91 86.4799L54.2337 87.6174V88.3812L54.3312 89.5999C54.4003 89.9307 54.587 90.2253 54.8566 90.429C55.1262 90.6328 55.4605 90.7319 55.7976 90.7081C56.1347 90.6843 56.4517 90.5392 56.69 90.2996C56.9283 90.06 57.0717 89.7422 57.0937 89.4049V89.0312L57.9062 89.4212C58.0699 89.5034 58.2485 89.5517 58.4314 89.5634C58.6142 89.5751 58.7975 89.5498 58.9703 89.4892C59.1432 89.4285 59.3021 89.3337 59.4375 89.2104C59.573 89.087 59.6822 88.9376 59.7587 88.7712C59.8964 88.4505 59.9075 88.0896 59.79 87.761C59.6724 87.4324 59.4348 87.1605 59.125 86.9999Z" fill="#0095E8"/>
<path d="M85.2712 71.2212L84.4424 70.8312L84.6049 70.7175C84.7577 70.6161 84.8887 70.4853 84.9903 70.3327C85.092 70.1802 85.1622 70.0089 85.197 69.8289C85.2318 69.6489 85.2304 69.4638 85.1929 69.2844C85.1555 69.1049 85.0826 68.9347 84.9787 68.7837C84.771 68.4788 84.4511 68.2683 84.0888 68.1983C83.7266 68.1283 83.3513 68.2044 83.0449 68.41L82.1999 68.995L81.5499 69.4337L79.2262 68.2962L81.3712 66.85L82.0699 67.1912L83.1587 67.7275C83.4793 67.8334 83.8274 67.8196 84.1386 67.6888C84.4499 67.5579 84.7032 67.3188 84.8518 67.0156C85.0004 66.7124 85.0343 66.3657 84.9471 66.0395C84.8598 65.7134 84.6575 65.4298 84.3774 65.2412L84.0362 65.0625L84.7837 64.5587C84.9338 64.4548 85.0619 64.3221 85.1604 64.1684C85.259 64.0146 85.3261 63.8429 85.3578 63.6631C85.3895 63.4832 85.3853 63.2989 85.3453 63.1207C85.3053 62.9425 85.2304 62.774 85.1249 62.625C84.9172 62.32 84.5974 62.1096 84.2351 62.0396C83.8728 61.9695 83.4976 62.0456 83.1912 62.2512L82.4437 62.755V62.625C82.4309 62.4436 82.3825 62.2665 82.3012 62.1038C82.22 61.9411 82.1075 61.7961 81.9702 61.6769C81.8329 61.5576 81.6734 61.4666 81.5009 61.4091C81.3285 61.3515 81.1463 61.3284 80.9649 61.3412C80.7835 61.354 80.6065 61.4024 80.4438 61.4837C80.2811 61.5649 80.136 61.6774 80.0168 61.8147C79.8976 61.952 79.8066 62.1115 79.749 62.284C79.6914 62.4565 79.6684 62.6386 79.6812 62.82V63.8437V64.6237L77.5524 66.0862L77.3737 63.5025L78.0074 63.0637L79.0149 62.3812C79.263 62.1544 79.4222 61.8467 79.4639 61.5131C79.5056 61.1796 79.4271 60.8421 79.2424 60.5612C79.0535 60.2825 78.7703 60.0813 78.4449 59.9947C78.1194 59.9081 77.7737 59.9419 77.4712 60.09L77.1462 60.3012V59.3912C77.1323 59.2098 77.0829 59.033 77.0006 58.8707C76.9184 58.7084 76.805 58.5639 76.6669 58.4455C76.5289 58.327 76.3688 58.2369 76.1959 58.1803C76.0231 58.1237 75.8407 58.1017 75.6593 58.1156C75.4779 58.1295 75.301 58.1789 75.1388 58.2612C74.9765 58.3434 74.832 58.4568 74.7136 58.5949C74.5951 58.7329 74.505 58.893 74.4484 59.0659C74.3918 59.2388 74.3698 59.4211 74.3837 59.6025V60.4962H74.1887C73.8626 60.3726 73.5021 60.3753 73.178 60.5039C72.8538 60.6324 72.5894 60.8775 72.4368 61.191C72.2841 61.5046 72.2541 61.8638 72.3528 62.1983C72.4514 62.5328 72.6716 62.8183 72.9699 62.9987L73.8962 63.4375L74.6112 63.7787L74.7899 66.3625L72.4662 65.2412V64.4612L72.3687 63.2425C72.2996 62.9117 72.1129 62.6172 71.8433 62.4134C71.5737 62.2097 71.2394 62.1105 70.9023 62.1343C70.5652 62.1581 70.2482 62.3032 70.0099 62.5428C69.7716 62.7824 69.6282 63.1003 69.6062 63.4375V63.8112L68.8749 63.275C68.5489 63.1513 68.1884 63.1541 67.8642 63.2826C67.5401 63.4112 67.2757 63.6563 67.123 63.9698C66.9703 64.2833 66.9404 64.6426 67.039 64.977C67.1377 65.3115 67.3578 65.597 67.6562 65.7775L68.4687 66.1837L68.3062 66.2812C68.0035 66.4946 67.7954 66.8171 67.7257 67.1808C67.656 67.5445 67.7301 67.9211 67.9324 68.2312C68.0351 68.3827 68.1669 68.5122 68.32 68.6123C68.4732 68.7124 68.6447 68.781 68.8246 68.8143C69.0045 68.8476 69.1892 68.8447 69.368 68.806C69.5468 68.7673 69.7162 68.6934 69.8662 68.5887L70.7274 68.02L71.3612 67.5812L73.6849 68.7025L71.5562 70.1487L70.8574 69.8075L69.7687 69.2875C69.4589 69.1954 69.1266 69.2149 68.8297 69.3426C68.5327 69.4703 68.29 69.698 68.1437 69.9862C67.9972 70.2905 67.9659 70.6376 68.0555 70.9632C68.1451 71.2888 68.3496 71.571 68.6312 71.7575L68.9724 71.92L68.2249 72.44C68.0745 72.5467 67.9465 72.682 67.8484 72.8381C67.7502 72.9943 67.6838 73.1682 67.6528 73.3501C67.6219 73.5319 67.6271 73.718 67.6681 73.8978C67.7091 74.0777 67.7851 74.2477 67.8918 74.3981C67.9985 74.5485 68.1338 74.6765 68.29 74.7747C68.4461 74.8728 68.6201 74.9393 68.8019 74.9702C68.9837 75.0011 69.1699 74.996 69.3497 74.955C69.5295 74.914 69.6995 74.8379 69.8499 74.7312L70.5974 74.2275V74.4225C70.5951 74.6156 70.6329 74.8072 70.7083 74.985C70.7837 75.1629 70.8952 75.3232 71.0357 75.4557C71.1762 75.5883 71.3427 75.6903 71.5246 75.7553C71.7065 75.8203 71.9 75.8469 72.0927 75.8334C72.2854 75.8199 72.4732 75.7665 72.6442 75.6768C72.8153 75.587 72.9659 75.4627 73.0865 75.3118C73.2071 75.1609 73.2951 74.9867 73.345 74.8C73.3948 74.6134 73.4055 74.4184 73.3762 74.2275V73.2037V72.4237L75.5212 70.9775L75.3749 73.5775L74.7249 74.0162L73.7337 74.6987C73.47 74.9181 73.2974 75.2277 73.2494 75.5674C73.2014 75.907 73.2815 76.2523 73.4741 76.5361C73.6667 76.82 73.958 77.022 74.2913 77.1029C74.6247 77.1838 74.9762 77.1377 75.2774 76.9737L75.5862 76.7625V77.6562C75.6153 78.0256 75.7883 78.3688 76.0679 78.6119C76.3475 78.855 76.7114 78.9787 77.0812 78.9562C77.4493 78.9272 77.7909 78.7536 78.0314 78.4735C78.2719 78.1934 78.3918 77.8295 78.3649 77.4612V76.5512L78.5599 76.6487C78.8922 76.8057 79.2728 76.8255 79.6196 76.7038C79.9663 76.5822 80.2511 76.3288 80.4124 75.9987C80.4946 75.835 80.543 75.6564 80.5547 75.4736C80.5663 75.2908 80.5411 75.1074 80.4804 74.9346C80.4198 74.7617 80.325 74.6028 80.2016 74.4674C80.0783 74.332 79.9289 74.2227 79.7624 74.1462L78.8362 73.6912L78.1374 73.35L78.0237 70.75L80.3312 71.8712V72.6512V73.8537C80.3841 74.1964 80.5639 74.5066 80.8349 74.7228C81.1059 74.939 81.4483 75.0454 81.7941 75.0208C82.1399 74.9963 82.4639 74.8426 82.7016 74.5902C82.9394 74.3379 83.0735 74.0054 83.0774 73.6587V73.2687L83.9062 73.675C84.2402 73.8366 84.6247 73.8589 84.9752 73.737C85.3256 73.6151 85.6133 73.359 85.7749 73.025C85.9366 72.691 85.9589 72.3064 85.837 71.956C85.7151 71.6055 85.4589 71.3178 85.1249 71.1562L85.2712 71.2212Z" fill="#0095E8"/>
<path d="M97.605 47.4312C97.1828 48.0574 96.6109 48.5683 95.9412 48.9173C95.2714 49.2664 94.5251 49.4426 93.77 49.43H8.26249C7.48221 49.4393 6.71256 49.2486 6.02697 48.8759C5.34138 48.5033 4.76273 47.9611 4.34624 47.3012C2.58103 44.4328 1.64716 41.1305 1.64874 37.7625C1.64366 36.6339 1.74705 35.5075 1.95749 34.3987C2.72792 30.2185 4.93722 26.4397 8.20219 23.7179C11.4672 20.9961 15.5818 19.503 19.8325 19.4975C19.8411 14.6561 21.7715 10.0162 25.1994 6.59743C28.6273 3.17864 33.2724 1.26066 38.1137 1.26497C39.437 1.26096 40.7564 1.40817 42.0462 1.70372C45.2742 2.41062 48.2493 3.98148 50.6536 6.24837C53.0578 8.51525 54.8008 11.3929 55.6962 14.5737C57.3387 14.1004 59.0407 13.865 60.75 13.875C65.3748 13.8591 69.8189 15.6695 73.1162 18.9125C73.9666 19.7074 74.7243 20.596 75.375 21.5612C77.8251 20.471 80.4891 19.9459 83.1696 20.0251C85.8502 20.1042 88.4785 20.7854 90.86 22.0183C93.2415 23.2512 95.3151 25.0041 96.9272 27.1472C98.5392 29.2904 99.6484 31.7687 100.172 34.3987C100.868 38.9095 99.9596 43.5214 97.605 47.4312Z" fill="#CECECE"/>
<path d="M34.36 70.5712L33.5475 70.1812L33.71 70.0675C34.0149 69.8598 34.2254 69.5399 34.2954 69.1776C34.3654 68.8154 34.2893 68.4401 34.0837 68.1337C33.876 67.8288 33.5561 67.6183 33.1939 67.5483C32.8316 67.4783 32.4564 67.5544 32.15 67.76L31.2887 68.3287L30.6387 68.7837L28.3312 67.6462L30.46 66.2L31.1587 66.5412L32.2475 67.0775C32.5664 67.1748 32.9095 67.1549 33.215 67.0214C33.5205 66.8878 33.7682 66.6495 33.9134 66.3493C34.0586 66.0492 34.0917 65.707 34.0067 65.3846C33.9217 65.0622 33.7242 64.7808 33.45 64.5912L33.125 64.3962L33.8725 63.8925C34.1774 63.6848 34.3879 63.3649 34.4579 63.0027C34.5279 62.6404 34.4518 62.2651 34.2462 61.9587C34.0385 61.6538 33.7186 61.4433 33.3564 61.3733C32.9941 61.3033 32.6189 61.3794 32.3125 61.585L31.565 62.0887V61.8937C31.5359 61.5257 31.3624 61.1841 31.0822 60.9435C30.8021 60.703 30.4382 60.5831 30.07 60.61C29.8877 60.6202 29.7093 60.6669 29.5453 60.7473C29.3814 60.8277 29.2352 60.9401 29.1155 61.078C28.9958 61.2159 28.905 61.3764 28.8484 61.55C28.7919 61.7236 28.7707 61.9068 28.7862 62.0887V63.1125V63.8925L26.6412 65.355L26.625 62.7712L27.275 62.3325L28.25 61.65C28.5517 61.4345 28.7554 61.108 28.8163 60.7423C28.8773 60.3766 28.7905 60.0017 28.575 59.7C28.3595 59.3983 28.033 59.1946 27.6673 59.1336C27.3016 59.0727 26.9267 59.1595 26.625 59.375L26.3162 59.6025V58.6925C26.2871 58.3244 26.1136 57.9828 25.8335 57.7423C25.5534 57.5018 25.1895 57.3818 24.8212 57.4087C24.6382 57.421 24.4594 57.4697 24.2954 57.5518C24.1314 57.6339 23.9854 57.7479 23.8658 57.887C23.7463 58.0262 23.6558 58.1878 23.5994 58.3624C23.543 58.5369 23.5219 58.721 23.5375 58.9037V59.7975L23.375 59.6837C23.2088 59.5832 23.0235 59.5185 22.8309 59.4936C22.6383 59.4687 22.4426 59.4842 22.2564 59.5391C22.0701 59.5941 21.8973 59.6872 21.7491 59.8127C21.6008 59.9381 21.4803 60.0931 21.3953 60.2676C21.3103 60.4422 21.2626 60.6326 21.2552 60.8267C21.2479 61.0208 21.2811 61.2142 21.3527 61.3947C21.4243 61.5753 21.5327 61.7389 21.671 61.8752C21.8094 62.0114 21.9746 62.1174 22.1562 62.1862L23.0825 62.625L23.7812 62.9662L23.9762 65.55L21.75 64.4287V63.6487L21.6687 62.43C21.5959 62.1021 21.4088 61.8108 21.1408 61.6084C20.8728 61.4059 20.5415 61.3054 20.2062 61.325C19.8706 61.3482 19.5551 61.4931 19.3187 61.7324C19.0823 61.9718 18.9415 62.2892 18.9225 62.625V62.9987L17.9475 62.625C17.7832 62.546 17.6049 62.5002 17.4229 62.4902C17.2408 62.4801 17.0586 62.506 16.8866 62.5663C16.7146 62.6267 16.5561 62.7203 16.4203 62.8419C16.2845 62.9635 16.1739 63.1107 16.095 63.275C16.016 63.4393 15.9702 63.6176 15.9601 63.7996C15.9501 63.9816 15.9759 64.1638 16.0363 64.3359C16.0967 64.5079 16.1903 64.6663 16.3119 64.8022C16.4335 64.938 16.5807 65.0485 16.745 65.1275L17.5575 65.5337L17.395 65.6312C17.2435 65.7379 17.1144 65.8734 17.0153 66.03C16.9161 66.1866 16.8488 66.3611 16.8171 66.5437C16.7854 66.7263 16.79 66.9133 16.8306 67.0941C16.8712 67.2749 16.947 67.446 17.0537 67.5975C17.1604 67.749 17.2959 67.878 17.4525 67.9772C17.609 68.0763 17.7836 68.1437 17.9662 68.1753C18.1488 68.207 18.3358 68.2024 18.5166 68.1619C18.6974 68.1213 18.8685 68.0454 19.02 67.9387L19.865 67.37L20.515 66.9312L22.8387 68.0525L20.6937 69.4987L19.93 69.125L18.8412 68.605C18.5223 68.5077 18.1791 68.5276 17.8736 68.6611C17.5681 68.7947 17.3204 69.033 17.1753 69.3332C17.0301 69.6333 16.997 69.9755 17.082 70.2979C17.167 70.6203 17.3645 70.9017 17.6387 71.0912L17.9962 71.2537L17.2325 71.7737C16.9286 71.9892 16.7228 72.3166 16.6604 72.6838C16.5979 73.051 16.6839 73.428 16.8993 73.7319C17.1148 74.0357 17.4422 74.2415 17.8094 74.304C18.1766 74.3664 18.5536 74.2805 18.8575 74.065L19.605 73.5612V73.7562C19.6153 73.9392 19.6619 74.1183 19.7421 74.283C19.8223 74.4478 19.9344 74.595 20.0721 74.716C20.2097 74.837 20.37 74.9294 20.5437 74.9878C20.7174 75.0462 20.9009 75.0695 21.0837 75.0562C21.4531 75.0271 21.7963 74.8541 22.0394 74.5745C22.2825 74.295 22.4062 73.9311 22.3837 73.5612V72.5375V71.7575L24.5287 70.3112L24.7237 72.8787L24.0737 73.3175L23.0662 74C22.8181 74.2268 22.659 74.5346 22.6173 74.8681C22.5756 75.2016 22.6541 75.5391 22.8387 75.82C23.03 76.096 23.3143 76.2939 23.6396 76.3774C23.9649 76.461 24.3093 76.4246 24.61 76.275L24.935 76.0637V76.9575C24.9326 77.1507 24.9704 77.3422 25.0458 77.5201C25.1213 77.6979 25.2328 77.8582 25.3733 77.9908C25.5138 78.1233 25.6802 78.2253 25.8621 78.2903C26.0441 78.3553 26.2375 78.3819 26.4302 78.3684C26.6229 78.3549 26.8107 78.3015 26.9818 78.2118C27.1528 78.122 27.3034 77.9977 27.424 77.8468C27.5446 77.6959 27.6327 77.5217 27.6825 77.335C27.7324 77.1484 27.743 76.9534 27.7137 76.7625V75.8525L27.8925 75.95C28.2231 76.0868 28.5936 76.0916 28.9277 75.9634C29.2617 75.8352 29.5339 75.5837 29.6881 75.2608C29.8422 74.9379 29.8667 74.5682 29.7563 74.2278C29.646 73.8874 29.4093 73.6023 29.095 73.4312L28.185 72.9925L27.47 72.6512L27.2912 70.0837L29.615 71.205V71.985L29.7125 73.1875C29.7754 73.5173 29.9577 73.8124 30.2245 74.0162C30.4914 74.2201 30.8239 74.3184 31.1587 74.2925C31.496 74.2697 31.8136 74.1254 32.0526 73.8864C32.2916 73.6473 32.4359 73.3298 32.4587 72.9925V72.6025L33.2712 72.9925C33.5842 73.1174 33.9321 73.1236 34.2494 73.0099C34.5666 72.8962 34.8314 72.6703 34.9937 72.375C35.137 72.0501 35.1513 71.6828 35.0335 71.3478C34.9158 71.0128 34.675 70.7351 34.36 70.5712Z" stroke="black" stroke-linecap="round" stroke-linejoin="round"/>
<path d="M59.125 86.9999L58.3125 86.6099L58.475 86.4962C58.7799 86.2885 58.9903 85.9686 59.0604 85.6063C59.1304 85.2441 59.0543 84.8688 58.8487 84.5624C58.7473 84.4097 58.6165 84.2787 58.4639 84.1771C58.3114 84.0754 58.1401 84.0052 57.9601 83.9704C57.7802 83.9356 57.595 83.937 57.4156 83.9744C57.2362 84.0119 57.066 84.0848 56.915 84.1887L56.0537 84.7574L55.4037 85.1962L53.0962 84.0749L55.225 82.6287L55.9237 82.9699L57.0125 83.4899C57.3313 83.5873 57.6745 83.5673 57.98 83.4338C58.2855 83.3003 58.5332 83.0619 58.6784 82.7618C58.8236 82.4616 58.8566 82.1195 58.7717 81.7971C58.6867 81.4747 58.4892 81.1933 58.215 81.0037L57.8737 80.8412L58.6212 80.3374C58.9262 80.1297 59.1366 79.8099 59.2066 79.4476C59.2766 79.0853 59.2005 78.7101 58.995 78.4037C58.8935 78.251 58.7628 78.12 58.6102 78.0183C58.4576 77.9167 58.2864 77.8464 58.1064 77.8116C57.9264 77.7768 57.7413 77.7782 57.5618 77.8157C57.3824 77.8532 57.2122 77.926 57.0612 78.0299L56.3137 78.5337V78.3387C56.316 78.1455 56.2783 77.954 56.2028 77.7761C56.1274 77.5983 56.0159 77.438 55.8754 77.3054C55.7349 77.1728 55.5684 77.0708 55.3865 77.0058C55.2046 76.9408 55.0112 76.9143 54.8185 76.9278C54.6258 76.9413 54.438 76.9946 54.2669 77.0844C54.0958 77.1742 53.9453 77.2984 53.8246 77.4493C53.704 77.6002 53.616 77.7745 53.5662 77.9612C53.5163 78.1478 53.5057 78.3427 53.535 78.5337V79.5574V80.3374L51.39 81.7837L51.2112 79.2162L51.8612 78.7774L52.8525 78.0949C53.1161 77.8756 53.2888 77.566 53.3368 77.2263C53.3847 76.8867 53.3046 76.5414 53.112 76.2575C52.9194 75.9737 52.6281 75.7717 52.2948 75.6908C51.9615 75.6099 51.61 75.656 51.3087 75.8199L51 76.0474V75.1374C50.9709 74.7694 50.7973 74.4278 50.5172 74.1872C50.2371 73.9467 49.8732 73.8268 49.505 73.8537C49.3226 73.8639 49.1442 73.9106 48.9803 73.991C48.8164 74.0714 48.6702 74.1838 48.5505 74.3217C48.4308 74.4596 48.34 74.6201 48.2834 74.7937C48.2269 74.9673 48.2057 75.1505 48.2212 75.3324V76.2424L48.0425 76.1449C47.7078 75.9873 47.3248 75.967 46.9754 76.0886C46.6261 76.2101 46.3382 76.4637 46.1737 76.7949C46.016 77.1296 45.9958 77.5126 46.1173 77.862C46.2388 78.2113 46.4924 78.4991 46.8237 78.6637L47.75 79.1024L48.4487 79.4437L48.6437 82.0274L46.32 80.8899V80.1099V78.9074C46.2472 78.5796 46.06 78.2883 45.792 78.0858C45.5241 77.8833 45.1928 77.7829 44.8575 77.8024C44.5219 77.8257 44.2063 77.9705 43.9699 78.2099C43.7336 78.4492 43.5927 78.7666 43.5737 79.1024V79.4924L42.745 79.1024C42.4131 78.943 42.0315 78.9219 41.6841 79.0438C41.3367 79.1657 41.0519 79.4206 40.8925 79.7524C40.733 80.0843 40.7119 80.4659 40.8338 80.8133C40.9557 81.1607 41.2106 81.4455 41.5425 81.6049L42.355 81.9949L42.1925 82.1087C42.0397 82.2101 41.9087 82.3409 41.8071 82.4934C41.7054 82.646 41.6352 82.8173 41.6004 82.9972C41.5656 83.1772 41.567 83.3624 41.6045 83.5418C41.6419 83.7212 41.7148 83.8914 41.8187 84.0424C42.0264 84.3474 42.3463 84.5578 42.7086 84.6279C43.0708 84.6979 43.4461 84.6218 43.7525 84.4162L44.5 83.7499L45.15 83.3112L47.4737 84.4324L45.3287 85.8787L44.63 85.5374L43.5412 85.0012C43.2223 84.9039 42.8791 84.9238 42.5736 85.0573C42.2681 85.1909 42.0204 85.4292 41.8753 85.7294C41.7301 86.0295 41.697 86.3717 41.782 86.6941C41.867 87.0165 42.0644 87.2979 42.3387 87.4874L42.6962 87.6499L41.9325 88.1537C41.6265 88.3692 41.4186 88.6974 41.3546 89.0661C41.2906 89.4349 41.3757 89.8139 41.5912 90.1199C41.8067 90.4259 42.1349 90.6338 42.5037 90.6978C42.8724 90.7618 43.2515 90.6767 43.5575 90.4612L44.305 89.9574V90.2499C44.3152 90.4322 44.3618 90.6107 44.4422 90.7746C44.5226 90.9385 44.6351 91.0847 44.773 91.2044C44.9109 91.3241 45.0714 91.4149 45.245 91.4715C45.4186 91.528 45.6018 91.5492 45.7837 91.5337C46.1517 91.5086 46.4948 91.3391 46.7383 91.0621C46.9819 90.7851 47.106 90.4231 47.0837 90.0549L47.0025 89.0312V88.2512L49.1475 86.8049L49.3262 89.3724L48.6925 89.8112L47.685 90.4937C47.4369 90.7205 47.2777 91.0283 47.236 91.3618C47.1943 91.6953 47.2728 92.0328 47.4575 92.3137C47.6488 92.5897 47.9331 92.7876 48.2583 92.8711C48.5836 92.9547 48.9281 92.9183 49.2287 92.7687L49.5537 92.5412V93.4512C49.5639 93.6335 49.6106 93.8119 49.691 93.9758C49.7714 94.1398 49.8838 94.2859 50.0217 94.4056C50.1596 94.5253 50.3201 94.6162 50.4937 94.6727C50.6673 94.7293 50.8505 94.7504 51.0325 94.7349C51.2161 94.7226 51.3956 94.674 51.5604 94.5921C51.7253 94.5102 51.8723 94.3965 51.9931 94.2576C52.1139 94.1187 52.2061 93.9573 52.2643 93.7826C52.3226 93.608 52.3457 93.4236 52.3325 93.2399V92.3462H52.5112C52.6755 92.4251 52.8538 92.471 53.0358 92.481C53.2178 92.4911 53.4001 92.4652 53.5721 92.4049C53.7441 92.3445 53.9025 92.2508 54.0384 92.1293C54.1742 92.0077 54.2847 91.8605 54.3637 91.6962C54.4427 91.5319 54.4885 91.3536 54.4985 91.1716C54.5086 90.9896 54.4827 90.8073 54.4224 90.6353C54.362 90.4633 54.2684 90.3049 54.1468 90.169C54.0252 90.0332 53.878 89.9226 53.7137 89.8437L52.8037 89.4049L52.0887 89.0637L51.91 86.4799L54.2337 87.6174V88.3812L54.3312 89.5999C54.4003 89.9307 54.587 90.2253 54.8566 90.429C55.1262 90.6328 55.4605 90.7319 55.7976 90.7081C56.1347 90.6843 56.4517 90.5392 56.69 90.2996C56.9283 90.06 57.0717 89.7422 57.0937 89.4049V89.0312L57.9062 89.4212C58.0699 89.5034 58.2485 89.5517 58.4314 89.5634C58.6142 89.5751 58.7975 89.5498 58.9703 89.4892C59.1432 89.4285 59.3021 89.3337 59.4375 89.2104C59.573 89.087 59.6822 88.9376 59.7587 88.7712C59.8964 88.4505 59.9075 88.0896 59.79 87.761C59.6724 87.4324 59.4348 87.1605 59.125 86.9999Z" stroke="black" stroke-linecap="round" stroke-linejoin="round"/>
<path d="M85.2712 71.2212L84.4424 70.8312L84.6049 70.7175C84.7577 70.6161 84.8887 70.4853 84.9903 70.3327C85.092 70.1802 85.1622 70.0089 85.197 69.8289C85.2318 69.6489 85.2304 69.4638 85.1929 69.2844C85.1555 69.1049 85.0826 68.9347 84.9787 68.7837C84.771 68.4788 84.4511 68.2683 84.0888 68.1983C83.7266 68.1283 83.3513 68.2044 83.0449 68.41L82.1999 68.995L81.5499 69.4337L79.2262 68.2962L81.3712 66.85L82.0699 67.1912L83.1587 67.7275C83.4793 67.8334 83.8274 67.8196 84.1386 67.6887C84.4499 67.5579 84.7032 67.3188 84.8518 67.0156C85.0004 66.7124 85.0343 66.3657 84.9471 66.0395C84.8598 65.7134 84.6575 65.4298 84.3774 65.2412L84.0362 65.0625L84.7837 64.5587C84.9338 64.4548 85.0619 64.3221 85.1604 64.1684C85.259 64.0146 85.3261 63.8429 85.3578 63.6631C85.3895 63.4832 85.3853 63.2989 85.3453 63.1207C85.3053 62.9425 85.2304 62.774 85.1249 62.625C84.9172 62.32 84.5974 62.1096 84.2351 62.0396C83.8728 61.9695 83.4976 62.0456 83.1912 62.2512L82.4437 62.755V62.625C82.4309 62.4436 82.3825 62.2665 82.3012 62.1038C82.22 61.9411 82.1075 61.7961 81.9702 61.6769C81.8329 61.5576 81.6734 61.4666 81.5009 61.4091C81.3285 61.3515 81.1463 61.3284 80.9649 61.3412C80.7835 61.354 80.6065 61.4024 80.4438 61.4837C80.2811 61.5649 80.136 61.6774 80.0168 61.8147C79.8976 61.952 79.8066 62.1115 79.749 62.284C79.6914 62.4565 79.6684 62.6386 79.6812 62.82V63.8437V64.6237L77.5524 66.0862L77.3737 63.5025L78.0074 63.0637L79.0149 62.3812C79.263 62.1544 79.4222 61.8467 79.4639 61.5131C79.5056 61.1796 79.4271 60.8421 79.2424 60.5612C79.0535 60.2825 78.7703 60.0813 78.4449 59.9947C78.1194 59.9081 77.7737 59.9419 77.4712 60.09L77.1462 60.3012V59.3912C77.1323 59.2098 77.0829 59.033 77.0006 58.8707C76.9184 58.7084 76.805 58.5639 76.6669 58.4455C76.5289 58.327 76.3688 58.2369 76.1959 58.1803C76.0231 58.1237 75.8407 58.1017 75.6593 58.1156C75.4779 58.1295 75.301 58.1789 75.1388 58.2612C74.9765 58.3434 74.832 58.4568 74.7136 58.5949C74.5951 58.7329 74.505 58.893 74.4484 59.0659C74.3918 59.2388 74.3698 59.4211 74.3837 59.6025V60.4962H74.1887C73.8626 60.3726 73.5021 60.3753 73.178 60.5039C72.8538 60.6324 72.5894 60.8775 72.4368 61.191C72.2841 61.5046 72.2541 61.8638 72.3528 62.1983C72.4514 62.5328 72.6716 62.8183 72.9699 62.9987L73.8962 63.4375L74.6112 63.7787L74.7899 66.3625L72.4662 65.2412V64.4612L72.3687 63.2425C72.2996 62.9117 72.1129 62.6172 71.8433 62.4134C71.5737 62.2097 71.2394 62.1105 70.9023 62.1343C70.5652 62.1581 70.2482 62.3032 70.0099 62.5428C69.7716 62.7824 69.6282 63.1003 69.6062 63.4375V63.8112L68.8749 63.275C68.5489 63.1513 68.1884 63.1541 67.8642 63.2826C67.5401 63.4112 67.2757 63.6563 67.123 63.9698C66.9703 64.2833 66.9404 64.6426 67.039 64.977C67.1377 65.3115 67.3578 65.597 67.6562 65.7775L68.4687 66.1837L68.3062 66.2812C68.0035 66.4946 67.7954 66.8171 67.7257 67.1808C67.656 67.5445 67.7301 67.9211 67.9324 68.2312C68.0351 68.3827 68.1669 68.5122 68.32 68.6123C68.4732 68.7124 68.6447 68.781 68.8246 68.8143C69.0045 68.8476 69.1892 68.8447 69.368 68.806C69.5468 68.7673 69.7162 68.6934 69.8662 68.5887L70.7274 68.02L71.3612 67.5812L73.6849 68.7025L71.5562 70.1487L70.8574 69.8075L69.7687 69.2875C69.4589 69.1954 69.1266 69.2149 68.8297 69.3426C68.5327 69.4703 68.29 69.698 68.1437 69.9862C67.9972 70.2905 67.9659 70.6376 68.0555 70.9632C68.1451 71.2888 68.3496 71.571 68.6312 71.7575L68.9724 71.92L68.2249 72.44C68.0745 72.5467 67.9465 72.682 67.8484 72.8381C67.7502 72.9943 67.6838 73.1682 67.6528 73.3501C67.6219 73.5319 67.6271 73.718 67.6681 73.8978C67.7091 74.0777 67.7851 74.2477 67.8918 74.3981C67.9985 74.5485 68.1338 74.6765 68.29 74.7747C68.4461 74.8728 68.6201 74.9393 68.8019 74.9702C68.9837 75.0011 69.1699 74.996 69.3497 74.955C69.5295 74.914 69.6995 74.8379 69.8499 74.7312L70.5974 74.2275V74.4225C70.5951 74.6156 70.6329 74.8072 70.7083 74.985C70.7837 75.1629 70.8952 75.3232 71.0357 75.4557C71.1762 75.5883 71.3427 75.6903 71.5246 75.7553C71.7065 75.8203 71.9 75.8469 72.0927 75.8334C72.2854 75.8199 72.4732 75.7665 72.6442 75.6768C72.8153 75.587 72.9659 75.4627 73.0865 75.3118C73.2071 75.1609 73.2951 74.9867 73.345 74.8C73.3948 74.6134 73.4055 74.4184 73.3762 74.2275V73.2037V72.4237L75.5212 70.9775L75.3749 73.5775L74.7249 74.0162L73.7337 74.6987C73.47 74.9181 73.2974 75.2277 73.2494 75.5674C73.2014 75.907 73.2815 76.2523 73.4741 76.5361C73.6667 76.82 73.958 77.022 74.2913 77.1029C74.6247 77.1838 74.9762 77.1377 75.2774 76.9737L75.5862 76.7625V77.6562C75.6153 78.0256 75.7883 78.3688 76.0679 78.6119C76.3475 78.855 76.7114 78.9787 77.0812 78.9562C77.4493 78.9272 77.7909 78.7536 78.0314 78.4735C78.2719 78.1934 78.3918 77.8295 78.3649 77.4612V76.5512L78.5599 76.6487C78.8922 76.8057 79.2728 76.8255 79.6196 76.7038C79.9663 76.5822 80.2511 76.3289 80.4124 75.9987C80.4946 75.835 80.543 75.6564 80.5547 75.4736C80.5663 75.2908 80.5411 75.1074 80.4804 74.9346C80.4198 74.7617 80.325 74.6028 80.2016 74.4674C80.0783 74.332 79.9289 74.2227 79.7624 74.1462L78.8362 73.6912L78.1374 73.35L78.0237 70.75L80.3312 71.8712V72.6512V73.8537C80.3841 74.1964 80.5639 74.5066 80.8349 74.7228C81.1059 74.939 81.4483 75.0454 81.7941 75.0208C82.1399 74.9963 82.4639 74.8426 82.7016 74.5902C82.9394 74.3379 83.0735 74.0054 83.0774 73.6587V73.2687L83.9062 73.675C84.2402 73.8366 84.6247 73.8589 84.9752 73.737C85.3256 73.6151 85.6133 73.359 85.7749 73.025C85.9366 72.691 85.9589 72.3064 85.837 71.956C85.7151 71.6055 85.4589 71.3178 85.1249 71.1562L85.2712 71.2212Z" stroke="black" stroke-linecap="round" stroke-linejoin="round"/>
<path d="M97.605 47.4312C97.1828 48.0574 96.6109 48.5683 95.9412 48.9173C95.2714 49.2664 94.5251 49.4426 93.77 49.43H8.26249C7.48221 49.4393 6.71256 49.2486 6.02697 48.8759C5.34138 48.5033 4.76273 47.9611 4.34624 47.3012C2.58103 44.4328 1.64716 41.1305 1.64874 37.7625C1.64366 36.6339 1.74705 35.5075 1.95749 34.3987C2.72792 30.2185 4.93722 26.4397 8.20219 23.7179C11.4672 20.9961 15.5818 19.503 19.8325 19.4975C19.8411 14.6561 21.7715 10.0162 25.1994 6.59743C28.6273 3.17864 33.2724 1.26066 38.1137 1.26497C39.437 1.26096 40.7564 1.40817 42.0462 1.70372C45.2742 2.41062 48.2493 3.98148 50.6536 6.24837C53.0578 8.51525 54.8008 11.3929 55.6962 14.5737C57.3387 14.1004 59.0407 13.865 60.75 13.875C65.3748 13.8591 69.8189 15.6695 73.1162 18.9125C73.9666 19.7074 74.7243 20.596 75.375 21.5612C77.8251 20.471 80.4891 19.9459 83.1696 20.0251C85.8502 20.1042 88.4785 20.7854 90.86 22.0183C93.2416 23.2512 95.3151 25.0041 96.9272 27.1472C98.5392 29.2904 99.6484 31.7687 100.172 34.3987C100.868 38.9095 99.9596 43.5214 97.605 47.4312Z" stroke="black" stroke-width="2" stroke-linecap="round" stroke-linejoin="round"/>
<path d="M40.4862 7.73242C42.8236 7.91919 44.9991 8.99942 46.5606 10.7486C48.1222 12.4978 48.9497 14.7814 48.8712 17.1249" stroke="black" stroke-width="2" stroke-linecap="round" stroke-linejoin="round"/>
<path d="M54.6562 20.6999C54.6562 20.6999 65.0238 15.0612 70.3538 26.0299" stroke="black" stroke-width="2" stroke-linecap="round" stroke-linejoin="round"/>
<g style="mix-blend-mode:multiply" opacity="0.25">
<path d="M12.4712 47.3174C10.6981 44.4457 9.75856 41.1374 9.75742 37.7624C9.7577 36.6334 9.86653 35.5069 10.0824 34.3987C10.8528 30.2184 13.0622 26.4397 16.3271 23.7179C19.5921 20.9961 23.7068 19.5029 27.9574 19.4974C27.9619 15.37 29.368 11.3664 31.9453 8.14248C34.5227 4.91859 38.1185 2.66555 42.1437 1.75243H42.0462C40.7563 1.45687 39.4369 1.30967 38.1137 1.31368C33.2863 1.31793 28.657 3.23301 25.2375 6.64034C21.818 10.0477 19.8864 14.6702 19.8649 19.4974C15.6143 19.5029 11.4996 20.9961 8.23462 23.7179C4.96965 26.4397 2.76035 30.2184 1.98992 34.3987C1.77403 35.5069 1.6652 36.6334 1.66492 37.7624C1.66606 41.1374 2.60564 44.4457 4.37867 47.3174C4.79225 47.9726 5.36575 48.5118 6.04518 48.8842C6.72461 49.2566 7.48763 49.45 8.26242 49.4462H16.3874C15.6071 49.4555 14.8375 49.2648 14.1519 48.8921C13.4663 48.5195 12.8877 47.9773 12.4712 47.3174Z" fill="black"/>
<path d="M73.1001 72.4562L73.7176 72.0337V65.6312L72.5638 65.0787V64.2987L72.4663 63.0799C72.3972 62.7491 72.2106 62.4546 71.941 62.2508C71.6713 62.0471 71.337 61.9479 71 61.9717C70.6629 61.9955 70.3458 62.1407 70.1075 62.3803C69.8692 62.6199 69.7258 62.9377 69.7038 63.2749V63.6487L68.8751 63.2749C68.549 63.1513 68.1885 63.154 67.8643 63.2826C67.5402 63.4111 67.2758 63.6562 67.1231 63.9697C66.9705 64.2832 66.9405 64.6425 67.0391 64.977C67.1378 65.3115 67.3579 65.597 67.6563 65.7774L68.4688 66.1837L68.3063 66.2812C68.0036 66.4946 67.7956 66.817 67.7259 67.1807C67.6561 67.5444 67.7302 67.921 67.9326 68.2312C68.0352 68.3826 68.167 68.5121 68.3201 68.6122C68.4733 68.7123 68.6448 68.781 68.8247 68.8142C69.0046 68.8475 69.1893 68.8447 69.3681 68.806C69.5469 68.7672 69.7163 68.6934 69.8663 68.5887L70.7276 68.0199L71.3613 67.5812L73.6851 68.7024L71.5563 70.1487L70.8576 69.8074L69.7688 69.2874C69.459 69.1954 69.1267 69.2149 68.8298 69.3426C68.5329 69.4702 68.2901 69.698 68.1438 69.9862C67.9973 70.2905 67.966 70.6375 68.0556 70.9632C68.1452 71.2888 68.3497 71.5709 68.6313 71.7574L68.9726 71.9199L68.2251 72.4399C68.0746 72.5466 67.9467 72.6819 67.8485 72.8381C67.7503 72.9942 67.6839 73.1682 67.653 73.35C67.622 73.5318 67.6272 73.718 67.6682 73.8978C67.7092 74.0776 67.7852 74.2476 67.8919 74.3981C67.9986 74.5485 68.1339 74.6765 68.2901 74.7746C68.4462 74.8728 68.6202 74.9392 68.802 74.9702C68.9838 75.0011 69.17 74.9959 69.3498 74.9549C69.5296 74.9139 69.6996 74.8379 69.8501 74.7312L70.5976 74.2274V74.4224C70.5952 74.6156 70.633 74.8071 70.7084 74.985C70.7839 75.1628 70.8954 75.3231 71.0359 75.4557C71.1764 75.5883 71.3428 75.6903 71.5247 75.7553C71.7067 75.8203 71.9001 75.8469 72.0928 75.8333C72.2855 75.8198 72.4733 75.7665 72.6444 75.6767C72.8154 75.5869 72.966 75.4627 73.0866 75.3118C73.2072 75.1609 73.2952 74.9866 73.3451 74.8C73.395 74.6133 73.4056 74.4184 73.3763 74.2274V73.2037L73.1001 72.4562Z" fill="black"/>
<path d="M46.125 85.4561L45.475 85.8949L44.7762 85.5536L43.6875 85.0174C43.3686 84.9201 43.0254 84.94 42.7199 85.0735C42.4144 85.2071 42.1667 85.4454 42.0215 85.7456C41.8764 86.0457 41.8433 86.3879 41.9283 86.7103C42.0133 87.0327 42.2107 87.3141 42.485 87.5036L42.8425 87.6661L42.0787 88.1699C41.7727 88.3854 41.5649 88.7136 41.5009 89.0823C41.4369 89.4511 41.522 89.8301 41.7375 90.1361C41.953 90.4421 42.2812 90.65 42.6499 90.714C43.0187 90.778 43.3977 90.6929 43.7037 90.4774L44.4512 89.9736V90.2499C44.4615 90.4322 44.5081 90.6106 44.5885 90.7745C44.6689 90.9385 44.7814 91.0846 44.9193 91.2043C45.0571 91.324 45.2176 91.4149 45.3913 91.4714C45.5649 91.528 45.7481 91.5491 45.93 91.5336C46.0106 91.5483 46.0932 91.5483 46.1737 91.5336L46.125 85.4561Z" fill="black"/>
<path d="M42.3225 81.9137L42.16 82.0274C42.0073 82.1289 41.8763 82.2597 41.7747 82.4122C41.673 82.5648 41.6028 82.736 41.568 82.916C41.5332 83.096 41.5346 83.2811 41.5721 83.4606C41.6095 83.64 41.6824 83.8102 41.7863 83.9612C41.994 84.2662 42.3139 84.4766 42.6761 84.5466C43.0384 84.6166 43.4137 84.5405 43.72 84.3349L44.5 83.7499L45.15 83.3112L46.125 83.7499V78.3224C45.9884 78.1244 45.8029 77.965 45.5865 77.8596C45.3701 77.7543 45.1302 77.7066 44.89 77.7212C44.5545 77.7444 44.2389 77.8893 44.0025 78.1286C43.7662 78.368 43.6253 78.6854 43.6063 79.0212V79.4112L42.7775 79.0212C42.4457 78.8617 42.0641 78.8406 41.7167 78.9625C41.3693 79.0844 41.0845 79.3393 40.925 79.6712C40.7656 80.0031 40.7445 80.3847 40.8664 80.7321C40.9883 81.0795 41.2432 81.3642 41.575 81.5237L42.3225 81.9137Z" fill="black"/>
<path d="M21.49 68.9299L20.6288 69.4987L19.93 69.1249L18.8413 68.6049C18.5224 68.5076 18.1792 68.5275 17.8737 68.661C17.5682 68.7946 17.3205 69.0329 17.1753 69.3331C17.0301 69.6332 16.9971 69.9754 17.0821 70.2978C17.167 70.6202 17.3645 70.9016 17.6388 71.0912L17.9963 71.2537L17.2325 71.7737C16.9287 71.9892 16.7229 72.3165 16.6604 72.6837C16.5979 73.051 16.6839 73.4279 16.8994 73.7318C17.1149 74.0356 17.4422 74.2414 17.8095 74.3039C18.1767 74.3664 18.5537 74.2804 18.8575 74.0649L19.605 73.5612V73.7562C19.6153 73.9391 19.6619 74.1182 19.7421 74.283C19.8223 74.4477 19.9345 74.5949 20.0721 74.7159C20.2097 74.8369 20.37 74.9293 20.5437 74.9877C20.7174 75.0461 20.901 75.0694 21.0838 75.0562C21.2415 75.0378 21.3952 74.9939 21.5388 74.9262L21.49 68.9299Z" fill="black"/>
<path d="M17.5575 65.5336L17.395 65.6311C17.2435 65.7378 17.1144 65.8733 17.0153 66.0299C16.9161 66.1865 16.8488 66.361 16.8171 66.5436C16.7854 66.7262 16.79 66.9132 16.8306 67.094C16.8712 67.2748 16.947 67.4459 17.0537 67.5974C17.1604 67.7489 17.2959 67.8779 17.4525 67.9771C17.609 68.0762 17.7836 68.1436 17.9662 68.1752C18.1488 68.2069 18.3358 68.2023 18.5166 68.1617C18.6974 68.1212 18.8685 68.0453 19.02 67.9386L19.865 67.3699L20.515 66.9311L21.555 67.4349V62.3974C21.4794 62.0797 21.2951 61.7985 21.0339 61.6026C20.7726 61.4067 20.4511 61.3084 20.125 61.3249C19.7894 61.3481 19.4738 61.493 19.2375 61.7323C19.0011 61.9717 18.8602 62.289 18.8412 62.6249V62.9986L17.9475 62.6249C17.7832 62.5459 17.6049 62.5001 17.4229 62.49C17.2408 62.48 17.0586 62.5059 16.8866 62.5662C16.7146 62.6266 16.5561 62.7202 16.4203 62.8418C16.2845 62.9634 16.1739 63.1106 16.095 63.2749C16.016 63.4392 15.9702 63.6175 15.9601 63.7995C15.9501 63.9815 15.9759 64.1637 16.0363 64.3358C16.0967 64.5078 16.1903 64.6662 16.3119 64.8021C16.4335 64.9379 16.5807 65.0484 16.745 65.1274L17.5575 65.5336Z" fill="black"/>
</g>
<g style="mix-blend-mode:overlay">
<g style="mix-blend-mode:overlay">
<path d="M82.6875 19.985C81.3147 19.9907 79.9467 20.1488 78.6088 20.4563C81.9484 21.2465 84.99 22.9814 87.3702 25.4538C89.7503 27.9262 91.3685 31.0315 92.0313 34.3988C92.724 38.897 91.8215 43.4959 89.48 47.3988C89.0578 48.025 88.4859 48.5358 87.8162 48.8849C87.1465 49.2339 86.4001 49.4101 85.645 49.3975H93.77C94.5251 49.4101 95.2715 49.2339 95.9412 48.8849C96.6109 48.5358 97.1828 48.025 97.605 47.3988C99.9465 43.4959 100.849 38.897 100.156 34.3988C99.3771 30.3387 97.206 26.6776 94.0172 24.0465C90.8284 21.4153 86.8217 19.979 82.6875 19.985Z" fill="white"/>
</g>
<g style="mix-blend-mode:overlay">
<path d="M30.46 66.2163L31.1587 66.5576L32.2475 67.0938C32.5664 67.1911 32.9095 67.1712 33.215 67.0377C33.5205 66.9041 33.7682 66.6658 33.9134 66.3656C34.0586 66.0655 34.0917 65.7233 34.0067 65.4009C33.9217 65.0785 33.7242 64.7971 33.45 64.6076L33.125 64.3963L33.8725 63.8926C34.1774 63.6849 34.3879 63.365 34.4579 63.0027C34.5279 62.6405 34.4518 62.2652 34.2462 61.9588C34.0385 61.6539 33.7186 61.4434 33.3564 61.3734C32.9941 61.3034 32.6188 61.3795 32.3125 61.5851L31.565 62.0888V61.8938C31.5426 61.5975 31.4242 61.3166 31.2277 61.0937C31.0312 60.8708 30.7674 60.7181 30.4762 60.6588L30.46 66.2163Z" fill="white"/>
</g>
<g style="mix-blend-mode:overlay">
<path d="M34.36 70.5713L33.5475 70.1813L33.71 70.0675C34.0149 69.8598 34.2254 69.5399 34.2954 69.1777C34.3654 68.8154 34.2893 68.4401 34.0837 68.1338C33.876 67.8288 33.5561 67.6184 33.1939 67.5483C32.8316 67.4783 32.4563 67.5544 32.15 67.76L31.2887 68.3288L30.6387 68.7838L30.46 68.6863V74.2763C30.6629 74.3562 30.8819 74.3869 31.099 74.366C31.3161 74.345 31.5252 74.2729 31.709 74.1556C31.8929 74.0383 32.0464 73.8791 32.157 73.6911C32.2675 73.503 32.3319 73.2915 32.345 73.0738V72.6838L33.1575 73.0738C33.3237 73.1495 33.5034 73.1916 33.6861 73.1974C33.8687 73.2033 34.0507 73.1728 34.2215 73.1078C34.3923 73.0428 34.5485 72.9446 34.681 72.8188C34.8136 72.693 34.9199 72.5422 34.9937 72.375C35.137 72.0501 35.1512 71.6828 35.0335 71.3478C34.9158 71.0128 34.675 70.7351 34.36 70.5713Z" fill="white"/>
</g>
<g style="mix-blend-mode:overlay">
<path d="M59.1249 87L58.3124 86.61L58.4749 86.4963C58.7799 86.2886 58.9903 85.9687 59.0603 85.6064C59.1303 85.2442 59.0543 84.8689 58.8487 84.5625C58.7473 84.4098 58.6165 84.2788 58.4639 84.1772C58.3114 84.0755 58.1401 84.0052 57.9601 83.9704C57.7801 83.9357 57.595 83.937 57.4156 83.9745C57.2361 84.012 57.0659 84.0848 56.9149 84.1888L56.0537 84.7575L55.4037 85.1963L53.0962 84.075L55.2249 82.6288L55.9237 82.97L57.0124 83.49C57.3313 83.5873 57.6745 83.5674 57.98 83.4339C58.2855 83.3004 58.5332 83.062 58.6784 82.7618C58.8235 82.4617 58.8566 82.1195 58.7716 81.7971C58.6866 81.4747 58.4892 81.1934 58.2149 81.0038L57.8737 80.8413L58.6212 80.3375C58.9261 80.1298 59.1366 79.8099 59.2066 79.4477C59.2766 79.0854 59.2005 78.7102 58.9949 78.4038C58.8935 78.2511 58.7627 78.1201 58.6102 78.0184C58.4576 77.9167 58.2863 77.8465 58.1064 77.8117C57.9264 77.7769 57.7413 77.7783 57.5618 77.8158C57.3824 77.8533 57.2122 77.9261 57.0612 78.03L56.3137 78.5338V78.3388C56.316 78.1456 56.2782 77.9541 56.2028 77.7762C56.1274 77.5984 56.0159 77.4381 55.8754 77.3055C55.7349 77.1729 55.5684 77.0709 55.3865 77.0059C55.2046 76.9409 55.0111 76.9143 54.8184 76.9279C54.6257 76.9414 54.4379 76.9947 54.2669 77.0845C54.0958 77.1743 53.9452 77.2985 53.8246 77.4494C53.704 77.6003 53.616 77.7746 53.5661 77.9612C53.5163 78.1479 53.5056 78.3428 53.5349 78.5338V79.5575V80.3375L51.9099 81.4425V86.675L54.0712 87.7313V88.495L54.1687 89.7138C54.2378 90.0446 54.4244 90.3391 54.694 90.5429C54.9636 90.7466 55.2979 90.8458 55.635 90.822C55.9721 90.7982 56.2892 90.653 56.5275 90.4134C56.7658 90.1738 56.9092 89.856 56.9312 89.5188V89.145L57.7437 89.535C57.9074 89.6172 58.086 89.6656 58.2688 89.6772C58.4516 89.6889 58.6349 89.6637 58.8078 89.603C58.9807 89.5424 59.1396 89.4475 59.275 89.3242C59.4104 89.2008 59.5197 89.0515 59.5962 88.885C59.7817 88.5721 59.8362 88.1986 59.748 87.8457C59.6598 87.4927 59.4359 87.1888 59.1249 87Z" fill="white"/>
</g>
<g style="mix-blend-mode:overlay">
<path d="M53.6812 89.9088L52.7712 89.47L52.0562 89.1288V94.215C52.2854 93.9373 52.4015 93.5833 52.3811 93.2238V92.33H52.5599C52.8918 92.4895 53.2734 92.5106 53.6208 92.3887C53.9682 92.2668 54.2529 92.0119 54.4124 91.68C54.5719 91.3482 54.593 90.9666 54.4711 90.6192C54.3492 90.2718 54.0943 89.987 53.7624 89.8275L53.6812 89.9088Z" fill="white"/>
</g>
<g style="mix-blend-mode:overlay">
<path d="M85.2712 71.2212L84.4424 70.8312L84.6049 70.7175C84.7576 70.6161 84.8886 70.4853 84.9903 70.3327C85.0919 70.1802 85.1622 70.0089 85.197 69.8289C85.2318 69.6489 85.2304 69.4638 85.1929 69.2844C85.1554 69.1049 85.0826 68.9347 84.9787 68.7837C84.771 68.4788 84.4511 68.2683 84.0888 68.1983C83.7266 68.1283 83.3513 68.2044 83.0449 68.41L82.1999 68.995L81.5499 69.4337L79.2262 68.2962L81.3712 66.85L82.0699 67.1912L83.1587 67.7275C83.4793 67.8333 83.8273 67.8196 84.1386 67.6887C84.4498 67.5579 84.7032 67.3188 84.8518 67.0156C85.0004 66.7124 85.0342 66.3657 84.947 66.0395C84.8598 65.7133 84.6575 65.4298 84.3774 65.2412L84.0362 65.0625L84.7837 64.5587C85.0834 64.346 85.2873 64.0238 85.3511 63.6619C85.415 63.2999 85.3337 62.9274 85.1249 62.625C84.9115 62.3223 84.589 62.1142 84.2253 62.0445C83.8616 61.9748 83.4851 62.0489 83.1749 62.2512L82.4274 62.755V62.625C82.4016 62.2586 82.2312 61.9176 81.9539 61.6768C81.6766 61.4361 81.315 61.3153 80.9487 61.3412C80.5823 61.3671 80.2413 61.5374 80.0005 61.8147C79.7598 62.092 79.6391 62.4536 79.6649 62.82V63.8437V64.6237L78.7224 65.2737V71.3025L80.2012 72.0175V72.7975V74C80.254 74.3426 80.4338 74.6528 80.7048 74.869C80.9759 75.0852 81.3183 75.1916 81.6641 75.1671C82.0099 75.1425 82.3338 74.9888 82.5716 74.7365C82.8093 74.4841 82.9435 74.1516 82.9474 73.805V73.415L83.7762 73.8212C84.1102 73.9828 84.4947 74.0051 84.8452 73.8832C85.1956 73.7613 85.4833 73.5052 85.6449 73.1712C85.8065 72.8372 85.8288 72.4527 85.7069 72.1022C85.585 71.7518 85.3289 71.4641 84.9949 71.3025L85.2712 71.2212Z" fill="white"/>
</g>
</g>
</svg>
