<svg width="375" height="147" viewBox="0 0 375 147" fill="none" xmlns="http://www.w3.org/2000/svg">
<path d="M150 114.528L111.5 118.528L101.5 110.028L98 69.0283L101.5 40.5283L111.5 29.0283L146.5 32.5283L150 74.5283V114.528Z" fill="#2C62ED"/>
<path d="M120.5 114.528C102.9 78.9283 113.167 45.3617 120.5 33.0283L133 37.0283C125.333 51.195 114.6 85.7283 133 110.528L120.5 114.528Z" fill="#A1B7EF"/>
<rect y="65.0283" width="45" height="17" rx="8.5" fill="#374F68"/>
<rect x="39" y="59.0283" width="66" height="28" rx="10" fill="#2C62ED"/>
<rect x="120.537" y="113.587" width="11.4656" height="35.3993" transform="rotate(-21.0949 120.537 113.587)" fill="black"/>
<rect x="134.63" width="11.4656" height="35.427" transform="rotate(22.6711 134.63 0)" fill="black"/>
<rect x="246" y="33.0283" width="106" height="81" rx="18" fill="#2C62ED"/>
<path d="M256.841 82.7742C255.847 101.691 239.866 104.743 232 103.905C241.729 93.3396 255.35 66.3727 232 43.0283C247.401 43.0283 251.665 48.7303 251.872 51.5812C253.942 54.0968 257.834 63.8572 256.841 82.7742Z" fill="black"/>
<path d="M168.5 27.0283L229.5 38.5283C230.601 39.5573 231.741 40.7287 232.884 42.0283C244.887 55.6748 257.256 83.4631 229.5 109.028L163.5 116.528C148 108.528 152.5 109.028 148.5 69.5283C145.3 37.9283 160.5 28.0283 168.5 27.0283Z" fill="#783709"/>
<path d="M352 60.0283H362C367.523 60.0283 372 64.5055 372 70.0283V78.0283C372 83.5512 367.523 88.0283 362 88.0283H352V60.0283Z" fill="#2C62ED"/>
<ellipse cx="368" cy="73.5283" rx="7" ry="8.5" fill="#FF0000"/>
</svg>
