<svg width="42" height="98" viewBox="0 0 42 98" fill="none" xmlns="http://www.w3.org/2000/svg">
<path d="M2.88072 32.7305H11.0469V42.3995L2.34479 34.0651C1.84024 33.5818 2.18228 32.7305 2.88072 32.7305Z" fill="#5B5D6E"/>
<path d="M2.88072 20.2891H11.0469V29.9581L2.34479 21.6237C1.84024 21.1404 2.18228 20.2891 2.88072 20.2891Z" fill="#5B5D6E"/>
<path d="M2.88072 7.84766H11.0469V17.5167L2.34479 9.18233C1.84024 8.69903 2.18228 7.84766 2.88072 7.84766Z" fill="#5B5D6E"/>
<path d="M31.1445 32.7305H39.1193C39.8177 32.7305 40.1598 33.5818 39.6552 34.0651L31.1445 42.2162V32.7305Z" fill="#5B5D6E"/>
<path d="M31.1445 20.2891H39.1193C39.8177 20.2891 40.1598 21.1404 39.6552 21.6237L31.1445 29.7748V20.2891Z" fill="#5B5D6E"/>
<path d="M31.1445 7.84766H39.1193C39.8177 7.84766 40.1598 8.69903 39.6552 9.18233L31.1445 17.3334V7.84766Z" fill="#5B5D6E"/>
<path d="M34.0062 7.84766H31.1445V17.3334L34.0062 14.5926V7.84766Z" fill="#3E404F"/>
<path d="M34.0062 20.2891H31.1445V29.7748L34.0062 27.034V20.2891Z" fill="#3E404F"/>
<path d="M34.0062 32.7305H31.1445V42.2162L34.0062 39.4754V32.7305Z" fill="#3E404F"/>
<path d="M8.18518 39.6588L11.0469 42.3995V32.7305H8.18518V39.6588Z" fill="#3E404F"/>
<path d="M8.18518 27.2174L11.0469 29.9581V20.2891H8.18518V27.2174Z" fill="#3E404F"/>
<path d="M8.18518 14.776L11.0469 17.5167V7.84766H8.18518V14.776Z" fill="#3E404F"/>
<path d="M24.6367 50.9945H17.9375V87.0095H24.6367V50.9945Z" fill="#C7CFE2"/>
<path d="M21.2871 50.9945H17.9375V87.0095H21.2871V50.9945Z" fill="#AAB5CC"/>
<path d="M15.6406 90.4155V84.3766C15.6406 83.4437 16.3969 82.6873 17.33 82.6873H25.2444C26.1773 82.6873 26.9338 83.4435 26.9338 84.3766V90.4155H15.6406Z" fill="#5B5D6E"/>
<path d="M22.6361 82.6875H17.33C16.3971 82.6875 15.6406 83.4437 15.6406 84.3768V90.4157H20.9468V84.3768C20.9468 83.4437 21.703 82.6875 22.6361 82.6875Z" fill="#3E404F"/>
<path d="M11.2383 96.1614V90.761C11.2383 89.3678 12.3678 88.2383 13.761 88.2383H28.8134C30.2066 88.2383 31.3361 89.3678 31.3361 90.761V96.1614C31.3361 96.4368 31.1128 96.6602 30.8373 96.6602H11.7373C11.4617 96.6602 11.2383 96.4368 11.2383 96.1614Z" fill="#464655"/>
<path d="M19.0672 88.2383H13.761C12.3701 88.2383 11.2383 89.3699 11.2383 90.761V96.1614C11.2383 96.4368 11.4617 96.6602 11.7371 96.6602H16.5444V90.761C16.5444 89.3699 17.6762 88.2383 19.0672 88.2383Z" fill="#353544"/>
<path d="M15.6406 54.3025V46.6719H26.9336V54.3025C26.9336 54.8625 26.4796 55.3164 25.9197 55.3164H16.6545C16.0946 55.3164 15.6406 54.8623 15.6406 54.3025Z" fill="#5B5D6E"/>
<path d="M21.0957 54.3025V46.6719H15.6406V54.3025C15.6406 54.8625 16.0946 55.3164 16.6545 55.3164H22.1096C21.5497 55.3164 21.0957 54.8623 21.0957 54.3025Z" fill="#484B5B"/>
<path d="M14.7246 49.7656C12.5911 49.7656 10.8555 48.03 10.8555 45.8963V5.20912C10.8555 3.07552 12.5911 1.33984 14.7246 1.33984H27.4667C29.6003 1.33984 31.3359 3.07552 31.3359 5.20912V45.8963C31.3359 48.0298 29.6003 49.7656 27.4669 49.7656H14.7246Z" fill="#464655"/>
<path d="M21.2871 31.8515C24.9083 31.8515 27.8257 28.78 27.5704 25.1052C27.36 22.0774 24.965 19.5971 21.9457 19.2876C21.1738 19.2086 20.4265 19.2706 19.7256 19.4499V18.6397C20.4265 18.8191 21.1738 18.8811 21.9457 18.802C24.9652 18.4927 27.36 16.0125 27.5704 12.9844C27.8257 9.30962 24.9083 6.23812 21.2871 6.23812C21.1382 6.23812 20.9904 6.24329 20.844 6.25363C20.2382 6.29612 19.7256 5.81205 19.7256 5.20472V1.33984H14.7247C12.5877 1.33984 10.8555 3.07207 10.8555 5.20893V45.8963C10.8555 48.0334 12.5877 49.7656 14.7247 49.7656H19.7256V46.5624C19.7256 45.5926 20.4891 44.7797 21.4588 44.7537C21.6198 44.7493 21.7823 44.7389 21.9457 44.7221C24.9652 44.4128 27.36 41.9325 27.5704 38.9045C27.8257 35.2297 24.9083 32.1582 21.2871 32.1582C20.7483 32.1582 20.225 32.2263 19.7256 32.3544V31.6555C20.225 31.7834 20.7483 31.8515 21.2871 31.8515Z" fill="#282838"/>
<path d="M21.2871 43.2578C18.7014 43.2578 16.5977 41.1543 16.5977 38.5684C16.5977 35.9825 18.7014 33.8789 21.2871 33.8789C23.8728 33.8789 25.9766 35.9825 25.9766 38.5684C25.9766 41.1543 23.8728 43.2578 21.2871 43.2578Z" fill="#00FF19"/>
<path d="M21.2871 30.2422C18.7014 30.2422 16.5977 28.1386 16.5977 25.5527C16.5977 22.9668 18.7014 20.8633 21.2871 20.8633C23.8728 20.8633 25.9766 22.9668 25.9766 25.5527C25.9766 28.1386 23.8728 30.2422 21.2871 30.2422Z" fill="#8A7324"/>
<path d="M21.2871 17.2266C18.7014 17.2266 16.5977 15.123 16.5977 12.5371C16.5977 9.95121 18.7014 7.84766 21.2871 7.84766C23.8728 7.84766 25.9766 9.95121 25.9766 12.5371C25.9766 15.123 23.8728 17.2266 21.2871 17.2266Z" fill="#A82949"/>
<path d="M21.2871 33.8789C19.4515 33.8789 17.8598 34.9397 17.0901 36.4797C17.7195 36.1653 18.4285 35.9872 19.1788 35.9872C21.7645 35.9872 23.8682 38.0908 23.8682 40.6767C23.8682 41.4268 23.6902 42.136 23.3757 42.7653C24.9158 41.9957 25.9766 40.4041 25.9766 38.5684C25.9766 35.9825 23.8728 33.8789 21.2871 33.8789Z" fill="#2FCD6E"/>
<path d="M21.2871 20.8633C19.4515 20.8633 17.8598 21.9241 17.0901 23.4641C17.7195 23.1496 18.4285 22.9716 19.1788 22.9716C21.7645 22.9716 23.8682 25.0752 23.8682 27.6611C23.8682 28.4112 23.6902 29.1204 23.3757 29.7497C24.9158 28.9801 25.9766 27.3885 25.9766 25.5527C25.9766 22.9668 23.8728 20.8633 21.2871 20.8633Z" fill="#B5912C"/>
<path d="M21.2871 7.84766C19.4515 7.84766 17.8598 8.90843 17.0901 10.4485C17.7195 10.134 18.4285 9.956 19.1788 9.956C21.7645 9.956 23.8682 12.0596 23.8682 14.6454C23.8682 15.3956 23.6902 16.1047 23.3757 16.7341C24.9158 15.9644 25.9766 14.3729 25.9766 12.5371C25.9766 9.95121 23.8728 7.84766 21.2871 7.84766Z" fill="#950423"/>
<path d="M40.3267 22.8361C41.0387 22.1541 41.2301 21.1001 40.787 20.202C40.4006 19.4185 39.5737 18.9492 38.7001 18.9492H32.6758V17.7221L40.3267 10.3947C41.0387 9.71272 41.2301 8.65864 40.787 7.76057C40.4004 6.97714 39.5737 6.50781 38.7001 6.50781H32.6758V5.20912C32.6758 2.33229 30.3435 0 27.4667 0H14.7246C11.8477 0 9.51563 2.33209 9.51563 5.20893V6.50781H3.2999C2.42633 6.50781 1.59945 6.97714 1.213 7.76057C0.769895 8.65864 0.961301 9.71272 1.67333 10.3947L9.51563 17.9055V18.9492H3.2999C2.42633 18.9492 1.59945 19.4185 1.213 20.202C0.769895 21.1001 0.961301 22.1541 1.67333 22.8361L9.51563 30.3469V31.3906H3.2999C2.42633 31.3906 1.59945 31.86 1.213 32.6434C0.769895 33.5415 0.961301 34.5955 1.67333 35.2775L9.51563 42.7883V45.8965C9.51563 48.626 11.6263 50.8702 14.3008 51.0869V55.2207C14.3008 56.0135 14.9435 56.6562 15.7363 56.6562H16.5977V81.3477H15.7363C14.9435 81.3477 14.3008 81.9904 14.3008 82.7832V86.8984H13.761C11.6278 86.8984 9.89844 88.6278 9.89844 90.761V96.5645C9.89844 97.3573 10.5412 98 11.334 98H31.2402C32.033 98 32.6758 97.3573 32.6758 96.5645V90.761C32.6758 88.6278 30.9464 86.8984 28.8132 86.8984H28.2734V82.7832C28.2734 81.9904 27.6307 81.3477 26.8379 81.3477H25.9766V75.7909C25.9766 75.0113 25.3457 74.3787 24.5661 74.3768L24.5234 74.3766C23.7409 74.3745 23.1055 75.0083 23.1055 75.7907V81.3477H19.4688V56.6562H23.1055V67.4833C23.1055 68.2658 23.7409 68.8996 24.5234 68.8974C24.5376 68.8974 24.5517 68.8974 24.5661 68.8973C25.3457 68.8951 25.9766 68.2627 25.9766 67.4831V56.6562H26.8379C27.6307 56.6562 28.2734 56.0135 28.2734 55.2207V51.0427C30.764 50.6537 32.6758 48.4943 32.6758 45.8963V42.6049L40.3267 35.2775C41.0387 34.5955 41.2301 33.5415 40.787 32.6434C40.4006 31.86 39.5737 31.3906 38.7001 31.3906H32.6758V30.1635L40.3267 22.8361ZM32.6758 9.37891H37.2362L32.6758 13.7466V9.37891ZM32.6758 21.8203H37.2362L32.6758 26.188V21.8203ZM9.51563 38.8126L4.76378 34.2617H9.51563V38.8126ZM9.51563 26.3712L4.76378 21.8203H9.51563V26.3712ZM9.51563 13.9298L4.76378 9.37891H9.51563V13.9298ZM28.8132 89.7695C29.3599 89.7695 29.8047 90.2142 29.8047 90.761V95.1289H12.7695V90.761C12.7695 90.2144 13.2144 89.7695 13.761 89.7695H28.8132ZM25.4024 84.2188V86.8984H17.1719V84.2188H25.4024ZM25.4024 53.7852H17.1719V51.1055H25.4024V53.7852ZM29.8047 45.8963C29.8047 47.1855 28.756 48.2344 27.4669 48.2344H14.7248C13.4356 48.2344 12.3869 47.1857 12.3869 45.8963V5.20912C12.3867 3.91981 13.4354 2.87109 14.7246 2.87109H27.4667C28.756 2.87109 29.8047 3.91981 29.8047 5.20912V45.8963ZM37.2362 34.2617L32.6758 38.6294V34.2617H37.2362Z" fill="black"/>
<path d="M21.2871 6.50781C17.9626 6.50781 15.2578 9.21257 15.2578 12.5371C15.2578 15.8616 17.9626 18.5664 21.2871 18.5664C24.6116 18.5664 27.3164 15.8616 27.3164 12.5371C27.3164 9.21257 24.6116 6.50781 21.2871 6.50781ZM21.2871 15.6953C19.5457 15.6953 18.1289 14.2785 18.1289 12.5371C18.1289 10.7957 19.5457 9.37891 21.2871 9.37891C23.0285 9.37891 24.4453 10.7957 24.4453 12.5371C24.4453 14.2785 23.0285 15.6953 21.2871 15.6953Z" fill="black"/>
<path d="M21.2871 19.5234C17.9626 19.5234 15.2578 22.2282 15.2578 25.5527C15.2578 28.8773 17.9626 31.582 21.2871 31.582C24.6116 31.582 27.3164 28.8773 27.3164 25.5527C27.3164 22.2282 24.6116 19.5234 21.2871 19.5234ZM21.2871 28.7109C19.5457 28.7109 18.1289 27.2941 18.1289 25.5527C18.1289 23.8113 19.5457 22.3945 21.2871 22.3945C23.0285 22.3945 24.4453 23.8113 24.4453 25.5527C24.4453 27.2941 23.0285 28.7109 21.2871 28.7109Z" fill="black"/>
<path d="M21.2871 32.5391C17.9626 32.5391 15.2578 35.2438 15.2578 38.5684C15.2578 41.8929 17.9626 44.5977 21.2871 44.5977C24.6116 44.5977 27.3164 41.8929 27.3164 38.5684C27.3164 35.2438 24.6116 32.5391 21.2871 32.5391ZM21.2871 41.7266C19.5457 41.7266 18.1289 40.3098 18.1289 38.5684C18.1289 36.8269 19.5457 35.4102 21.2871 35.4102C23.0285 35.4102 24.4453 36.8269 24.4453 38.5684C24.4453 40.3098 23.0285 41.7266 21.2871 41.7266Z" fill="black"/>
</svg>
